<svg width="346" height="2" viewBox="0 0 346 2" fill="none" xmlns="http://www.w3.org/2000/svg">
<path d="M0.888 1.07899V0.0709901H5.736V1.07899H0.888ZM11.5091 1.07899V0.0709901H16.3571V1.07899H11.5091ZM22.1302 1.07899V0.0709901H26.9782V1.07899H22.1302ZM32.7513 1.07899V0.0709901H37.5993V1.07899H32.7513ZM43.3724 1.07899V0.0709901H48.2204V1.07899H43.3724ZM53.9935 1.07899V0.0709901H58.8415V1.07899H53.9935ZM64.6146 1.07899V0.0709901H69.4626V1.07899H64.6146ZM75.2357 1.07899V0.0709901H80.0837V1.07899H75.2357ZM85.8568 1.07899V0.0709901H90.7048V1.07899H85.8568ZM96.4778 1.07899V0.0709901H101.326V1.07899H96.4778ZM107.099 1.07899V0.0709901H111.947V1.07899H107.099ZM117.72 1.07899V0.0709901H122.568V1.07899H117.72ZM128.341 1.07899V0.0709901H133.189V1.07899H128.341ZM138.962 1.07899V0.0709901H143.81V1.07899H138.962ZM149.583 1.07899V0.0709901H154.431V1.07899H149.583ZM160.204 1.07899V0.0709901H165.052V1.07899H160.204ZM170.826 1.07899V0.0709901H175.674V1.07899H170.826ZM181.447 1.07899V0.0709901H186.295V1.07899H181.447ZM192.068 1.07899V0.0709901H196.916V1.07899H192.068ZM202.689 1.07899V0.0709901H207.537V1.07899H202.689ZM213.31 1.07899V0.0709901H218.158V1.07899H213.31ZM223.931 1.07899V0.0709901H228.779V1.07899H223.931ZM234.552 1.07899V0.0709901H239.4V1.07899H234.552ZM245.173 1.07899V0.0709901H250.021V1.07899H245.173ZM255.794 1.07899V0.0709901H260.642V1.07899H255.794ZM266.415 1.07899V0.0709901H271.263V1.07899H266.415ZM277.036 1.07899V0.0709901H281.884V1.07899H277.036ZM287.658 1.07899V0.0709901H292.506V1.07899H287.658ZM298.279 1.07899V0.0709901H303.127V1.07899H298.279ZM308.9 1.07899V0.0709901H313.748V1.07899H308.9ZM319.521 1.07899V0.0709901H324.369V1.07899H319.521ZM330.142 1.07899V0.0709901H334.99V1.07899H330.142ZM340.763 1.07899V0.0709901H345.611V1.07899H340.763Z" fill="#D1D5DB"/>
</svg>
