<svg width="142" height="33" viewBox="0 0 142 33" fill="none" xmlns="http://www.w3.org/2000/svg">
<circle cx="5" cy="16.115" r="4.5" stroke="#D1D5DB"/>
<path d="M9.21417 17.079V16.071H14.0622V17.079H9.21417ZM15.8353 17.079V16.071H20.6833V17.079H15.8353ZM22.4564 17.079V16.071H27.3044V17.079H22.4564ZM29.0775 17.079V16.071H33.9255V17.079H29.0775ZM35.6985 17.079V16.071H40.5465V17.079H35.6985ZM42.3196 17.079V16.071H47.1676V17.079H42.3196ZM48.9407 17.079V16.071H53.7887V17.079H48.9407Z" fill="#D1D5DB"/>
<path d="M68.3333 3.44836C67.9286 3.44836 67.6171 3.80615 67.6731 4.20748L69.0103 13.8351L64.4765 13.9809L63.6575 11.6906C63.4628 11.1452 62.9471 10.7817 62.3684 10.7817H61.6666C61.2986 10.7817 60.9999 11.0804 60.9999 11.4484V14.0929L60.3333 14.115C59.8028 14.115 59.2941 14.3257 58.919 14.7008C58.544 15.0759 58.3333 15.5846 58.3333 16.115C58.3333 16.6455 58.544 17.1542 58.919 17.5292C59.2941 17.9043 59.8028 18.115 60.3333 18.115L60.9999 18.1372V20.7817C60.9999 21.1497 61.2986 21.4484 61.6666 21.4484H62.3684C62.9471 21.4484 63.4628 21.0848 63.6575 20.5395L64.4765 18.2491L69.0103 18.395L67.6731 28.0226C67.6171 28.4239 67.9286 28.7817 68.3333 28.7817H69.0846C69.5846 28.7817 70.0422 28.4986 70.2655 28.0512L74.9973 18.5877L80.8723 18.7778C80.9148 18.7801 80.9574 18.7814 80.9999 18.7817C81.7072 18.7817 82.3854 18.5007 82.8855 18.0006C83.3856 17.5006 83.6666 16.8223 83.6666 16.115C83.6666 15.4078 83.3856 14.7295 82.8855 14.2294C82.3854 13.7293 81.7072 13.4484 80.9999 13.4484L74.9973 13.6424L70.2655 4.17883C70.0422 3.7315 69.5846 3.44836 69.0846 3.44836H68.3333Z" fill="#004B87"/>
<path d="M88.2142 17.079V16.071H93.0622V17.079H88.2142ZM94.8353 17.079V16.071H99.6833V17.079H94.8353ZM101.456 17.079V16.071H106.304V17.079H101.456ZM108.077 17.079V16.071H112.925V17.079H108.077ZM114.699 17.079V16.071H119.547V17.079H114.699ZM121.32 17.079V16.071H126.168V17.079H121.32ZM127.941 17.079V16.071H132.789V17.079H127.941Z" fill="#D1D5DB"/>
<circle cx="137" cy="16.115" r="5" fill="#D1D5DB"/>
</svg>
