<svg width="238" height="46" viewBox="0 0 238 46" fill="none" xmlns="http://www.w3.org/2000/svg">
<path d="M14.7609 23.25L234.007 23.25" stroke="white" stroke-width="1.5"/>
<g clip-path="url(#clip0_240_3098)">
<path d="M167.612 23.4553C167.543 22.0157 166.253 20.8329 164.797 20.8711L159.743 21.0149L154.598 11.5222C154.178 10.6836 153.303 10.1796 152.368 10.2371C151.944 10.2626 151.56 10.4592 151.285 10.7896C151.002 11.1319 150.871 11.5825 150.928 12.0393L152.457 21.2077L145.59 21.3133L144.774 19.7803C144.462 18.844 143.59 18.2034 142.605 18.185C142.185 18.1775 141.786 18.3368 141.482 18.6352C141.177 18.9346 141.002 19.3508 141.007 19.8312L141.284 21.4844L140.912 21.557C139.997 21.7342 139.333 22.5389 139.333 23.4704L139.333 23.4714C139.333 24.4029 139.996 25.208 140.912 25.3848L141.285 25.4574L141.003 27.1658C141.003 27.5862 141.173 27.9973 141.472 28.2962C141.476 28.2995 141.479 28.3033 141.482 28.3061C141.786 28.6045 142.185 28.7638 142.605 28.7563C143.591 28.7384 144.463 28.0968 144.754 27.2115L145.592 25.6285L152.459 25.7346L150.928 34.9156C150.872 35.3588 151.003 35.8099 151.286 36.1521C151.562 36.484 151.946 36.6801 152.369 36.7046C153.304 36.7612 154.179 36.2568 154.593 35.4295L159.744 25.9269L164.798 26.0707C166.254 26.1103 167.543 24.9271 167.612 23.4553Z" fill="white"/>
</g>
<g clip-path="url(#clip1_240_3098)">
<path d="M102.357 23.4553C102.288 22.0157 100.998 20.8329 99.542 20.8711L94.488 21.0149L89.3427 11.5222C88.9226 10.6836 88.0482 10.1796 87.1129 10.2371C86.6896 10.2626 86.3054 10.4592 86.0306 10.7896C85.7468 11.1319 85.6157 11.5825 85.6728 12.0393L87.2025 21.2077L80.3351 21.3133L79.5195 19.7803C79.2075 18.844 78.3349 18.2034 77.3501 18.185C76.9296 18.1775 76.5308 18.3368 76.2268 18.6352C75.9218 18.9346 75.7469 19.3508 75.7521 19.8312L76.0288 21.4844L75.6573 21.557C74.7418 21.7342 74.0776 22.5389 74.0776 23.4704L74.0776 23.4714C74.0776 24.4029 74.7414 25.208 75.6573 25.3848L76.0297 25.4574L75.7478 27.1658C75.7478 27.5862 75.9185 27.9973 76.2173 28.2962C76.2206 28.2995 76.2244 28.3033 76.2272 28.3061C76.5313 28.6045 76.9301 28.7638 77.3506 28.7563C78.3358 28.7384 79.2084 28.0968 79.4988 27.2115L80.337 25.6285L87.2039 25.7346L85.6728 34.9156C85.6172 35.3588 85.7477 35.8099 86.0315 36.1521C86.3068 36.484 86.6915 36.6801 87.1139 36.7046C88.0491 36.7612 88.9241 36.2568 89.3384 35.4295L94.489 25.9269L99.5429 26.0707C101 26.1103 102.288 24.9271 102.357 23.4553Z" fill="white"/>
</g>
<g clip-path="url(#clip2_240_3098)">
<path d="M37.1024 23.4553C37.0335 22.0157 35.7433 20.8329 34.2871 20.8711L29.2332 21.0149L24.0878 11.5222C23.6678 10.6836 22.7934 10.1796 21.8581 10.2371C21.4348 10.2626 21.0506 10.4592 20.7757 10.7896C20.492 11.1319 20.3609 11.5825 20.4179 12.0393L21.9477 21.2077L15.0802 21.3133L14.2647 19.7803C13.9526 18.844 13.0801 18.2034 12.0953 18.185C11.6748 18.1775 11.276 18.3368 10.9719 18.6352C10.6669 18.9346 10.492 19.3508 10.4972 19.8312L10.7739 21.4844L10.4025 21.557C9.48701 21.7342 8.8228 22.5389 8.8228 23.4704L8.8228 23.4714C8.8228 24.4029 9.48654 25.208 10.4025 25.3848L10.7749 25.4574L10.493 27.1658C10.493 27.5862 10.6636 27.9973 10.9625 28.2962C10.9658 28.2995 10.9696 28.3033 10.9724 28.3061C11.2765 28.6045 11.6753 28.7638 12.0958 28.7563C13.081 28.7384 13.9536 28.0968 14.244 27.2115L15.0821 25.6285L21.9491 25.7346L20.4179 34.9156C20.3623 35.3588 20.4929 35.8099 20.7767 36.1521C21.052 36.484 21.4366 36.6801 21.859 36.7046C22.7943 36.7612 23.6692 36.2568 24.0836 35.4295L29.2342 25.9269L34.2881 26.0707C35.7447 26.1103 37.0335 24.9271 37.1024 23.4553Z" fill="white"/>
</g>
<circle cx="232.363" cy="23" r="5" transform="rotate(-180 232.363 23)" fill="white"/>
<defs>
<clipPath id="clip0_240_3098">
<rect width="32" height="32" fill="white" transform="translate(153.137 0.372559) rotate(45)"/>
</clipPath>
<clipPath id="clip1_240_3098">
<rect width="32" height="32" fill="white" transform="translate(87.8822 0.372559) rotate(45)"/>
</clipPath>
<clipPath id="clip2_240_3098">
<rect width="32" height="32" fill="white" transform="translate(22.6274 0.372559) rotate(45)"/>
</clipPath>
</defs>
</svg>
