<svg width="240" height="310" viewBox="0 0 240 310" fill="none" xmlns="http://www.w3.org/2000/svg">
<g clip-path="url(#clip0_305_299)">
<g clip-path="url(#clip1_305_299)">
<mask id="mask0_305_299" style="mask-type:luminance" maskUnits="userSpaceOnUse" x="-1619" y="-25" width="2017" height="1136">
<path fill-rule="evenodd" clip-rule="evenodd" d="M-1618.73 1110.06H397.383V-24.0071H-1618.73V1110.06Z" fill="white"/>
</mask>
<g mask="url(#mask0_305_299)">
<mask id="mask1_305_299" style="mask-type:luminance" maskUnits="userSpaceOnUse" x="51" y="-3" width="319" height="58">
<path d="M51.3672 54.1174L369.402 54.1175L369.402 -2.58518L51.3671 -2.58529L51.3672 54.1174Z" fill="white"/>
</mask>
<g mask="url(#mask1_305_299)">
<path d="M97.2294 8.16264L131.246 8.16266L131.246 28.5715L116.976 28.5715L131.246 41.6326L119.123 41.6326L105.128 28.5715L105.128 41.6326L97.2295 41.6326L97.2295 20.8851L122.171 20.8851L122.171 15.9188L97.2294 15.9188L97.2294 8.16264Z" fill="#1F2A37"/>
<path d="M134.779 41.6326L143.092 41.6326L143.092 8.09482L134.779 8.09482L134.779 41.6326Z" fill="#1F2A37"/>
<path d="M68.202 33.5372L68.2019 8.16252L61.6896 8.16252C60.5119 8.16252 59.6112 9.04756 59.6112 10.1346C59.6112 16.1231 59.542 33.7414 59.542 39.5916C59.542 40.6801 60.4428 41.6324 61.5512 41.6324C66.0543 41.6324 79.0093 41.6325 80.879 41.6325L80.879 33.5372L68.202 33.5372Z" fill="#1F2A37"/>
<path d="M85.1748 50C85.9378 50 91.7569 50 93.6973 50C93.6973 50 93.6973 33.4692 93.6973 33.1972C90.9255 33.1972 88.0172 33.1972 85.1748 33.1972C85.1748 38.7754 85.1748 44.3535 85.1748 50Z" fill="#1F2A37"/>
<path d="M72.3588 8.16257C72.3588 8.29966 72.3589 16.5296 72.3589 16.5296C76.1694 16.5296 81.0182 16.5296 85.1746 16.5296C85.1746 22.3136 85.1746 29.0476 85.1746 29.0476C87.1151 29.0476 92.9341 29.0476 93.6972 29.0476L93.6971 10.2044C93.6971 9.11496 92.7951 8.22992 91.6884 8.16258C87.5319 8.16258 77.693 8.16257 72.3588 8.16257Z" fill="#1F2A37"/>
<path d="M72.3589 20.6108C72.3589 23.4006 72.3589 26.1904 72.3589 29.1149C73.0517 29.1149 73.8138 29.1149 74.5066 29.1149C76.4473 29.1149 78.8705 29.1149 80.811 29.1149C80.811 29.1149 80.8109 20.7479 80.8109 20.6108C78.0392 20.6108 75.1994 20.6108 72.3589 20.6108ZM78.3171 26.5295C77.4858 26.5295 76.5156 26.5295 75.7525 26.5295C75.4766 26.5295 75.1994 26.5295 74.853 26.5295C74.853 25.3727 74.853 24.2856 74.853 23.1288C76.0304 23.1288 77.1396 23.1288 78.3171 23.1288C78.3171 23.1962 78.3171 26.5295 78.3171 26.5295Z" fill="#1F2A37"/>
<path d="M183.898 33.1973L183.898 45.7143C183.898 46.8026 182.928 47.6871 181.821 47.6871L169.074 47.6871L169.074 49.7278L183.898 49.7278L183.969 49.7278C185.007 49.7278 185.907 48.8435 185.907 47.755L185.907 47.6871L185.907 33.1973L183.898 33.1973Z" fill="#1F2A37"/>
<path d="M56.0785 16.4622L56.0784 3.94417C56.0784 2.85711 56.9097 2.03941 58.0182 2.03941L70.7657 2.03941C70.8349 2.03941 70.8349 1.97207 70.8349 1.97207L70.8349 0.0673087C70.8349 0.0673087 70.8349 -3.21119e-05 70.7657 -3.21367e-05L56.0784 -3.74019e-05C54.9007 -3.78241e-05 54 0.885006 54 2.03941L54 16.4622C54 16.5295 54.0692 16.5295 54.0692 16.5295L56.0092 16.5295C56.0092 16.5295 56.0785 16.5295 56.0785 16.4622Z" fill="#1F2A37"/>
<path d="M180.295 16.4623L180.295 8.16267L146.695 8.16265L146.695 20.6109L146.695 28.9804L169.074 28.9804L169.074 33.1292L146.695 33.1292L146.695 41.4965L180.295 41.4965L180.295 20.6807L157.918 20.6807L157.918 16.4623L180.295 16.4623Z" fill="#1F2A37"/>
</g>
</g>
</g>
</g>
<path d="M0 70H7.27273V77.2727H0V70ZM7.27273 70H14.5455V77.2727H7.27273V70ZM14.5455 70H21.8182V77.2727H14.5455V70ZM21.8182 70H29.0909V77.2727H21.8182V70ZM29.0909 70H36.3636V77.2727H29.0909V70ZM36.3636 70H43.6364V77.2727H36.3636V70ZM43.6364 70H50.9091V77.2727H43.6364V70ZM65.4545 70H72.7273V77.2727H65.4545V70ZM87.2727 70H94.5455V77.2727H87.2727V70ZM94.5455 70H101.818V77.2727H94.5455V70ZM101.818 70H109.091V77.2727H101.818V70ZM116.364 70H123.636V77.2727H116.364V70ZM130.909 70H138.182V77.2727H130.909V70ZM138.182 70H145.455V77.2727H138.182V70ZM145.455 70H152.727V77.2727H145.455V70ZM152.727 70H160V77.2727H152.727V70ZM160 70H167.273V77.2727H160V70ZM167.273 70H174.545V77.2727H167.273V70ZM189.091 70H196.364V77.2727H189.091V70ZM196.364 70H203.636V77.2727H196.364V70ZM203.636 70H210.909V77.2727H203.636V70ZM210.909 70H218.182V77.2727H210.909V70ZM218.182 70H225.455V77.2727H218.182V70ZM225.455 70H232.727V77.2727H225.455V70ZM232.727 70H240V77.2727H232.727V70ZM0 77.2727H7.27273V84.5455H0V77.2727ZM43.6364 77.2727H50.9091V84.5455H43.6364V77.2727ZM58.1818 77.2727H65.4545V84.5455H58.1818V77.2727ZM94.5455 77.2727H101.818V84.5455H94.5455V77.2727ZM101.818 77.2727H109.091V84.5455H101.818V77.2727ZM109.091 77.2727H116.364V84.5455H109.091V77.2727ZM116.364 77.2727H123.636V84.5455H116.364V77.2727ZM123.636 77.2727H130.909V84.5455H123.636V77.2727ZM167.273 77.2727H174.545V84.5455H167.273V77.2727ZM189.091 77.2727H196.364V84.5455H189.091V77.2727ZM232.727 77.2727H240V84.5455H232.727V77.2727ZM0 84.5455H7.27273V91.8182H0V84.5455ZM14.5455 84.5455H21.8182V91.8182H14.5455V84.5455ZM21.8182 84.5455H29.0909V91.8182H21.8182V84.5455ZM29.0909 84.5455H36.3636V91.8182H29.0909V84.5455ZM43.6364 84.5455H50.9091V91.8182H43.6364V84.5455ZM58.1818 84.5455H65.4545V91.8182H58.1818V84.5455ZM65.4545 84.5455H72.7273V91.8182H65.4545V84.5455ZM72.7273 84.5455H80V91.8182H72.7273V84.5455ZM80 84.5455H87.2727V91.8182H80V84.5455ZM87.2727 84.5455H94.5455V91.8182H87.2727V84.5455ZM94.5455 84.5455H101.818V91.8182H94.5455V84.5455ZM101.818 84.5455H109.091V91.8182H101.818V84.5455ZM130.909 84.5455H138.182V91.8182H130.909V84.5455ZM174.545 84.5455H181.818V91.8182H174.545V84.5455ZM189.091 84.5455H196.364V91.8182H189.091V84.5455ZM203.636 84.5455H210.909V91.8182H203.636V84.5455ZM210.909 84.5455H218.182V91.8182H210.909V84.5455ZM218.182 84.5455H225.455V91.8182H218.182V84.5455ZM232.727 84.5455H240V91.8182H232.727V84.5455ZM0 91.8182H7.27273V99.0909H0V91.8182ZM14.5455 91.8182H21.8182V99.0909H14.5455V91.8182ZM21.8182 91.8182H29.0909V99.0909H21.8182V91.8182ZM29.0909 91.8182H36.3636V99.0909H29.0909V91.8182ZM43.6364 91.8182H50.9091V99.0909H43.6364V91.8182ZM72.7273 91.8182H80V99.0909H72.7273V91.8182ZM87.2727 91.8182H94.5455V99.0909H87.2727V91.8182ZM94.5455 91.8182H101.818V99.0909H94.5455V91.8182ZM101.818 91.8182H109.091V99.0909H101.818V91.8182ZM109.091 91.8182H116.364V99.0909H109.091V91.8182ZM116.364 91.8182H123.636V99.0909H116.364V91.8182ZM130.909 91.8182H138.182V99.0909H130.909V91.8182ZM152.727 91.8182H160V99.0909H152.727V91.8182ZM174.545 91.8182H181.818V99.0909H174.545V91.8182ZM189.091 91.8182H196.364V99.0909H189.091V91.8182ZM203.636 91.8182H210.909V99.0909H203.636V91.8182ZM210.909 91.8182H218.182V99.0909H210.909V91.8182ZM218.182 91.8182H225.455V99.0909H218.182V91.8182ZM232.727 91.8182H240V99.0909H232.727V91.8182ZM0 99.0909H7.27273V106.364H0V99.0909ZM14.5455 99.0909H21.8182V106.364H14.5455V99.0909ZM21.8182 99.0909H29.0909V106.364H21.8182V99.0909ZM29.0909 99.0909H36.3636V106.364H29.0909V99.0909ZM43.6364 99.0909H50.9091V106.364H43.6364V99.0909ZM65.4545 99.0909H72.7273V106.364H65.4545V99.0909ZM72.7273 99.0909H80V106.364H72.7273V99.0909ZM101.818 99.0909H109.091V106.364H101.818V99.0909ZM109.091 99.0909H116.364V106.364H109.091V99.0909ZM116.364 99.0909H123.636V106.364H116.364V99.0909ZM130.909 99.0909H138.182V106.364H130.909V99.0909ZM160 99.0909H167.273V106.364H160V99.0909ZM167.273 99.0909H174.545V106.364H167.273V99.0909ZM174.545 99.0909H181.818V106.364H174.545V99.0909ZM189.091 99.0909H196.364V106.364H189.091V99.0909ZM203.636 99.0909H210.909V106.364H203.636V99.0909ZM210.909 99.0909H218.182V106.364H210.909V99.0909ZM218.182 99.0909H225.455V106.364H218.182V99.0909ZM232.727 99.0909H240V106.364H232.727V99.0909ZM0 106.364H7.27273V113.636H0V106.364ZM43.6364 106.364H50.9091V113.636H43.6364V106.364ZM65.4545 106.364H72.7273V113.636H65.4545V106.364ZM72.7273 106.364H80V113.636H72.7273V106.364ZM80 106.364H87.2727V113.636H80V106.364ZM87.2727 106.364H94.5455V113.636H87.2727V106.364ZM101.818 106.364H109.091V113.636H101.818V106.364ZM116.364 106.364H123.636V113.636H116.364V106.364ZM123.636 106.364H130.909V113.636H123.636V106.364ZM130.909 106.364H138.182V113.636H130.909V106.364ZM152.727 106.364H160V113.636H152.727V106.364ZM167.273 106.364H174.545V113.636H167.273V106.364ZM189.091 106.364H196.364V113.636H189.091V106.364ZM232.727 106.364H240V113.636H232.727V106.364ZM0 113.636H7.27273V120.909H0V113.636ZM7.27273 113.636H14.5455V120.909H7.27273V113.636ZM14.5455 113.636H21.8182V120.909H14.5455V113.636ZM21.8182 113.636H29.0909V120.909H21.8182V113.636ZM29.0909 113.636H36.3636V120.909H29.0909V113.636ZM36.3636 113.636H43.6364V120.909H36.3636V113.636ZM43.6364 113.636H50.9091V120.909H43.6364V113.636ZM58.1818 113.636H65.4545V120.909H58.1818V113.636ZM72.7273 113.636H80V120.909H72.7273V113.636ZM87.2727 113.636H94.5455V120.909H87.2727V113.636ZM101.818 113.636H109.091V120.909H101.818V113.636ZM116.364 113.636H123.636V120.909H116.364V113.636ZM130.909 113.636H138.182V120.909H130.909V113.636ZM145.455 113.636H152.727V120.909H145.455V113.636ZM160 113.636H167.273V120.909H160V113.636ZM174.545 113.636H181.818V120.909H174.545V113.636ZM189.091 113.636H196.364V120.909H189.091V113.636ZM196.364 113.636H203.636V120.909H196.364V113.636ZM203.636 113.636H210.909V120.909H203.636V113.636ZM210.909 113.636H218.182V120.909H210.909V113.636ZM218.182 113.636H225.455V120.909H218.182V113.636ZM225.455 113.636H232.727V120.909H225.455V113.636ZM232.727 113.636H240V120.909H232.727V113.636ZM72.7273 120.909H80V128.182H72.7273V120.909ZM101.818 120.909H109.091V128.182H101.818V120.909ZM109.091 120.909H116.364V128.182H109.091V120.909ZM123.636 120.909H130.909V128.182H123.636V120.909ZM130.909 120.909H138.182V128.182H130.909V120.909ZM138.182 120.909H145.455V128.182H138.182V120.909ZM160 120.909H167.273V128.182H160V120.909ZM174.545 120.909H181.818V128.182H174.545V120.909ZM7.27273 128.182H14.5455V135.455H7.27273V128.182ZM14.5455 128.182H21.8182V135.455H14.5455V128.182ZM21.8182 128.182H29.0909V135.455H21.8182V128.182ZM36.3636 128.182H43.6364V135.455H36.3636V128.182ZM43.6364 128.182H50.9091V135.455H43.6364V128.182ZM72.7273 128.182H80V135.455H72.7273V128.182ZM80 128.182H87.2727V135.455H80V128.182ZM87.2727 128.182H94.5455V135.455H87.2727V128.182ZM116.364 128.182H123.636V135.455H116.364V128.182ZM123.636 128.182H130.909V135.455H123.636V128.182ZM130.909 128.182H138.182V135.455H130.909V128.182ZM152.727 128.182H160V135.455H152.727V128.182ZM167.273 128.182H174.545V135.455H167.273V128.182ZM174.545 128.182H181.818V135.455H174.545V128.182ZM218.182 128.182H225.455V135.455H218.182V128.182ZM225.455 128.182H232.727V135.455H225.455V128.182ZM29.0909 135.455H36.3636V142.727H29.0909V135.455ZM36.3636 135.455H43.6364V142.727H36.3636V135.455ZM58.1818 135.455H65.4545V142.727H58.1818V135.455ZM65.4545 135.455H72.7273V142.727H65.4545V135.455ZM72.7273 135.455H80V142.727H72.7273V135.455ZM80 135.455H87.2727V142.727H80V135.455ZM87.2727 135.455H94.5455V142.727H87.2727V135.455ZM94.5455 135.455H101.818V142.727H94.5455V135.455ZM101.818 135.455H109.091V142.727H101.818V135.455ZM123.636 135.455H130.909V142.727H123.636V135.455ZM130.909 135.455H138.182V142.727H130.909V135.455ZM138.182 135.455H145.455V142.727H138.182V135.455ZM145.455 135.455H152.727V142.727H145.455V135.455ZM167.273 135.455H174.545V142.727H167.273V135.455ZM189.091 135.455H196.364V142.727H189.091V135.455ZM196.364 135.455H203.636V142.727H196.364V135.455ZM210.909 135.455H218.182V142.727H210.909V135.455ZM218.182 135.455H225.455V142.727H218.182V135.455ZM225.455 135.455H232.727V142.727H225.455V135.455ZM232.727 135.455H240V142.727H232.727V135.455ZM0 142.727H7.27273V150H0V142.727ZM21.8182 142.727H29.0909V150H21.8182V142.727ZM36.3636 142.727H43.6364V150H36.3636V142.727ZM43.6364 142.727H50.9091V150H43.6364V142.727ZM58.1818 142.727H65.4545V150H58.1818V142.727ZM65.4545 142.727H72.7273V150H65.4545V142.727ZM72.7273 142.727H80V150H72.7273V142.727ZM94.5455 142.727H101.818V150H94.5455V142.727ZM116.364 142.727H123.636V150H116.364V142.727ZM130.909 142.727H138.182V150H130.909V142.727ZM145.455 142.727H152.727V150H145.455V142.727ZM152.727 142.727H160V150H152.727V142.727ZM160 142.727H167.273V150H160V142.727ZM167.273 142.727H174.545V150H167.273V142.727ZM181.818 142.727H189.091V150H181.818V142.727ZM189.091 142.727H196.364V150H189.091V142.727ZM196.364 142.727H203.636V150H196.364V142.727ZM203.636 142.727H210.909V150H203.636V142.727ZM210.909 142.727H218.182V150H210.909V142.727ZM225.455 142.727H232.727V150H225.455V142.727ZM232.727 142.727H240V150H232.727V142.727ZM14.5455 150H21.8182V157.273H14.5455V150ZM21.8182 150H29.0909V157.273H21.8182V150ZM29.0909 150H36.3636V157.273H29.0909V150ZM36.3636 150H43.6364V157.273H36.3636V150ZM58.1818 150H65.4545V157.273H58.1818V150ZM65.4545 150H72.7273V157.273H65.4545V150ZM72.7273 150H80V157.273H72.7273V150ZM80 150H87.2727V157.273H80V150ZM87.2727 150H94.5455V157.273H87.2727V150ZM94.5455 150H101.818V157.273H94.5455V150ZM116.364 150H123.636V157.273H116.364V150ZM123.636 150H130.909V157.273H123.636V150ZM145.455 150H152.727V157.273H145.455V150ZM152.727 150H160V157.273H152.727V150ZM160 150H167.273V157.273H160V150ZM167.273 150H174.545V157.273H167.273V150ZM174.545 150H181.818V157.273H174.545V150ZM196.364 150H203.636V157.273H196.364V150ZM210.909 150H218.182V157.273H210.909V150ZM232.727 150H240V157.273H232.727V150ZM0 157.273H7.27273V164.545H0V157.273ZM14.5455 157.273H21.8182V164.545H14.5455V157.273ZM43.6364 157.273H50.9091V164.545H43.6364V157.273ZM50.9091 157.273H58.1818V164.545H50.9091V157.273ZM58.1818 157.273H65.4545V164.545H58.1818V157.273ZM80 157.273H87.2727V164.545H80V157.273ZM87.2727 157.273H94.5455V164.545H87.2727V157.273ZM94.5455 157.273H101.818V164.545H94.5455V157.273ZM101.818 157.273H109.091V164.545H101.818V157.273ZM109.091 157.273H116.364V164.545H109.091V157.273ZM138.182 157.273H145.455V164.545H138.182V157.273ZM145.455 157.273H152.727V164.545H145.455V157.273ZM152.727 157.273H160V164.545H152.727V157.273ZM160 157.273H167.273V164.545H160V157.273ZM167.273 157.273H174.545V164.545H167.273V157.273ZM181.818 157.273H189.091V164.545H181.818V157.273ZM196.364 157.273H203.636V164.545H196.364V157.273ZM203.636 157.273H210.909V164.545H203.636V157.273ZM210.909 157.273H218.182V164.545H210.909V157.273ZM0 164.545H7.27273V171.818H0V164.545ZM36.3636 164.545H43.6364V171.818H36.3636V164.545ZM50.9091 164.545H58.1818V171.818H50.9091V164.545ZM58.1818 164.545H65.4545V171.818H58.1818V164.545ZM72.7273 164.545H80V171.818H72.7273V164.545ZM80 164.545H87.2727V171.818H80V164.545ZM94.5455 164.545H101.818V171.818H94.5455V164.545ZM116.364 164.545H123.636V171.818H116.364V164.545ZM123.636 164.545H130.909V171.818H123.636V164.545ZM145.455 164.545H152.727V171.818H145.455V164.545ZM152.727 164.545H160V171.818H152.727V164.545ZM167.273 164.545H174.545V171.818H167.273V164.545ZM181.818 164.545H189.091V171.818H181.818V164.545ZM196.364 164.545H203.636V171.818H196.364V164.545ZM225.455 164.545H232.727V171.818H225.455V164.545ZM14.5455 171.818H21.8182V179.091H14.5455V171.818ZM21.8182 171.818H29.0909V179.091H21.8182V171.818ZM29.0909 171.818H36.3636V179.091H29.0909V171.818ZM43.6364 171.818H50.9091V179.091H43.6364V171.818ZM50.9091 171.818H58.1818V179.091H50.9091V171.818ZM58.1818 171.818H65.4545V179.091H58.1818V171.818ZM87.2727 171.818H94.5455V179.091H87.2727V171.818ZM123.636 171.818H130.909V179.091H123.636V171.818ZM130.909 171.818H138.182V179.091H130.909V171.818ZM138.182 171.818H145.455V179.091H138.182V171.818ZM145.455 171.818H152.727V179.091H145.455V171.818ZM160 171.818H167.273V179.091H160V171.818ZM174.545 171.818H181.818V179.091H174.545V171.818ZM189.091 171.818H196.364V179.091H189.091V171.818ZM210.909 171.818H218.182V179.091H210.909V171.818ZM218.182 171.818H225.455V179.091H218.182V171.818ZM21.8182 179.091H29.0909V186.364H21.8182V179.091ZM36.3636 179.091H43.6364V186.364H36.3636V179.091ZM58.1818 179.091H65.4545V186.364H58.1818V179.091ZM72.7273 179.091H80V186.364H72.7273V179.091ZM80 179.091H87.2727V186.364H80V179.091ZM94.5455 179.091H101.818V186.364H94.5455V179.091ZM101.818 179.091H109.091V186.364H101.818V179.091ZM109.091 179.091H116.364V186.364H109.091V179.091ZM123.636 179.091H130.909V186.364H123.636V179.091ZM152.727 179.091H160V186.364H152.727V179.091ZM160 179.091H167.273V186.364H160V179.091ZM174.545 179.091H181.818V186.364H174.545V179.091ZM181.818 179.091H189.091V186.364H181.818V179.091ZM189.091 179.091H196.364V186.364H189.091V179.091ZM210.909 179.091H218.182V186.364H210.909V179.091ZM218.182 179.091H225.455V186.364H218.182V179.091ZM7.27273 186.364H14.5455V193.636H7.27273V186.364ZM14.5455 186.364H21.8182V193.636H14.5455V186.364ZM21.8182 186.364H29.0909V193.636H21.8182V186.364ZM43.6364 186.364H50.9091V193.636H43.6364V186.364ZM50.9091 186.364H58.1818V193.636H50.9091V186.364ZM58.1818 186.364H65.4545V193.636H58.1818V186.364ZM65.4545 186.364H72.7273V193.636H65.4545V186.364ZM87.2727 186.364H94.5455V193.636H87.2727V186.364ZM94.5455 186.364H101.818V193.636H94.5455V186.364ZM116.364 186.364H123.636V193.636H116.364V186.364ZM123.636 186.364H130.909V193.636H123.636V186.364ZM130.909 186.364H138.182V193.636H130.909V186.364ZM145.455 186.364H152.727V193.636H145.455V186.364ZM152.727 186.364H160V193.636H152.727V186.364ZM160 186.364H167.273V193.636H160V186.364ZM167.273 186.364H174.545V193.636H167.273V186.364ZM181.818 186.364H189.091V193.636H181.818V186.364ZM189.091 186.364H196.364V193.636H189.091V186.364ZM203.636 186.364H210.909V193.636H203.636V186.364ZM210.909 186.364H218.182V193.636H210.909V186.364ZM218.182 186.364H225.455V193.636H218.182V186.364ZM0 193.636H7.27273V200.909H0V193.636ZM29.0909 193.636H36.3636V200.909H29.0909V193.636ZM58.1818 193.636H65.4545V200.909H58.1818V193.636ZM72.7273 193.636H80V200.909H72.7273V193.636ZM87.2727 193.636H94.5455V200.909H87.2727V193.636ZM109.091 193.636H116.364V200.909H109.091V193.636ZM116.364 193.636H123.636V200.909H116.364V193.636ZM167.273 193.636H174.545V200.909H167.273V193.636ZM189.091 193.636H196.364V200.909H189.091V193.636ZM203.636 193.636H210.909V200.909H203.636V193.636ZM210.909 193.636H218.182V200.909H210.909V193.636ZM232.727 193.636H240V200.909H232.727V193.636ZM14.5455 200.909H21.8182V208.182H14.5455V200.909ZM36.3636 200.909H43.6364V208.182H36.3636V200.909ZM43.6364 200.909H50.9091V208.182H43.6364V200.909ZM50.9091 200.909H58.1818V208.182H50.9091V200.909ZM58.1818 200.909H65.4545V208.182H58.1818V200.909ZM65.4545 200.909H72.7273V208.182H65.4545V200.909ZM72.7273 200.909H80V208.182H72.7273V200.909ZM80 200.909H87.2727V208.182H80V200.909ZM109.091 200.909H116.364V208.182H109.091V200.909ZM130.909 200.909H138.182V208.182H130.909V200.909ZM152.727 200.909H160V208.182H152.727V200.909ZM196.364 200.909H203.636V208.182H196.364V200.909ZM203.636 200.909H210.909V208.182H203.636V200.909ZM218.182 200.909H225.455V208.182H218.182V200.909ZM225.455 200.909H232.727V208.182H225.455V200.909ZM29.0909 208.182H36.3636V215.455H29.0909V208.182ZM58.1818 208.182H65.4545V215.455H58.1818V208.182ZM87.2727 208.182H94.5455V215.455H87.2727V208.182ZM94.5455 208.182H101.818V215.455H94.5455V208.182ZM101.818 208.182H109.091V215.455H101.818V208.182ZM109.091 208.182H116.364V215.455H109.091V208.182ZM116.364 208.182H123.636V215.455H116.364V208.182ZM123.636 208.182H130.909V215.455H123.636V208.182ZM138.182 208.182H145.455V215.455H138.182V208.182ZM145.455 208.182H152.727V215.455H145.455V208.182ZM160 208.182H167.273V215.455H160V208.182ZM174.545 208.182H181.818V215.455H174.545V208.182ZM181.818 208.182H189.091V215.455H181.818V208.182ZM203.636 208.182H210.909V215.455H203.636V208.182ZM225.455 208.182H232.727V215.455H225.455V208.182ZM0 215.455H7.27273V222.727H0V215.455ZM14.5455 215.455H21.8182V222.727H14.5455V215.455ZM36.3636 215.455H43.6364V222.727H36.3636V215.455ZM43.6364 215.455H50.9091V222.727H43.6364V215.455ZM58.1818 215.455H65.4545V222.727H58.1818V215.455ZM65.4545 215.455H72.7273V222.727H65.4545V215.455ZM87.2727 215.455H94.5455V222.727H87.2727V215.455ZM101.818 215.455H109.091V222.727H101.818V215.455ZM109.091 215.455H116.364V222.727H109.091V215.455ZM116.364 215.455H123.636V222.727H116.364V215.455ZM123.636 215.455H130.909V222.727H123.636V215.455ZM138.182 215.455H145.455V222.727H138.182V215.455ZM160 215.455H167.273V222.727H160V215.455ZM210.909 215.455H218.182V222.727H210.909V215.455ZM218.182 215.455H225.455V222.727H218.182V215.455ZM232.727 215.455H240V222.727H232.727V215.455ZM0 222.727H7.27273V230H0V222.727ZM7.27273 222.727H14.5455V230H7.27273V222.727ZM14.5455 222.727H21.8182V230H14.5455V222.727ZM21.8182 222.727H29.0909V230H21.8182V222.727ZM36.3636 222.727H43.6364V230H36.3636V222.727ZM80 222.727H87.2727V230H80V222.727ZM101.818 222.727H109.091V230H101.818V222.727ZM116.364 222.727H123.636V230H116.364V222.727ZM145.455 222.727H152.727V230H145.455V222.727ZM152.727 222.727H160V230H152.727V222.727ZM160 222.727H167.273V230H160V222.727ZM181.818 222.727H189.091V230H181.818V222.727ZM189.091 222.727H196.364V230H189.091V222.727ZM210.909 222.727H218.182V230H210.909V222.727ZM232.727 222.727H240V230H232.727V222.727ZM14.5455 230H21.8182V237.273H14.5455V230ZM21.8182 230H29.0909V237.273H21.8182V230ZM29.0909 230H36.3636V237.273H29.0909V230ZM43.6364 230H50.9091V237.273H43.6364V230ZM65.4545 230H72.7273V237.273H65.4545V230ZM94.5455 230H101.818V237.273H94.5455V230ZM101.818 230H109.091V237.273H101.818V230ZM138.182 230H145.455V237.273H138.182V230ZM145.455 230H152.727V237.273H145.455V230ZM160 230H167.273V237.273H160V230ZM181.818 230H189.091V237.273H181.818V230ZM189.091 230H196.364V237.273H189.091V230ZM218.182 230H225.455V237.273H218.182V230ZM225.455 230H232.727V237.273H225.455V230ZM232.727 230H240V237.273H232.727V230ZM7.27273 237.273H14.5455V244.545H7.27273V237.273ZM21.8182 237.273H29.0909V244.545H21.8182V237.273ZM36.3636 237.273H43.6364V244.545H36.3636V237.273ZM58.1818 237.273H65.4545V244.545H58.1818V237.273ZM65.4545 237.273H72.7273V244.545H65.4545V237.273ZM87.2727 237.273H94.5455V244.545H87.2727V237.273ZM109.091 237.273H116.364V244.545H109.091V237.273ZM123.636 237.273H130.909V244.545H123.636V237.273ZM130.909 237.273H138.182V244.545H130.909V237.273ZM145.455 237.273H152.727V244.545H145.455V237.273ZM160 237.273H167.273V244.545H160V237.273ZM167.273 237.273H174.545V244.545H167.273V237.273ZM174.545 237.273H181.818V244.545H174.545V237.273ZM189.091 237.273H196.364V244.545H189.091V237.273ZM196.364 237.273H203.636V244.545H196.364V237.273ZM203.636 237.273H210.909V244.545H203.636V237.273ZM210.909 237.273H218.182V244.545H210.909V237.273ZM0 244.545H7.27273V251.818H0V244.545ZM21.8182 244.545H29.0909V251.818H21.8182V244.545ZM29.0909 244.545H36.3636V251.818H29.0909V244.545ZM36.3636 244.545H43.6364V251.818H36.3636V244.545ZM43.6364 244.545H50.9091V251.818H43.6364V244.545ZM65.4545 244.545H72.7273V251.818H65.4545V244.545ZM72.7273 244.545H80V251.818H72.7273V244.545ZM80 244.545H87.2727V251.818H80V244.545ZM101.818 244.545H109.091V251.818H101.818V244.545ZM109.091 244.545H116.364V251.818H109.091V244.545ZM116.364 244.545H123.636V251.818H116.364V244.545ZM123.636 244.545H130.909V251.818H123.636V244.545ZM138.182 244.545H145.455V251.818H138.182V244.545ZM145.455 244.545H152.727V251.818H145.455V244.545ZM160 244.545H167.273V251.818H160V244.545ZM167.273 244.545H174.545V251.818H167.273V244.545ZM174.545 244.545H181.818V251.818H174.545V244.545ZM181.818 244.545H189.091V251.818H181.818V244.545ZM189.091 244.545H196.364V251.818H189.091V244.545ZM196.364 244.545H203.636V251.818H196.364V244.545ZM203.636 244.545H210.909V251.818H203.636V244.545ZM210.909 244.545H218.182V251.818H210.909V244.545ZM58.1818 251.818H65.4545V259.091H58.1818V251.818ZM65.4545 251.818H72.7273V259.091H65.4545V251.818ZM72.7273 251.818H80V259.091H72.7273V251.818ZM80 251.818H87.2727V259.091H80V251.818ZM87.2727 251.818H94.5455V259.091H87.2727V251.818ZM94.5455 251.818H101.818V259.091H94.5455V251.818ZM116.364 251.818H123.636V259.091H116.364V251.818ZM130.909 251.818H138.182V259.091H130.909V251.818ZM138.182 251.818H145.455V259.091H138.182V251.818ZM152.727 251.818H160V259.091H152.727V251.818ZM160 251.818H167.273V259.091H160V251.818ZM174.545 251.818H181.818V259.091H174.545V251.818ZM203.636 251.818H210.909V259.091H203.636V251.818ZM210.909 251.818H218.182V259.091H210.909V251.818ZM0 259.091H7.27273V266.364H0V259.091ZM7.27273 259.091H14.5455V266.364H7.27273V259.091ZM14.5455 259.091H21.8182V266.364H14.5455V259.091ZM21.8182 259.091H29.0909V266.364H21.8182V259.091ZM29.0909 259.091H36.3636V266.364H29.0909V259.091ZM36.3636 259.091H43.6364V266.364H36.3636V259.091ZM43.6364 259.091H50.9091V266.364H43.6364V259.091ZM65.4545 259.091H72.7273V266.364H65.4545V259.091ZM72.7273 259.091H80V266.364H72.7273V259.091ZM94.5455 259.091H101.818V266.364H94.5455V259.091ZM101.818 259.091H109.091V266.364H101.818V259.091ZM109.091 259.091H116.364V266.364H109.091V259.091ZM116.364 259.091H123.636V266.364H116.364V259.091ZM123.636 259.091H130.909V266.364H123.636V259.091ZM130.909 259.091H138.182V266.364H130.909V259.091ZM138.182 259.091H145.455V266.364H138.182V259.091ZM145.455 259.091H152.727V266.364H145.455V259.091ZM152.727 259.091H160V266.364H152.727V259.091ZM167.273 259.091H174.545V266.364H167.273V259.091ZM174.545 259.091H181.818V266.364H174.545V259.091ZM189.091 259.091H196.364V266.364H189.091V259.091ZM203.636 259.091H210.909V266.364H203.636V259.091ZM225.455 259.091H232.727V266.364H225.455V259.091ZM0 266.364H7.27273V273.636H0V266.364ZM43.6364 266.364H50.9091V273.636H43.6364V266.364ZM58.1818 266.364H65.4545V273.636H58.1818V266.364ZM72.7273 266.364H80V273.636H72.7273V266.364ZM87.2727 266.364H94.5455V273.636H87.2727V266.364ZM116.364 266.364H123.636V273.636H116.364V266.364ZM123.636 266.364H130.909V273.636H123.636V266.364ZM130.909 266.364H138.182V273.636H130.909V266.364ZM145.455 266.364H152.727V273.636H145.455V266.364ZM167.273 266.364H174.545V273.636H167.273V266.364ZM174.545 266.364H181.818V273.636H174.545V266.364ZM203.636 266.364H210.909V273.636H203.636V266.364ZM210.909 266.364H218.182V273.636H210.909V266.364ZM218.182 266.364H225.455V273.636H218.182V266.364ZM225.455 266.364H232.727V273.636H225.455V266.364ZM0 273.636H7.27273V280.909H0V273.636ZM14.5455 273.636H21.8182V280.909H14.5455V273.636ZM21.8182 273.636H29.0909V280.909H21.8182V273.636ZM29.0909 273.636H36.3636V280.909H29.0909V273.636ZM43.6364 273.636H50.9091V280.909H43.6364V273.636ZM65.4545 273.636H72.7273V280.909H65.4545V273.636ZM72.7273 273.636H80V280.909H72.7273V273.636ZM116.364 273.636H123.636V280.909H116.364V273.636ZM123.636 273.636H130.909V280.909H123.636V273.636ZM130.909 273.636H138.182V280.909H130.909V273.636ZM160 273.636H167.273V280.909H160V273.636ZM167.273 273.636H174.545V280.909H167.273V273.636ZM174.545 273.636H181.818V280.909H174.545V273.636ZM181.818 273.636H189.091V280.909H181.818V273.636ZM189.091 273.636H196.364V280.909H189.091V273.636ZM196.364 273.636H203.636V280.909H196.364V273.636ZM203.636 273.636H210.909V280.909H203.636V273.636ZM218.182 273.636H225.455V280.909H218.182V273.636ZM225.455 273.636H232.727V280.909H225.455V273.636ZM0 280.909H7.27273V288.182H0V280.909ZM14.5455 280.909H21.8182V288.182H14.5455V280.909ZM21.8182 280.909H29.0909V288.182H21.8182V280.909ZM29.0909 280.909H36.3636V288.182H29.0909V280.909ZM43.6364 280.909H50.9091V288.182H43.6364V280.909ZM58.1818 280.909H65.4545V288.182H58.1818V280.909ZM87.2727 280.909H94.5455V288.182H87.2727V280.909ZM101.818 280.909H109.091V288.182H101.818V280.909ZM109.091 280.909H116.364V288.182H109.091V280.909ZM138.182 280.909H145.455V288.182H138.182V280.909ZM160 280.909H167.273V288.182H160V280.909ZM167.273 280.909H174.545V288.182H167.273V280.909ZM174.545 280.909H181.818V288.182H174.545V280.909ZM196.364 280.909H203.636V288.182H196.364V280.909ZM225.455 280.909H232.727V288.182H225.455V280.909ZM232.727 280.909H240V288.182H232.727V280.909ZM0 288.182H7.27273V295.455H0V288.182ZM14.5455 288.182H21.8182V295.455H14.5455V288.182ZM21.8182 288.182H29.0909V295.455H21.8182V288.182ZM29.0909 288.182H36.3636V295.455H29.0909V288.182ZM43.6364 288.182H50.9091V295.455H43.6364V288.182ZM58.1818 288.182H65.4545V295.455H58.1818V288.182ZM80 288.182H87.2727V295.455H80V288.182ZM145.455 288.182H152.727V295.455H145.455V288.182ZM152.727 288.182H160V295.455H152.727V288.182ZM160 288.182H167.273V295.455H160V288.182ZM167.273 288.182H174.545V295.455H167.273V288.182ZM174.545 288.182H181.818V295.455H174.545V288.182ZM181.818 288.182H189.091V295.455H181.818V288.182ZM189.091 288.182H196.364V295.455H189.091V288.182ZM196.364 288.182H203.636V295.455H196.364V288.182ZM0 295.455H7.27273V302.727H0V295.455ZM43.6364 295.455H50.9091V302.727H43.6364V295.455ZM58.1818 295.455H65.4545V302.727H58.1818V295.455ZM72.7273 295.455H80V302.727H72.7273V295.455ZM101.818 295.455H109.091V302.727H101.818V295.455ZM109.091 295.455H116.364V302.727H109.091V295.455ZM116.364 295.455H123.636V302.727H116.364V295.455ZM123.636 295.455H130.909V302.727H123.636V295.455ZM130.909 295.455H138.182V302.727H130.909V295.455ZM145.455 295.455H152.727V302.727H145.455V295.455ZM167.273 295.455H174.545V302.727H167.273V295.455ZM181.818 295.455H189.091V302.727H181.818V295.455ZM189.091 295.455H196.364V302.727H189.091V295.455ZM196.364 295.455H203.636V302.727H196.364V295.455ZM203.636 295.455H210.909V302.727H203.636V295.455ZM232.727 295.455H240V302.727H232.727V295.455ZM0 302.727H7.27273V310H0V302.727ZM7.27273 302.727H14.5455V310H7.27273V302.727ZM14.5455 302.727H21.8182V310H14.5455V302.727ZM21.8182 302.727H29.0909V310H21.8182V302.727ZM29.0909 302.727H36.3636V310H29.0909V302.727ZM36.3636 302.727H43.6364V310H36.3636V302.727ZM43.6364 302.727H50.9091V310H43.6364V302.727ZM72.7273 302.727H80V310H72.7273V302.727ZM80 302.727H87.2727V310H80V302.727ZM87.2727 302.727H94.5455V310H87.2727V302.727ZM94.5455 302.727H101.818V310H94.5455V302.727ZM116.364 302.727H123.636V310H116.364V302.727ZM130.909 302.727H138.182V310H130.909V302.727ZM138.182 302.727H145.455V310H138.182V302.727ZM152.727 302.727H160V310H152.727V302.727ZM181.818 302.727H189.091V310H181.818V302.727ZM203.636 302.727H210.909V310H203.636V302.727ZM218.182 302.727H225.455V310H218.182V302.727Z" fill="black"/>
<defs>
<clipPath id="clip0_305_299">
<rect width="132" height="50" fill="white" transform="translate(54)"/>
</clipPath>
<clipPath id="clip1_305_299">
<rect width="311.194" height="50" fill="white" transform="translate(54)"/>
</clipPath>
</defs>
</svg>
