<svg width="308" height="308" viewBox="0 0 308 308" fill="none" xmlns="http://www.w3.org/2000/svg">
<g clip-path="url(#clip0_233_971)">
<path d="M289.399 196.114C283.155 213.965 271.476 230.244 253.781 240.509C234.001 251.985 208.628 255.235 185.599 252.325C141.034 246.693 127.04 217.406 57.0597 204.464C38.646 201.059 22.119 190.795 17.1955 174.022C12.0516 156.499 15.5531 136.899 27.1944 122.024C40.1776 105.435 64.1847 96.8188 72.4506 77.4981C80.1716 59.4508 75.4484 38.3103 89.1487 22.1902C101.627 7.50804 123.75 4.16145 143.038 6.27412C195.171 11.9842 266.048 62.9921 288.007 140.101C293.128 158.083 295.704 178.09 289.399 196.114Z" fill="#B6E0FF"/>
</g>
<g clip-path="url(#clip1_233_971)">
<path d="M79.7636 90.0905C81.5807 95.2413 99.0812 112.315 119.612 118.017C136.559 122.723 159.67 125.919 172.936 129.463C177.417 130.66 223.736 141.321 225.353 142.669C225.353 144.337 224.632 146.444 223.808 148.301C221.44 147.739 175.156 134.832 171.1 133.526C158.521 129.475 129.993 125.149 116.454 120.727C97.0342 114.385 79.937 98.3723 77.5139 94.3102C77.9952 93.1709 79.0245 91.2186 79.7636 90.0905Z" fill="#1A1A1A"/>
<path d="M223.809 148.764C223.765 148.764 223.721 148.759 223.677 148.749C221.647 148.267 175.163 135.325 170.927 133.961C164.843 132.002 155.156 130.008 144.899 127.897C134.265 125.708 123.269 123.445 116.279 121.162C96.3351 114.649 79.4465 98.5279 77.0615 94.5293C77.0266 94.4709 77.0061 94.4065 77.0013 94.3404C76.9965 94.2742 77.0076 94.208 77.0337 94.146C77.5485 92.9269 78.596 90.9623 79.3211 89.8557C79.3716 89.7789 79.4457 89.7168 79.5345 89.677C79.6232 89.6372 79.7229 89.6214 79.8215 89.6314C79.92 89.6415 80.0132 89.677 80.0899 89.7336C80.1665 89.7902 80.2233 89.8656 80.2535 89.9507C82.1316 95.2748 99.917 112.063 119.764 117.575C129.008 120.142 139.899 122.223 150.431 124.234C158.977 125.867 167.05 127.409 173.082 129.019C174.282 129.34 178.622 130.372 184.115 131.679C209.646 137.752 224.636 141.441 225.702 142.33C225.807 142.418 225.867 142.541 225.867 142.67C225.867 144.154 225.335 146.106 224.286 148.473C224.248 148.559 224.182 148.633 224.097 148.684C224.012 148.736 223.911 148.764 223.809 148.764ZM78.0805 94.2752C81.0224 98.851 98.1139 114.246 116.629 120.292C123.559 122.556 134.524 124.813 145.128 126.995C155.415 129.113 165.132 131.113 171.273 133.091C175.336 134.399 218.329 146.375 223.5 147.742C224.322 145.815 224.779 144.16 224.834 142.916C222.201 141.695 197.367 135.788 183.852 132.573C178.136 131.214 174.005 130.231 172.789 129.906C166.797 128.306 158.744 126.768 150.217 125.139C139.663 123.123 128.75 121.039 119.461 118.459C110.527 115.978 100.892 110.912 92.3327 104.196C87.2267 100.189 81.5424 94.6625 79.6917 91.1636C79.1187 92.145 78.4723 93.3866 78.0805 94.2752Z" fill="#1A1A1A"/>
</g>
<g clip-path="url(#clip2_233_971)">
<path d="M240.661 167.18L240.594 167.179C239.425 167.153 238.43 166.743 237.638 165.963C235.173 163.533 235.523 158.267 235.54 158.045C235.549 157.922 235.611 157.809 235.714 157.728C235.816 157.647 235.949 157.606 236.085 157.613C236.221 157.621 236.348 157.678 236.438 157.77C236.527 157.862 236.573 157.982 236.564 158.105C236.561 158.156 236.226 163.202 238.397 165.34C239.001 165.936 239.729 166.235 240.62 166.255C241.527 166.272 242.339 165.643 243.045 164.375C243.979 162.698 244.513 160.215 244.665 157.894C244.446 157.758 244.238 157.61 244.041 157.449C242.488 156.192 241.092 153.859 241.544 152.282C241.74 151.598 242.282 151.131 243.07 150.967C243.641 150.848 244.182 151.043 244.594 151.515C245.464 152.511 245.821 154.837 245.718 157.383C246.166 157.581 246.673 157.687 247.155 157.525C248.499 157.071 250.522 155.204 252.478 153.398C255.027 151.045 257.228 149.017 258.776 149.087C258.843 149.09 258.909 149.105 258.97 149.132C259.031 149.158 259.085 149.194 259.13 149.24C259.176 149.285 259.21 149.337 259.233 149.395C259.255 149.452 259.265 149.512 259.261 149.573C259.258 149.634 259.242 149.693 259.213 149.748C259.184 149.803 259.143 149.852 259.093 149.893C259.043 149.934 258.984 149.965 258.92 149.985C258.857 150.005 258.789 150.014 258.722 150.01C257.638 149.963 255.184 152.224 253.213 154.044C251.085 156.009 249.074 157.864 247.516 158.391C246.939 158.586 246.306 158.573 245.657 158.363C245.457 160.721 244.88 163.145 243.964 164.79C242.869 166.754 241.576 167.18 240.661 167.18ZM243.393 151.856C243.355 151.856 243.324 151.863 243.3 151.868C242.882 151.955 242.64 152.16 242.539 152.513C242.238 153.56 243.271 155.572 244.709 156.746C244.732 154.634 244.42 152.81 243.787 152.086C243.619 151.894 243.486 151.856 243.393 151.856Z" fill="#1A1A1A"/>
<path d="M253.172 166.718C255.571 166.718 257.451 168.177 257.97 169.792C257.586 170.281 256.872 170.949 255.931 171.621C255.478 170.832 253.334 168.673 252.426 168.323C252.49 167.826 252.945 167.009 253.172 166.718Z" fill="white"/>
<path d="M255.931 172.083C255.837 172.083 255.745 172.059 255.665 172.015C255.584 171.972 255.519 171.909 255.475 171.833C255.032 171.064 252.948 169.028 252.223 168.748C252.121 168.709 252.037 168.641 251.981 168.555C251.926 168.468 251.903 168.368 251.916 168.269C251.993 167.674 252.493 166.784 252.751 166.452C252.847 166.329 253.004 166.255 253.171 166.255C255.927 166.255 257.919 167.97 258.463 169.663C258.485 169.73 258.489 169.8 258.476 169.869C258.463 169.937 258.434 170.002 258.389 170.059C257.936 170.634 257.157 171.335 256.25 171.983C256.159 172.048 256.047 172.083 255.931 172.083ZM253.009 168.091C253.963 168.664 255.358 170.056 256.051 170.932C256.596 170.511 257.072 170.078 257.399 169.707C256.892 168.476 255.44 167.29 253.453 167.187C253.299 167.434 253.113 167.794 253.009 168.091ZM145.438 175.6C143.039 175.6 141.158 177.059 140.64 178.674C141.024 179.163 141.738 179.831 142.678 180.503C143.132 179.714 145.276 177.555 146.184 177.205C146.119 176.709 145.665 175.891 145.438 175.6Z" fill="#1A1A1A"/>
<path d="M142.679 180.965C142.564 180.965 142.451 180.93 142.36 180.865C141.453 180.217 140.673 179.516 140.221 178.941C140.176 178.884 140.147 178.819 140.134 178.751C140.121 178.682 140.125 178.612 140.147 178.545C140.691 176.852 142.683 175.137 145.439 175.137C145.606 175.137 145.763 175.211 145.859 175.334C146.117 175.665 146.616 176.555 146.694 177.151C146.707 177.25 146.684 177.35 146.629 177.437C146.573 177.523 146.488 177.591 146.387 177.63C145.661 177.91 143.577 179.946 143.134 180.716C143.091 180.791 143.026 180.854 142.945 180.898C142.865 180.942 142.773 180.965 142.679 180.965ZM141.211 178.589C141.538 178.96 142.014 179.393 142.559 179.814C143.252 178.938 144.646 177.547 145.6 176.973C145.496 176.676 145.31 176.316 145.157 176.069C143.17 176.172 141.718 177.358 141.211 178.589Z" fill="#1A1A1A"/>
<path d="M162.689 111.724C162.903 109.573 161.457 107.755 159.718 107.146C159.142 107.447 158.34 108.027 157.513 108.811C158.344 109.288 160.54 111.404 160.847 112.25C161.401 112.236 162.346 111.902 162.689 111.724Z" fill="white"/>
<path d="M160.846 112.712C160.738 112.712 160.633 112.681 160.545 112.624C160.457 112.567 160.392 112.486 160.358 112.393C160.114 111.718 158.048 109.667 157.236 109.201C157.172 109.164 157.118 109.115 157.078 109.057C157.037 109 157.012 108.935 157.003 108.867C156.993 108.799 157.001 108.73 157.025 108.666C157.049 108.601 157.088 108.542 157.141 108.492C157.938 107.737 158.783 107.1 159.459 106.746C159.526 106.711 159.6 106.69 159.677 106.685C159.754 106.679 159.832 106.689 159.903 106.715C161.728 107.354 163.446 109.295 163.2 111.766C163.192 111.84 163.165 111.911 163.121 111.973C163.076 112.036 163.016 112.088 162.944 112.125C162.555 112.327 161.526 112.695 160.86 112.712L160.846 112.712ZM158.285 108.765C159.192 109.465 160.606 110.84 161.155 111.747C161.493 111.681 161.907 111.546 162.194 111.43C162.258 109.639 161.077 108.23 159.76 107.666C159.32 107.926 158.799 108.314 158.285 108.765Z" fill="#1A1A1A"/>
<path d="M147.095 13.7063C144.695 13.7063 142.815 15.1656 142.296 16.7806C142.681 17.2697 143.395 17.9379 144.335 18.6094C144.788 17.8211 146.932 15.6621 147.84 15.3117C147.775 14.8152 147.321 13.9975 147.095 13.7063Z" fill="white"/>
<path d="M144.335 19.0717C144.219 19.0717 144.106 19.0364 144.016 18.9716C143.109 18.3237 142.329 17.6226 141.877 17.0478C141.832 16.9911 141.802 16.9261 141.79 16.8576C141.777 16.7891 141.781 16.7188 141.803 16.6521C142.347 14.9585 144.339 13.244 147.095 13.244C147.262 13.244 147.419 13.3174 147.515 13.4409C147.773 13.7719 148.272 14.662 148.35 15.2578C148.363 15.3568 148.34 15.457 148.285 15.5433C148.23 15.6296 148.145 15.6974 148.043 15.7367C147.318 16.0166 145.234 18.0528 144.791 18.8224C144.748 18.8977 144.682 18.9609 144.602 19.0049C144.521 19.0489 144.429 19.072 144.335 19.0717ZM142.867 16.6958C143.194 17.0672 143.67 17.4996 144.215 17.9209C144.908 17.0447 146.302 15.6535 147.256 15.0796C147.153 14.7825 146.966 14.4229 146.813 14.1757C144.826 14.2789 143.374 15.4643 142.867 16.6958ZM267.825 88.6252C267.739 88.6253 267.654 88.6058 267.578 88.5687C267.503 88.5315 267.439 88.4778 267.392 88.4125C265.4 85.6162 260.108 78.1889 265.164 75.2426C266.691 74.3528 268.165 74.06 269.349 73.8245C271.631 73.3709 272.673 73.1638 271.731 69.0764C271.706 68.9574 271.734 68.8343 271.809 68.7337C271.884 68.6331 272 68.563 272.131 68.5384C272.263 68.5138 272.4 68.5367 272.513 68.6022C272.626 68.6677 272.707 68.7706 272.736 68.8887C273.829 73.6295 272.245 74.1959 269.57 74.7276C268.409 74.9584 267.093 75.2201 265.722 76.0189C261.959 78.2114 265.366 83.8573 268.256 87.9136C268.306 87.9833 268.333 88.0639 268.337 88.1467C268.34 88.2295 268.318 88.3116 268.274 88.3843C268.23 88.4571 268.165 88.5178 268.086 88.5602C268.007 88.6026 267.917 88.625 267.825 88.6252ZM189.24 148.949H189.225C189.158 148.947 189.091 148.933 189.03 148.908C188.968 148.884 188.913 148.848 188.866 148.804C188.82 148.76 188.784 148.708 188.76 148.651C188.736 148.594 188.725 148.534 188.727 148.473C188.79 146.508 189.138 145.416 189.89 144.822C190.628 144.24 191.586 144.266 192.697 144.295C193.7 144.322 194.837 144.352 196.132 143.966C196.92 143.731 197.471 143.305 197.817 142.664C199.065 140.356 197.251 135.813 196.568 134.103C196.523 133.988 196.53 133.861 196.589 133.751C196.647 133.641 196.751 133.556 196.878 133.515C197.006 133.473 197.146 133.479 197.269 133.531C197.392 133.582 197.487 133.676 197.534 133.79C198.764 136.872 200.014 140.712 198.74 143.068C198.273 143.933 197.504 144.53 196.455 144.843C194.988 145.28 193.7 145.246 192.666 145.219C191.699 145.194 191 145.175 190.567 145.518C190.064 145.914 189.805 146.862 189.753 148.5C189.749 148.62 189.693 148.734 189.597 148.818C189.502 148.902 189.373 148.949 189.24 148.949ZM77.1498 172.32C76.929 172.32 76.7076 172.309 76.4851 172.288C72.9025 171.951 69.1816 168.816 64.7755 162.424C61.9293 158.295 56.9205 158.311 54.2482 159.329C52.4158 160.027 51.4284 161.187 51.7327 162.284C51.7635 162.402 51.7414 162.526 51.6712 162.63C51.601 162.734 51.4883 162.808 51.3575 162.838C51.2267 162.867 51.0882 162.849 50.9721 162.787C50.8559 162.726 50.7714 162.625 50.7368 162.508C50.3028 160.945 51.5243 159.363 53.8481 158.478C57.5537 157.065 62.7966 157.8 65.6475 161.936C69.8729 168.066 73.3505 171.063 76.5919 171.369C78.5715 171.556 80.5069 170.731 82.5094 168.849C82.6036 168.761 82.733 168.71 82.8692 168.707C83.0053 168.704 83.137 168.751 83.2353 168.836C83.3336 168.92 83.3905 169.037 83.3934 169.16C83.3962 169.282 83.3449 169.401 83.2507 169.489C81.2291 171.389 79.2262 172.319 77.1498 172.32ZM115.823 165.738C115.742 165.738 115.662 165.721 115.59 165.688C115.518 165.655 115.456 165.608 115.408 165.549C115.361 165.491 115.329 165.423 115.316 165.351C115.303 165.279 115.308 165.206 115.333 165.137C115.563 164.482 119.107 157.011 121.865 156.895C122.368 156.877 123.071 157.068 123.558 158.107C123.609 158.22 123.609 158.346 123.558 158.459C123.506 158.572 123.407 158.661 123.283 158.709C123.158 158.756 123.018 158.757 122.892 158.712C122.766 158.667 122.666 158.578 122.612 158.466C122.406 158.026 122.168 157.805 121.912 157.819C121.643 157.83 120.61 158.102 118.631 161.128C117.46 162.919 116.513 164.842 116.312 165.415C116.279 165.509 116.214 165.59 116.126 165.649C116.038 165.707 115.932 165.738 115.823 165.738ZM124.152 33.685C122.282 33.685 120.56 31.887 118.892 30.1459C117.879 29.0888 116.923 28.0906 116.025 27.5734C114.773 26.851 113.718 27.1691 113.196 27.6612C112.69 28.1371 112.382 29.0531 113.175 30.0674C113.251 30.1676 113.28 30.2909 113.256 30.4105C113.232 30.53 113.157 30.6363 113.047 30.7063C112.937 30.7763 112.8 30.8044 112.667 30.7845C112.534 30.7646 112.415 30.6983 112.336 30.5999C111.257 29.221 111.618 27.8095 112.454 27.0224C113.308 26.218 114.915 25.8361 116.579 26.7949C117.602 27.3848 118.606 28.4327 119.669 29.5425C121.229 31.1707 122.845 32.8544 124.272 32.757C124.974 32.7095 125.635 32.2263 126.296 31.2804C126.371 31.1816 126.485 31.1128 126.615 31.0885C126.745 31.0641 126.881 31.086 126.993 31.1497C127.106 31.2133 127.186 31.3137 127.218 31.4298C127.25 31.5459 127.231 31.6687 127.165 31.7723C126.319 32.9838 125.398 33.6076 124.349 33.6788C124.283 33.6825 124.218 33.685 124.152 33.685ZM217.889 113.587C217.801 113.587 217.714 113.566 217.638 113.527C216.253 112.825 215.516 112.027 215.387 111.087C215.146 109.343 217.126 107.647 219.041 106.007C220.164 105.045 221.225 104.137 221.756 103.304C222.496 102.142 222.092 101.21 221.521 100.763C220.969 100.332 219.938 100.098 218.851 100.861C218.744 100.936 218.608 100.97 218.473 100.955C218.337 100.94 218.214 100.877 218.131 100.781C218.047 100.684 218.009 100.561 218.026 100.44C218.043 100.318 218.112 100.207 218.22 100.132C219.697 99.0947 221.28 99.3508 222.194 100.065C223.127 100.794 223.629 102.221 222.646 103.764C222.041 104.713 220.927 105.667 219.748 106.677C218.018 108.159 216.228 109.691 216.405 110.972C216.492 111.601 217.06 112.173 218.141 112.721C218.24 112.771 218.318 112.85 218.362 112.944C218.407 113.038 218.415 113.143 218.386 113.242C218.358 113.341 218.293 113.428 218.203 113.491C218.113 113.553 218.003 113.587 217.889 113.587Z" fill="#1A1A1A"/>
<path d="M73.8013 187.388C73.6069 191.183 75.8116 194.891 78.4302 196.35C79.3457 195.943 80.0736 195.615 80.8372 195.154C79.0863 192.614 78.0164 189.139 77.6399 187.388C76.1682 187.417 75.2928 187.388 73.8013 187.388Z" fill="white"/>
<path d="M78.4298 196.812C78.3344 196.812 78.2409 196.788 78.1598 196.743C75.1932 195.091 73.099 191.06 73.2882 187.366C73.2943 187.248 73.351 187.135 73.4464 187.053C73.5419 186.971 73.6689 186.925 73.8009 186.925C74.3259 186.925 74.7746 186.929 75.2 186.932C75.9944 186.939 76.6806 186.944 77.6279 186.926C77.7489 186.924 77.8668 186.96 77.961 187.029C78.0552 187.097 78.1197 187.193 78.1434 187.3C78.4997 188.957 79.5593 192.424 81.2729 194.91C81.3431 195.012 81.3666 195.135 81.3386 195.252C81.3106 195.369 81.2331 195.471 81.1226 195.538C80.3078 196.03 79.5059 196.386 78.6571 196.764C78.5864 196.796 78.5086 196.812 78.4298 196.812ZM74.3023 187.851C74.2941 191.393 76.3579 194.508 78.4654 195.818C79.0592 195.553 79.601 195.305 80.1411 195.007C78.7016 192.763 77.6988 189.875 77.222 187.857C76.4708 187.867 75.8702 187.863 75.1915 187.857C74.9105 187.855 74.6192 187.852 74.3023 187.851Z" fill="#1A1A1A"/>
<path d="M148.099 65.8884C147.905 69.6842 150.11 73.3921 152.728 74.8505C153.644 74.4434 154.372 74.1158 155.135 73.655C153.384 71.1149 152.314 67.6402 151.938 65.8884C150.466 65.9177 149.591 65.8884 148.099 65.8884Z" fill="white"/>
<path d="M152.728 75.3128C152.633 75.3129 152.54 75.289 152.458 75.2438C149.492 73.5915 147.398 69.5606 147.587 65.8671C147.593 65.7484 147.65 65.6363 147.745 65.5541C147.841 65.472 147.967 65.4261 148.1 65.4261C148.625 65.4261 149.073 65.4298 149.499 65.4332C150.293 65.4397 150.979 65.4452 151.927 65.4264C152.168 65.4147 152.394 65.5796 152.442 65.8006C152.798 67.4578 153.858 70.9253 155.571 73.4112C155.642 73.513 155.665 73.6354 155.637 73.7525C155.609 73.8696 155.532 73.9723 155.421 74.039C154.606 74.5312 153.804 74.8875 152.956 75.2651C152.884 75.2971 152.806 75.3128 152.728 75.3128ZM148.601 66.3516C148.592 69.8932 150.656 73.009 152.764 74.3189C153.357 74.0541 153.899 73.8057 154.439 73.5077C153 71.2634 151.997 68.3765 151.52 66.3578C150.769 66.3683 150.168 66.3633 149.49 66.3578C149.209 66.3553 148.917 66.3532 148.601 66.3516ZM213.543 40.5212C217.353 38.8892 219.949 35.3921 220.145 32.6254C219.315 32.0895 218.652 31.6654 217.841 31.2755C216.176 33.8622 213.275 36.3475 211.736 37.4712C212.457 38.6267 212.841 39.3358 213.543 40.5212Z" fill="#1A1A1A"/>
<path d="M213.543 40.9835C213.45 40.9835 213.358 40.9607 213.279 40.9176C213.199 40.8745 213.134 40.8127 213.09 40.7387C212.871 40.3683 212.654 39.9969 212.439 39.6246C212.071 38.99 211.753 38.442 211.288 37.6977C211.229 37.6026 211.209 37.4917 211.232 37.3845C211.255 37.2773 211.319 37.1809 211.413 37.1122C212.869 36.0492 215.767 33.575 217.397 31.0437C217.463 30.94 217.572 30.8636 217.7 30.8308C217.828 30.7979 217.965 30.8112 218.082 30.8677C218.948 31.2838 219.675 31.7529 220.444 32.2497C220.588 32.3428 220.669 32.4957 220.658 32.655C220.435 35.7894 217.471 39.3509 213.763 40.9388C213.694 40.9682 213.619 40.9834 213.543 40.9835ZM212.393 37.5822C212.756 38.1748 213.034 38.6544 213.349 39.1965C213.479 39.4206 213.613 39.6527 213.761 39.9048C217.235 38.2442 219.316 35.1385 219.608 32.8473C219.068 32.5003 218.57 32.1865 218.024 31.8977C216.503 34.0977 214.146 36.2532 212.393 37.5822Z" fill="#1A1A1A"/>
</g>
<g clip-path="url(#clip3_233_971)">
<path d="M160.586 106.464C154.947 111.841 149.805 115.354 147.865 113.417C146.564 112.118 149.283 106.996 155.605 101.988C161.597 97.2414 166.95 93.7989 168.326 95.0347C169.701 96.2703 166.066 101.239 160.586 106.464Z" fill="#1A1A1A"/>
<path d="M149.294 114.417L149.259 114.416C148.533 114.409 147.936 114.176 147.484 113.725C147.151 113.393 147.002 112.916 147.04 112.308C147.176 110.202 149.808 105.966 155.265 101.642C165.335 93.6652 167.749 93.8646 168.688 94.7088C171.105 96.8798 162.674 105.145 160.959 106.78C155.645 111.847 151.72 114.417 149.294 114.417ZM167.531 95.2516C166.593 95.2516 163.805 96.1063 155.944 102.334C150.939 106.298 148.192 110.378 148.065 112.361C148.042 112.709 148.105 112.968 148.246 113.109C148.502 113.364 148.837 113.49 149.271 113.495H149.296C151.368 113.495 155.242 110.888 160.214 106.148C166.752 99.9134 168.704 96.0252 167.964 95.3604C167.927 95.3284 167.813 95.2516 167.531 95.2516Z" fill="#1A1A1A"/>
<path d="M204.399 78.0632C208.546 78.9169 217.02 76.6089 216.579 73.1738C216.061 69.1381 207.855 70.4381 205.868 71.2141C203.88 70.9782 201.463 69.4486 199.994 66.5769C198.218 63.104 196.107 52.1419 184.791 51.0553C173.475 49.9688 171.51 53.3492 166.391 52.6076C160.501 51.7539 156.897 46.6467 148.346 45.7156C139.794 44.7842 130.792 44.9918 121.991 52.8405C110.33 63.2401 115.885 66.5591 111.243 74.8228C106.579 83.127 101.207 87.8364 106.788 98.9402C111.625 108.564 125.792 119.817 136.331 112.832C146.869 105.847 148.46 92.7366 156.566 89.5051C164.353 86.4009 172.01 92.7246 177.039 94.2412C184.64 96.5339 192.602 93.0773 196.455 96.0768C201.369 99.9026 197.316 88.0751 197.489 85.126C201.722 84.5822 204.227 82.1763 204.399 78.0632Z" fill="#1A1A1A"/>
<path d="M129.108 115.472C127.885 115.472 126.62 115.319 125.317 115.013C117.121 113.09 109.557 105.566 106.321 99.1291C101.551 89.64 104.613 84.7008 108.489 78.4475C109.243 77.2303 110.024 75.9717 110.786 74.6145C112.461 71.6332 112.779 69.2904 113.086 67.0248C113.634 62.9919 114.151 59.1823 121.63 52.5127C130.563 44.5461 139.779 44.3175 148.407 45.2573C153.282 45.7881 156.611 47.658 159.548 49.308C161.819 50.5835 163.964 51.7883 166.473 52.1521C168.498 52.4457 170.01 52.0556 171.925 51.5619C174.702 50.8455 178.157 49.9543 184.845 50.5967C194.617 51.5352 197.694 59.4456 199.532 64.1719C199.878 65.0621 200.177 65.8311 200.46 66.384C201.915 69.2299 204.215 70.4981 205.803 70.7389C207.541 70.1184 212.536 69.2646 215.286 70.6885C216.345 71.2369 216.952 72.0552 217.088 73.1203C217.217 74.1202 216.717 75.1057 215.642 75.9699C213.3 77.8537 208.257 79.0603 204.876 78.6109C204.521 82.4196 202.102 84.8511 198 85.5171C198.037 86.4113 198.318 87.8582 198.612 89.378C199.464 93.7755 199.886 96.4936 198.579 97.1578C197.756 97.5759 196.781 96.9391 196.119 96.4236C194.274 94.9874 191.26 95.1681 187.769 95.377C184.417 95.5779 180.618 95.8058 176.875 94.6765C175.473 94.2535 173.877 93.4705 172.187 92.6413C167.748 90.463 162.224 87.7526 156.774 89.9248C152.911 91.4648 150.576 95.3631 147.872 99.8771C145.137 104.445 142.036 109.622 136.635 113.201C134.355 114.713 131.835 115.472 129.108 115.472ZM142.417 45.8354C132.158 45.8354 126.688 49.3015 122.353 53.1674C115.126 59.6121 114.63 63.2672 114.104 67.137C113.786 69.4812 113.457 71.905 111.701 75.0302C110.929 76.404 110.144 77.6709 109.385 78.896C105.503 85.1589 102.698 89.6836 107.255 98.75C111.398 106.991 119.607 112.721 125.575 114.121C129.468 115.035 132.984 114.476 136.026 112.461C141.241 109.004 144.284 103.924 146.969 99.4415C149.762 94.7785 152.174 90.7511 156.358 89.0834C162.271 86.7259 168.042 89.5577 172.679 91.8334C174.327 92.6426 175.885 93.4069 177.201 93.8038C180.752 94.8747 184.444 94.6538 187.701 94.4584C191.417 94.2354 194.627 94.0434 196.79 95.7278C197.577 96.3406 197.974 96.4073 198.074 96.356C198.846 95.9637 198.005 91.6227 197.601 89.5365C197.237 87.654 196.922 86.0283 196.976 85.1008C196.983 84.9942 197.03 84.8928 197.11 84.8141C197.19 84.7353 197.298 84.684 197.416 84.6689C201.489 84.1463 203.727 81.8559 203.887 78.0453C203.892 77.9083 203.966 77.7805 204.087 77.697C204.147 77.6556 204.216 77.6267 204.29 77.6123C204.364 77.5979 204.44 77.5984 204.514 77.6137C207.546 78.2377 212.72 77.0838 214.958 75.2836C215.785 74.6182 216.159 73.9261 216.07 73.2263C215.971 72.4565 215.547 71.8875 214.774 71.4872C212.414 70.2646 207.605 71.0378 206.072 71.6362C205.987 71.6697 205.893 71.6811 205.8 71.6706C203.862 71.4405 201.196 70.0323 199.527 66.7689C199.224 66.1764 198.918 65.3884 198.563 64.476C196.805 59.9556 193.862 52.3895 184.736 51.5131C178.247 50.8901 174.898 51.7536 172.208 52.4476C170.251 52.9526 168.56 53.3882 166.309 53.062C163.596 52.6688 161.365 51.416 159.004 50.0895C156.018 48.4128 152.931 46.6787 148.283 46.1727C146.168 45.9423 144.217 45.8354 142.417 45.8354Z" fill="#1A1A1A"/>
<path d="M167.324 181.085C162.141 196.451 162.868 220.22 152.294 229.047C140.672 238.748 132.543 240.476 121.023 249.535C112.166 256.501 99.8565 273.385 94.1005 276.747C88.6344 279.94 89.2345 286.632 98.2183 283.062C107.202 279.492 136.817 265.245 153.284 256.054C168.757 247.418 192.997 225.299 196.521 210.498C199.976 195.985 199.313 189.534 198.335 184.385C196.588 175.194 170.313 172.221 167.324 181.085Z" fill="#B6E0FF"/>
<path d="M93.7167 284.531C92.3928 284.531 91.1502 284.167 90.4725 283.043C89.3103 281.116 90.8124 278.118 93.821 276.361C96.6573 274.704 101.264 269.526 106.14 264.045C111.118 258.45 116.265 252.664 120.685 249.188C126.181 244.866 130.965 242.172 135.592 239.567C140.646 236.721 145.872 233.778 151.944 228.709C158.724 223.05 160.817 210.846 162.842 199.043C163.916 192.781 165.027 186.307 166.833 180.951C167.861 177.904 172.263 174.833 181.532 175.356C189.372 175.797 197.834 179.014 198.84 184.308C199.794 189.326 200.519 195.909 197.022 210.595C195.41 217.366 189.281 226.351 179.765 235.896C171.554 244.131 161.51 252.005 153.554 256.446C136.554 265.934 107.17 280.009 98.4258 283.484C97.5778 283.82 95.5676 284.531 93.7167 284.531ZM167.324 181.085L167.815 181.218C166.03 186.511 164.925 192.953 163.856 199.183C161.805 211.141 159.684 223.507 152.643 229.384C146.499 234.513 141.231 237.479 136.137 240.348C131.545 242.934 126.796 245.609 121.362 249.882C117.01 253.304 111.892 259.057 106.943 264.621C102.013 270.162 97.3562 275.396 94.3808 277.134C91.5917 278.763 90.5751 281.278 91.3752 282.605C92.1894 283.956 94.6704 283.969 98.0117 282.641C106.731 279.176 136.046 265.134 153.014 255.664C160.894 251.266 170.852 243.456 179.002 235.281C188.401 225.855 194.445 217.019 196.02 210.403C199.478 195.877 198.768 189.397 197.83 184.463C196.924 179.693 188.724 176.685 181.469 176.276C172.787 175.788 168.688 178.633 167.816 181.219L167.324 181.085Z" fill="#1A1A1A"/>
<path d="M161.575 209.08C159.824 217.459 157.347 224.946 152.293 229.047C144.901 235.046 138.954 238.059 132.635 241.763C131.221 245.613 134.244 247.289 136.572 245.267C139.482 242.739 141.236 239.213 143.31 241.697C145.84 244.728 147.802 247.362 152.293 241.774C156.785 236.186 163.35 218.026 164.335 209.955L161.575 209.08Z" fill="#1A1A1A"/>
<path d="M134.482 246.59C134.008 246.592 133.544 246.473 133.143 246.247C132.063 245.639 131.236 244.103 132.148 241.619C132.185 241.519 132.258 241.434 132.355 241.377C133.502 240.705 134.637 240.055 135.771 239.406C140.765 236.546 145.929 233.59 151.95 228.705C154.754 226.429 158.325 222.132 161.071 208.995C161.085 208.93 161.114 208.868 161.157 208.814C161.199 208.759 161.255 208.714 161.319 208.681C161.383 208.648 161.454 208.627 161.528 208.621C161.602 208.615 161.676 208.624 161.746 208.646L164.506 209.521C164.615 209.555 164.708 209.622 164.769 209.71C164.831 209.798 164.858 209.902 164.845 210.005C163.861 218.074 157.299 236.335 152.709 242.044C150.821 244.394 149.233 245.494 147.712 245.505H147.688C145.841 245.505 144.503 243.898 143.086 242.198L142.899 241.973C142.534 241.536 142.198 241.32 141.871 241.311L141.85 241.311C141.087 241.311 140.087 242.38 139.027 243.511C138.408 244.174 137.705 244.924 136.929 245.598C136.179 246.249 135.306 246.59 134.482 246.59ZM133.068 242.059C132.425 243.949 132.991 245.073 133.688 245.466C134.405 245.87 135.373 245.667 136.215 244.935C136.954 244.294 137.608 243.595 138.242 242.918C139.581 241.488 140.638 240.361 141.899 240.39C142.56 240.406 143.155 240.743 143.72 241.42L143.907 241.645C145.22 243.221 146.355 244.583 147.689 244.583H147.704C148.854 244.575 150.219 243.567 151.878 241.504C155.682 236.772 162.508 219.688 163.779 210.267L161.968 209.693C160.404 217.03 158.041 225.003 152.638 229.388C146.553 234.326 141.352 237.303 136.322 240.183C135.234 240.804 134.15 241.429 133.068 242.059Z" fill="#1A1A1A"/>
<path d="M198.335 184.385C196.589 175.194 170.313 172.221 167.324 181.084C164.255 190.183 163.306 202.273 160.819 212.428C166.08 219.239 178.564 226.609 188.215 225.776C192.372 220.347 195.438 215.05 196.521 210.498C199.976 195.985 199.314 189.534 198.335 184.385Z" fill="white"/>
<path d="M186.727 226.3C177.328 226.301 165.575 219.393 160.398 212.691C160.357 212.639 160.329 212.58 160.316 212.517C160.302 212.455 160.303 212.391 160.318 212.329C161.347 208.126 162.125 203.516 162.876 199.058C163.934 192.787 165.028 186.302 166.833 180.951C167.86 177.904 172.262 174.835 181.532 175.356C189.372 175.797 197.834 179.014 198.84 184.308C199.794 189.326 200.519 195.909 197.022 210.595C195.993 214.919 193.172 220.115 188.637 226.038C188.595 226.094 188.539 226.14 188.475 226.174C188.41 226.208 188.338 226.229 188.264 226.236C187.761 226.279 187.247 226.3 186.727 226.3ZM161.368 212.329C166.692 219.082 178.768 225.991 187.929 225.337C192.307 219.588 195.028 214.564 196.02 210.402C199.478 195.876 198.767 189.396 197.83 184.463C196.923 179.692 188.724 176.684 181.469 176.276C176.042 175.971 169.21 177.081 167.815 181.218C166.031 186.506 164.943 192.957 163.891 199.196C163.148 203.6 162.381 208.151 161.368 212.329ZM94.1004 276.747L87.1059 280.935C85.837 281.616 85.3132 283.113 86.0914 284.242C88.4538 287.669 92.6329 294.111 97.1784 300.455H106C106.007 296.769 100.936 298.748 100.828 292.345C100.765 288.601 100.828 284.083 100.828 282.294C95.849 282.116 94.1004 276.747 94.1004 276.747Z" fill="#1A1A1A"/>
<path d="M106.001 300.916H97.1788C97.093 300.916 97.0086 300.897 96.9333 300.86C96.8579 300.823 96.7941 300.769 96.7477 300.705C93.6566 296.391 90.7646 292.075 88.4405 288.608C87.3522 286.984 86.4122 285.582 85.6559 284.485C85.2326 283.871 85.1077 283.134 85.304 282.41C85.4108 282.022 85.6017 281.658 85.8659 281.337C86.1301 281.016 86.4623 280.745 86.8434 280.54L93.8163 276.364C93.8832 276.324 93.9597 276.298 94.0395 276.29C94.1193 276.281 94.2003 276.29 94.2759 276.314C94.3515 276.339 94.4195 276.379 94.4746 276.432C94.5296 276.485 94.5701 276.548 94.5928 276.617C94.5969 276.63 95.0281 277.923 96.0341 279.211C97.3409 280.883 98.961 281.766 100.849 281.833C100.981 281.838 101.106 281.888 101.198 281.974C101.29 282.06 101.341 282.174 101.341 282.294C101.341 282.777 101.337 283.459 101.332 284.272C101.317 286.524 101.296 289.609 101.341 292.338C101.399 295.72 102.845 296.535 104.243 297.323C105.361 297.953 106.517 298.605 106.514 300.455C106.514 300.578 106.459 300.695 106.363 300.781C106.267 300.867 106.137 300.916 106.001 300.916ZM97.4589 299.994H105.455C105.299 299.006 104.609 298.618 103.698 298.104C102.22 297.271 100.381 296.234 100.316 292.352C100.27 289.613 100.29 286.522 100.305 284.266C100.31 283.672 100.313 283.147 100.315 282.72C98.3151 282.513 96.5466 281.482 95.1768 279.718C94.505 278.853 94.0741 278.001 93.8372 277.459L87.3905 281.319C86.8359 281.617 86.4464 282.09 86.3004 282.628C86.1694 283.11 86.2501 283.597 86.5274 283.999C87.2872 285.102 88.2289 286.506 89.3189 288.133C91.6016 291.538 94.4328 295.762 97.4589 299.994Z" fill="#1A1A1A"/>
<path d="M106.654 292.507C106.448 292.507 106.261 292.481 106.098 292.444C104.795 292.147 103.477 290.802 102.181 288.446C101.251 286.756 100.675 285.17 100.651 285.103C100.621 285.021 100.618 284.932 100.642 284.848C100.666 284.764 100.715 284.688 100.785 284.628C100.855 284.568 100.942 284.527 101.037 284.51C101.132 284.492 101.23 284.5 101.32 284.53C102.07 284.785 108.661 287.095 109.263 289.766C109.377 290.273 109.328 291.036 108.445 291.792C107.797 292.345 107.168 292.507 106.654 292.507ZM102.005 285.777C102.873 287.827 104.613 291.155 106.35 291.55C106.822 291.658 107.276 291.518 107.737 291.124C108.327 290.62 108.317 290.212 108.258 289.949C107.905 288.384 104.257 286.657 102.005 285.777Z" fill="#1A1A1A"/>
<path d="M107.064 286.757C104.685 286.757 101.463 285.475 101.012 285.29C100.921 285.253 100.845 285.194 100.792 285.119C100.739 285.044 100.711 284.957 100.711 284.868C100.712 284.779 100.741 284.692 100.795 284.618C100.85 284.543 100.927 284.485 101.017 284.449C101.612 284.214 106.888 282.186 108.884 283.383C109.259 283.607 109.701 284.049 109.682 284.878C109.663 285.73 109.188 286.174 108.794 286.397C108.339 286.655 107.735 286.757 107.064 286.757ZM102.576 284.877C104.59 285.568 107.245 286.184 108.248 285.617C108.418 285.521 108.646 285.338 108.656 284.86C108.667 284.413 108.467 284.24 108.315 284.15C107.353 283.573 104.64 284.188 102.576 284.877Z" fill="#1A1A1A"/>
<path d="M93.2373 287.243C95.2887 287.243 96.9517 285.749 96.9517 283.906C96.9517 282.063 95.2887 280.569 93.2373 280.569C91.1859 280.569 89.5229 282.063 89.5229 283.906C89.5229 285.749 91.1859 287.243 93.2373 287.243Z" fill="white"/>
<path d="M93.2384 287.702C92.6686 287.703 92.1046 287.6 91.5803 287.399C91.056 287.199 90.5824 286.905 90.188 286.536C89.8024 286.177 89.4998 285.753 89.2978 285.288C89.0958 284.823 88.9983 284.327 89.0111 283.828C89.0209 283.329 89.1407 282.837 89.3637 282.38C89.5867 281.923 89.9084 281.51 90.3101 281.166C90.7096 280.819 91.1817 280.547 91.699 280.366C92.2164 280.184 92.7686 280.097 93.3239 280.108C93.8791 280.117 94.4269 280.225 94.9355 280.425C95.4441 280.625 95.9035 280.914 96.287 281.275C97.9013 282.786 97.8465 285.195 96.1653 286.645C95.3788 287.325 94.3295 287.703 93.2384 287.702ZM93.2356 281.029C92.4093 281.027 91.6147 281.315 91.0203 281.831C90.4035 282.363 90.054 283.079 90.0366 283.847C90.0191 284.615 90.3358 285.343 90.928 285.897C92.1507 287.042 94.1811 287.079 95.4548 285.981C96.7281 284.882 96.7695 283.058 95.5471 281.914C95.2489 281.633 94.8901 281.41 94.4927 281.257C94.0953 281.105 93.6676 281.028 93.2356 281.029ZM213.678 171.143C199.812 172.719 183.094 167.907 174.156 158.438L171.902 163.079C180.839 172.548 197.036 176.874 210.773 175.318C212.585 173.091 213.678 171.143 213.678 171.143Z" fill="#1A1A1A"/>
<path d="M205.203 176.087C199.913 176.087 194.452 175.297 189.375 173.77C182.016 171.556 175.839 167.963 171.511 163.377C171.449 163.312 171.409 163.232 171.395 163.146C171.381 163.061 171.394 162.974 171.432 162.895L173.686 158.254C173.721 158.183 173.775 158.12 173.844 158.072C173.914 158.025 173.995 157.994 174.081 157.982C174.168 157.971 174.256 157.979 174.337 158.007C174.419 158.035 174.491 158.081 174.547 158.141C178.787 162.632 184.904 166.213 192.237 168.497C199.243 170.679 206.834 171.457 213.614 170.686C213.707 170.676 213.8 170.688 213.886 170.722C213.971 170.755 214.044 170.809 214.098 170.877C214.151 170.946 214.183 171.026 214.19 171.109C214.197 171.193 214.179 171.276 214.137 171.351C214.091 171.432 213.003 173.358 211.188 175.59C211.146 175.641 211.094 175.684 211.034 175.715C210.974 175.747 210.907 175.768 210.837 175.776C208.968 175.985 207.086 176.089 205.203 176.087ZM172.501 162.999C176.697 167.352 182.637 170.771 189.7 172.896C196.393 174.909 203.766 175.614 210.489 174.886C211.308 173.862 212.066 172.798 212.758 171.701C206.08 172.309 198.716 171.49 191.901 169.367C184.697 167.124 178.631 163.648 174.302 159.291L172.501 162.999Z" fill="#1A1A1A"/>
<path d="M219.196 121.869C235.263 111.392 250.858 83.9242 251.629 62.5102C252.367 42.0101 247.608 29.4435 243.721 21.644C243.182 20.562 243.388 18.3637 243.099 16.0502C242.72 13.0107 241.526 10.1713 241.073 10.1132C238.367 9.76579 240.832 15.3519 239.666 15.8173C238.499 16.283 232.15 5.9221 230.941 7.00867C230.145 7.72414 235.955 15.1264 235.343 15.5921C234.732 16.0579 228.007 7.79357 226.708 8.88013C225.41 9.9667 232.74 16.2013 233.284 17.0388C232.339 16.6087 225.963 11.1307 225.056 12.5278C224.149 13.9247 230.984 17.9702 232.199 18.8912C230.757 18.203 224.814 14.6146 224.12 15.8176C223.426 17.0206 235.957 23.2746 236.559 24.5486C239.306 30.3596 240.835 43.6401 239.539 54.4665C238.011 67.2353 227.359 87.2948 208.701 99.5865C203.238 103.185 202.222 105.223 196.909 105.588C200.925 111.642 214.947 124.64 219.196 121.869Z" fill="#B6E0FF"/>
<path d="M217.751 122.712C217.422 122.71 217.094 122.678 216.772 122.616C210.74 121.502 199.845 110.912 196.468 105.824C196.423 105.756 196.399 105.68 196.396 105.601C196.393 105.523 196.413 105.445 196.453 105.376C196.494 105.306 196.553 105.247 196.626 105.204C196.699 105.16 196.783 105.135 196.87 105.129C200.62 104.871 202.111 103.762 204.819 101.751C205.815 101.011 206.945 100.172 208.397 99.2147C226.407 87.35 237.439 67.6978 239.029 54.4169C240.265 44.0931 238.945 30.7748 236.087 24.7282C235.834 24.276 233.095 22.6432 230.894 21.3311C224.822 17.7111 223.136 16.5204 223.664 15.6046C223.791 15.3847 224.008 15.2305 224.291 15.1586C224.835 15.0197 225.672 15.2151 226.689 15.6123C224.862 14.1568 224.092 13.0976 224.613 12.2948C224.767 12.058 225.012 11.9062 225.322 11.8565C226.132 11.7265 227.412 12.3701 228.963 13.3937C226.421 10.7718 225.467 9.28797 226.358 8.54209C226.544 8.38696 226.785 8.30923 227.057 8.32091C228.23 8.36576 230.082 10.1186 232.773 12.7873C233.263 13.2733 233.811 13.8167 234.284 14.2622C233.891 13.5961 233.37 12.7821 232.935 12.1032C230.56 8.39648 229.963 7.23496 230.578 6.6823C230.663 6.60532 230.767 6.54637 230.881 6.50971C230.995 6.47305 231.116 6.4596 231.237 6.47033C232.212 6.54591 233.548 8.12123 236.157 11.4476C237.291 12.8933 238.806 14.8243 239.464 15.2851C239.537 14.9254 239.439 14.1003 239.371 13.5255C239.205 12.1207 239.033 10.6679 239.821 9.98501C240.05 9.78717 240.465 9.56906 241.145 9.65631C242.261 9.79946 243.342 13.8613 243.609 15.9985C243.721 16.8976 243.76 17.7882 243.795 18.5737C243.849 19.8044 243.896 20.8673 244.189 21.4553C247.965 29.0314 252.897 41.5317 252.141 62.5245C251.386 83.4891 236.132 111.394 219.497 122.241C219.018 122.555 218.433 122.712 217.751 122.712ZM197.778 105.974C201.756 111.539 211.849 120.767 216.978 121.714C217.797 121.865 218.442 121.792 218.895 121.496C235.313 110.79 250.37 83.2194 251.116 62.4953C251.865 41.6927 246.987 29.3251 243.253 21.8322C242.879 21.082 242.828 19.9368 242.77 18.6106C242.737 17.8404 242.698 16.9677 242.59 16.1014C242.252 13.3995 241.275 11.012 240.887 10.5589C240.649 10.5509 240.567 10.6197 240.534 10.6486C240.107 11.0187 240.272 12.4113 240.392 13.4284C240.556 14.8173 240.686 15.914 239.874 16.2381C239.021 16.5794 238.062 15.4768 235.319 11.9787C234.161 10.502 232.316 8.14918 231.442 7.5357C231.742 8.39279 233.017 10.3835 233.825 11.6439C235.848 14.8031 236.23 15.5208 235.675 15.9435C235.074 16.4018 234.471 15.8436 232.014 13.4066C230.654 12.0589 227.855 9.28367 227.05 9.24128C226.85 10.056 230.768 13.845 232.064 15.0987C233.043 16.0448 233.561 16.5505 233.727 16.8064C233.783 16.8923 233.806 16.9922 233.794 17.091C233.781 17.1899 233.733 17.2824 233.657 17.3548C233.581 17.4272 233.481 17.4756 233.372 17.4927C233.263 17.5098 233.151 17.4947 233.052 17.4497C232.764 17.3185 232.239 16.933 231.258 16.2058C230.015 15.2833 226.23 12.4752 225.486 12.7682C225.349 12.9907 225.61 13.9316 231.256 17.6715C231.829 18.0506 232.281 18.3498 232.53 18.5387C232.626 18.6121 232.689 18.715 232.707 18.8276C232.724 18.9403 232.694 19.0547 232.624 19.1489C232.553 19.2431 232.446 19.3104 232.323 19.3379C232.2 19.3654 232.07 19.3511 231.958 19.2978C231.668 19.1589 231.225 18.9199 230.664 18.617C227.312 16.8061 225.296 15.9321 224.663 16.02C225.222 16.8436 229.097 19.1537 231.461 20.5634C235.112 22.7397 236.742 23.7574 237.031 24.3678C239.946 30.5361 241.3 44.06 240.049 54.5152C238.435 67.997 227.254 87.9355 209.004 99.9578C207.575 100.899 206.459 101.729 205.473 102.461C202.894 104.377 201.265 105.587 197.778 105.974Z" fill="#1A1A1A"/>
<path d="M239.539 54.4662C238.43 63.7366 232.507 76.8476 222.207 88.0413C222.73 90.1398 223.415 91.2301 224.306 90.1103C227.345 86.2906 231.805 81.7102 237.334 68.5719C239.372 63.7264 240.034 56.2126 239.539 54.4662Z" fill="#1A1A1A"/>
<path d="M223.627 91.0196C223.562 91.0196 223.496 91.0135 223.43 91.0015C222.688 90.8663 222.172 90.0111 221.706 88.1421C221.689 88.0735 221.69 88.0024 221.708 87.934C221.726 87.8657 221.762 87.8021 221.812 87.748C231.049 77.709 237.808 64.6256 239.029 54.417C239.042 54.3096 239.096 54.2096 239.183 54.1346C239.269 54.0595 239.383 54.0141 239.503 54.0064C239.623 53.9987 239.742 54.0291 239.839 54.0923C239.937 54.1555 240.007 54.2475 240.036 54.3522C240.557 56.189 239.873 63.8382 237.813 68.7347C232.913 80.3804 228.834 85.3536 225.855 88.985C225.458 89.4686 225.081 89.9288 224.723 90.3782C224.383 90.8046 224.016 91.0196 223.627 91.0196ZM222.763 88.159C223.207 89.8351 223.58 90.0707 223.634 90.0971C223.636 90.0864 223.731 90.039 223.888 89.8424C224.248 89.3893 224.629 88.9254 225.028 88.4382C227.972 84.8498 232.003 79.9355 236.853 68.4088C237.848 66.0446 238.521 62.9563 238.879 60.2658C236.322 69.4302 230.386 79.8203 222.763 88.159Z" fill="#1A1A1A"/>
<path d="M193.281 105.223C187.144 104.079 150.195 95.9229 156.223 65.9911C161.177 41.3979 169.558 33.4052 171.666 30.9033C173.972 29.2134 174.886 26.2154 176.175 24.7218C177.39 23.313 179.133 22.5281 178.215 21.8114C176.239 20.269 172.709 25.4201 172.099 23.0012C171.704 21.2876 175.536 14.4266 173.847 13.9508C172.158 13.4749 170.085 22.2191 169.502 22.1027C168.919 21.9862 171.9 12.546 170.051 12.1546C168.202 11.7632 167.428 21.7534 166.716 21.8406C166.003 21.9279 167.131 11.8102 165.253 11.9706C163.376 12.1309 164.434 22.0682 163.897 22.1318C163.361 22.1954 162.946 16.3654 161.873 16.4302C160.801 16.495 160.842 25.7989 162.572 29.5541C163.624 31.8357 148.343 44.0558 143.395 63.7796C137.953 85.4725 142.704 106.464 166.805 118.222C190.905 129.98 195.639 123.034 197.31 119.891C198.983 116.747 198.985 106.286 193.281 105.223Z" fill="#B6E0FF"/>
<path d="M188.178 125.263C182.855 125.263 175.612 123.042 166.561 118.626C155.075 113.023 147.328 105.031 143.536 94.8725C140.176 85.8725 139.961 75.377 142.896 63.6779C146.182 50.5804 153.956 40.8139 158.601 34.9786C160.443 32.6642 162.348 30.2708 162.099 29.7301C161.047 27.4479 160.76 23.7317 160.685 22.2397C160.575 20.0373 160.65 17.1702 161.224 16.3387C161.422 16.053 161.668 15.9805 161.839 15.9703C162.742 15.9187 163.132 17.0744 163.556 19.0322C163.536 14.5655 163.664 11.6434 165.205 11.5119C165.481 11.4889 165.74 11.5688 165.956 11.7442C166.861 12.4814 166.938 15.061 166.948 18.6248L166.95 19.2807C166.999 19.0328 167.047 18.7849 167.093 18.5483C167.776 15.0109 168.341 12.459 169.383 11.8409C169.628 11.6953 169.899 11.6492 170.169 11.7061C171.591 12.0068 171.31 14.4875 170.568 18.2992C171.75 15.1135 172.699 13.1438 174.001 13.5109C174.268 13.5861 174.48 13.7493 174.615 13.983C175.093 14.8116 174.558 16.4554 173.623 19.0638C173.078 20.5808 172.461 22.3002 172.601 22.9078C172.661 23.1444 172.737 23.1957 172.737 23.196C172.965 23.266 173.856 22.6823 174.336 22.3675C175.636 21.5131 177.254 20.4499 178.552 21.4634C178.831 21.6812 178.977 21.9352 178.985 22.2182C179.002 22.7905 178.461 23.2611 177.776 23.8565C177.391 24.1916 176.954 24.5713 176.581 25.0038C176.141 25.5141 175.725 26.2499 175.286 27.0289C174.476 28.4651 173.559 30.0911 172.039 31.2246C171.866 31.4266 171.691 31.6271 171.513 31.8261C168.72 34.9863 161.299 43.3809 156.729 66.0728C154.226 78.5 158.855 88.578 170.488 96.0267C179.639 101.886 190.328 104.201 193.386 104.771C195.048 105.081 196.369 106.105 197.313 107.815C199.377 111.556 199.021 117.743 197.774 120.088C196.888 121.755 195.45 123.791 192.172 124.747C190.991 125.092 189.658 125.263 188.178 125.263ZM161.959 17.1352C161.467 18.8497 161.522 26.0711 163.046 29.3778C163.495 30.3522 162.336 31.8701 159.435 35.515C154.835 41.2934 147.136 50.965 143.896 63.8806C141.003 75.4132 141.209 85.7416 144.508 94.5798C148.215 104.51 155.799 112.328 167.05 117.817C178.361 123.335 186.706 125.372 191.854 123.871C194.761 123.023 196.05 121.193 196.848 119.692C197.981 117.561 198.297 111.676 196.393 108.225C195.597 106.782 194.514 105.924 193.177 105.675C190.069 105.095 179.206 102.742 169.892 96.7781C164.568 93.3688 160.616 89.3353 158.146 84.7902C155.13 79.2391 154.313 72.8865 155.719 65.9097C160.335 42.9898 167.872 34.4638 170.709 31.2538C170.922 31.013 171.106 30.805 171.257 30.6256C171.282 30.5964 171.31 30.5697 171.342 30.5467C172.722 29.535 173.598 27.9825 174.37 26.613C174.832 25.7937 175.269 25.0195 175.769 24.4398C176.187 23.9554 176.652 23.5514 177.062 23.1947C177.403 22.8983 177.974 22.4019 177.959 22.2427C177.945 22.0836 177.948 22.2139 177.879 22.1595C177.248 21.667 176.219 22.271 174.94 23.1118C173.963 23.7542 173.119 24.3083 172.376 24.0592C171.987 23.9283 171.725 23.6067 171.598 23.1035C171.401 22.2492 171.978 20.6422 172.646 18.7815C173.116 17.4725 174.093 14.7486 173.69 14.3882C172.999 14.5326 171.649 18.2777 171.141 19.6874C170.267 22.1106 170.06 22.6863 169.39 22.553C168.7 22.4151 168.813 21.8504 169.359 19.1363C169.694 17.4768 170.576 13.0912 169.94 12.6114C169.219 12.9327 168.438 16.9715 168.103 18.7065C167.543 21.6056 167.403 22.2218 166.785 22.2974C166.702 22.3071 166.618 22.3009 166.538 22.2792C166.459 22.2575 166.385 22.2207 166.322 22.1715C165.964 21.8919 165.929 21.2935 165.922 18.6276C165.917 16.9051 165.905 12.9023 165.284 12.4384C164.547 12.831 164.572 17.5238 164.582 19.2991C164.597 22.0228 164.599 22.5137 163.965 22.5889C163.259 22.6725 163.114 21.9684 162.731 20.0862C162.557 19.2306 162.259 17.7674 161.959 17.1352Z" fill="#1A1A1A"/>
<path d="M170.517 25.6775C170.408 25.6777 170.301 25.6464 170.213 25.5882C170.125 25.5301 170.06 25.4481 170.027 25.3543C169.994 25.2605 169.996 25.1597 170.032 25.0668C170.067 24.9738 170.135 24.8935 170.225 24.8377C170.246 24.8248 172.351 23.5176 174.031 22.5674C174.146 22.5068 174.283 22.4887 174.413 22.517C174.542 22.5454 174.654 22.618 174.725 22.7193C174.797 22.8207 174.821 22.943 174.793 23.0602C174.766 23.1775 174.689 23.2805 174.578 23.3474C172.917 24.2868 170.829 25.5826 170.809 25.5958C170.72 25.6508 170.618 25.6775 170.517 25.6775Z" fill="#1A1A1A"/>
<path d="M161.225 88.2696C156.905 82.7028 154.487 75.4332 156.224 65.9911C159.097 50.3721 164.289 41.0148 167.988 35.5817C160.665 42.6605 152.061 57.8764 152.333 72.5102C152.53 83.0874 157.783 86.5416 161.225 88.2696Z" fill="white"/>
<path d="M206.491 181.55C227.097 199.833 235.303 212.428 239.193 221.131C242.652 228.867 241.439 237.273 235.047 243.482C228.655 249.691 193.476 264.941 182.527 272.333C176.455 276.432 176.308 267.385 178.208 265.212C179.191 264.088 186.816 254.199 195.83 245.344C204.237 237.085 215.161 231.452 214.661 229.879C213.624 226.619 184.082 212.749 168.879 193.037C158.289 179.305 169.527 165.687 171.902 163.08C182.049 173.402 197.018 177.312 210.463 175.764C209.128 177.672 208.679 178.455 206.491 181.55Z" fill="#B6E0FF"/>
<path d="M240.034 98.2508C236.041 91.3689 229.972 87.528 224.42 85.526C220.064 90.6931 214.815 95.5579 208.7 99.5862C206.647 100.939 205.099 103.996 203.838 104.902C199.337 106.588 193.958 106.59 190.213 104.563C185.234 103.418 176.177 100.758 168.225 94.9509L168.218 94.9561C168.255 94.9804 168.292 95.0046 168.325 95.0338C169.701 96.2697 166.065 101.238 160.586 106.463C155.523 111.29 150.863 114.613 148.559 113.841C151.864 115.747 163.672 121.624 172.66 125.366C170.645 132.268 167.276 137.778 163.735 139.951C161.865 141.099 164.71 152.441 173.694 159.387C181.609 165.507 197.784 174.132 213.677 171.143C229.04 145.267 225.786 132.152 223.061 119.015C229.248 113.932 235.187 106.56 240.034 98.2508Z" fill="white"/>
<path d="M173.757 107.079C174.293 107.34 174.353 108.29 173.914 109.561C173.256 111.465 171.641 113.3 170.216 114.918C168.269 117.13 166.587 119.04 167.999 120.539C169.238 121.855 170.847 121.484 172.023 121.215C173.296 120.922 173.862 120.86 174.345 121.438C175.915 123.319 174.031 125.342 173.952 125.425C173.893 125.486 173.848 125.557 173.82 125.634C173.791 125.711 173.78 125.791 173.787 125.872C173.793 125.952 173.817 126.031 173.858 126.103C173.898 126.175 173.953 126.239 174.021 126.292C174.089 126.345 174.168 126.385 174.253 126.411C174.339 126.436 174.429 126.446 174.518 126.44C174.608 126.434 174.695 126.413 174.776 126.377C174.856 126.34 174.927 126.29 174.986 126.229C175.925 125.254 177.228 122.844 175.439 120.701C174.361 119.41 172.876 119.75 171.684 120.025C170.436 120.312 169.697 120.441 169.043 119.746C168.354 119.014 169.78 117.395 171.289 115.681C172.788 113.978 174.487 112.048 175.221 109.925C176.13 107.295 175.102 106.336 174.408 105.999C172.677 105.159 169.753 106.504 167.13 109.352C163.615 113.168 159.057 115.567 153.584 116.495C154.185 116.799 154.787 117.1 155.39 117.4C160.499 116.25 164.796 113.813 168.184 110.135C170.714 107.388 172.967 106.694 173.757 107.079ZM169.678 132.838C169.452 133.264 169.216 133.686 168.969 134.102C171.695 133.999 184.369 133.23 185.603 127.873C186.064 125.873 185.261 125.018 184.506 124.652C182.547 123.702 179.027 125.201 177.367 126.693C177.302 126.75 177.25 126.818 177.214 126.893C177.178 126.968 177.159 127.048 177.158 127.13C177.157 127.211 177.175 127.292 177.209 127.368C177.244 127.443 177.294 127.512 177.359 127.57C177.423 127.627 177.499 127.673 177.583 127.704C177.667 127.735 177.757 127.75 177.848 127.75C177.939 127.749 178.029 127.732 178.112 127.7C178.195 127.668 178.271 127.621 178.334 127.562C179.756 126.285 182.691 125.168 183.857 125.734C184.483 126.037 184.424 126.929 184.264 127.624C183.446 131.174 175.078 132.545 169.678 132.838ZM183.967 141.243C182.808 138.824 179.151 137.877 174.183 138.71C171.62 139.141 169.58 137.989 168.526 136.769C168.242 136.441 168.029 136.102 167.888 135.782C167.609 136.179 167.316 136.567 167.009 136.947C167.138 137.141 167.282 137.333 167.445 137.522C168.747 139.029 171.266 140.451 174.434 139.918C179.491 139.07 182.025 140.298 182.71 141.729C183.386 143.141 182.492 144.921 180.432 146.265C178.567 147.482 176.426 148.135 174.538 148.712C171.301 149.699 168.227 150.639 168.51 154.144C168.919 154.679 169.348 155.202 169.795 155.712C169.901 155.641 169.981 155.544 170.027 155.432C170.072 155.321 170.081 155.201 170.052 155.085C169.216 151.791 171.062 151.071 174.979 149.875C176.959 149.271 179.203 148.586 181.236 147.259C183.833 145.565 184.905 143.203 183.967 141.243ZM231.91 98.6941L231.335 98.4699C230.055 97.9688 229.259 97.0174 228.969 95.6424C228.467 93.2576 229.604 90.2228 230.786 88.6431C230.415 88.4061 230.039 88.1768 229.656 87.9553C228.278 89.7924 227.043 93.1074 227.626 95.8713C227.999 97.6444 229.093 98.9328 230.788 99.5964L231.367 99.8222C233.804 100.769 235.903 101.591 237.004 103.105C237.257 102.723 237.508 102.34 237.756 101.955C236.351 100.421 234.109 99.5484 231.91 98.6941ZM223.015 98.0542C219.465 95.9514 220.857 92.1852 222.468 87.8238L222.513 87.7013C221.77 88.5195 221.008 89.3233 220.226 90.1122C219.098 93.6364 218.726 96.9855 222.263 99.0803C227.626 102.256 229.736 105.578 228.051 108.193L227.907 108.415C226.8 110.124 225.126 112.714 226.766 115.668C227.1 115.34 227.433 115.007 227.764 114.667C226.844 112.503 228.054 110.63 229.089 109.033L229.234 108.809C231.331 105.556 229.064 101.636 223.015 98.0542Z" fill="#B6E0FF"/>
<path d="M178.779 111.456C175.239 114.274 174.832 116.957 175.952 118.258C176.634 119.05 178.146 119.543 180.163 118.324C182.352 117.001 186.425 114.54 188.284 114.956C188.606 115.028 188.832 115.19 188.995 115.465C189.416 116.174 189.464 117.165 189.509 118.123C189.571 119.404 189.629 120.613 190.583 121.26C190.963 121.519 191.435 121.647 192.011 121.647C192.346 121.647 192.717 121.604 193.126 121.516C197.205 120.643 199.451 115.679 199.265 112.504C199.242 112.098 199.716 111.766 200.119 111.559C202.916 110.122 210.834 110.079 215.309 112.739C216.862 113.662 218.804 113.427 220.14 112.154C221.808 110.565 222.315 107.553 219.689 104.407C217.288 101.531 214.95 98.9737 212.801 96.6632C212.455 96.9293 212.105 97.1924 211.753 97.4527C213.891 99.7506 216.214 102.293 218.595 105.145C220.744 107.719 220.42 110.097 219.145 111.311C218.268 112.148 217.058 112.305 216.064 111.714C211.402 108.943 202.885 108.723 199.44 110.492C198.107 111.177 197.866 112 197.9 112.569C198.053 115.189 196.101 119.616 192.81 120.321C192.344 120.42 191.723 120.494 191.408 120.28C190.968 119.982 190.922 119.01 190.877 118.07C190.826 117.026 190.77 115.842 190.202 114.886C189.859 114.307 189.31 113.919 188.616 113.763C186.359 113.257 182.826 115.235 179.401 117.304C178.386 117.917 177.457 117.997 177.035 117.506C176.395 116.762 176.794 114.679 179.687 112.376C183.148 109.62 183.34 105.962 180.275 101.481C179.457 101.156 178.647 100.815 177.847 100.458C181.799 105.208 182.104 108.809 178.779 111.456ZM222.219 128.82C220.227 127.85 218.472 127.411 216.848 127.471C214.688 127.554 212.738 128.655 211.996 130.21C211.509 131.23 211.532 132.327 211.555 133.387C211.579 134.526 211.602 135.601 210.966 136.392C210.135 137.426 208.444 137.564 207.226 137.254C205.75 136.878 204.437 135.919 203.278 135.072C203.097 134.939 202.924 134.811 202.758 134.688C201.631 133.851 200.741 133.19 199.159 132.68C195.658 131.551 189.541 130.989 186.901 133.275C186.018 134.04 185.147 135.468 186.016 137.926C187.277 141.49 188.378 149.891 183.439 151.643C180.014 152.858 179.319 155.028 179.811 156.655C180.496 158.919 183.579 160.926 187.554 160.369C189.73 160.063 191.788 159.704 193.603 159.388C200.805 158.132 204.631 157.612 206.078 160.517C206.53 161.425 206.482 162.446 205.935 163.553C204.602 166.253 200.626 168.954 196.837 170.518C197.523 170.68 198.213 170.832 198.909 170.965C202.43 169.268 205.86 166.736 207.186 164.052C207.896 162.613 207.943 161.255 207.327 160.016C205.369 156.084 200.324 156.964 193.343 158.182C191.539 158.496 189.494 158.853 187.343 159.155C184.168 159.601 181.647 158.037 181.132 156.333C180.689 154.869 181.713 153.576 183.942 152.786C189.827 150.698 188.759 141.623 187.321 137.554C186.793 136.063 186.972 134.922 187.851 134.16C189.775 132.494 195.012 132.648 198.697 133.837C200.055 134.274 200.823 134.845 201.887 135.635C202.056 135.761 202.231 135.891 202.416 136.026C203.677 136.947 205.106 137.991 206.855 138.436C208.517 138.859 210.86 138.624 212.076 137.111C212.979 135.988 212.951 134.654 212.923 133.364C212.902 132.391 212.883 131.471 213.253 130.695C213.876 129.39 215.538 128.752 216.908 128.699C218.297 128.644 219.775 129.027 221.568 129.9C222.878 130.54 224.104 131.309 225.225 132.192C225.183 131.624 225.133 131.057 225.073 130.491C224.173 129.866 223.219 129.308 222.219 128.82Z" fill="#B6E0FF"/>
<path d="M215.058 148.479C212.908 147.506 210.684 146.5 208.229 146.191C206.472 145.969 204.382 146.447 203.946 148.018C203.808 148.516 203.869 149.077 204.126 149.686C204.7 151.047 205.926 151.699 207.112 152.329C207.368 152.465 207.629 152.604 207.889 152.752C211.418 154.77 215.331 159.589 217.051 165.106C217.347 164.538 217.639 163.968 217.925 163.395C215.901 158.085 212.027 153.662 208.623 151.716C208.351 151.56 208.077 151.414 207.808 151.271C206.691 150.678 205.809 150.209 205.404 149.251C205.248 148.88 205.204 148.566 205.273 148.316C205.492 147.528 206.861 147.26 208.039 147.408C210.27 147.689 212.297 148.606 214.443 149.577C216.619 150.561 218.869 151.58 221.358 151.874C221.796 151.924 222.238 151.951 222.68 151.956C222.813 151.544 222.939 151.137 223.061 150.732C222.551 150.74 222.042 150.715 221.537 150.656C219.278 150.388 217.228 149.46 215.058 148.479Z" fill="#B6E0FF"/>
<path d="M206.939 172.221C201.715 172.221 196.213 171.181 190.503 169.109C184.489 166.926 178.24 163.511 173.36 159.738C165.489 153.652 162.484 144.573 162.688 141.285C162.742 140.424 162.997 139.848 163.447 139.572C166.794 137.518 170.074 132.193 172.055 125.622C163.042 121.842 151.436 116.048 148.283 114.229C148.176 114.168 148.098 114.073 148.065 113.963C148.031 113.854 148.044 113.737 148.101 113.635C148.157 113.533 148.254 113.454 148.372 113.412C148.49 113.371 148.621 113.37 148.739 113.41C150.554 114.017 154.736 111.37 160.214 106.148C166.752 99.9134 168.704 96.0252 167.964 95.3604C167.951 95.3496 167.935 95.3404 167.919 95.3303C167.856 95.2893 167.804 95.2359 167.768 95.1742C167.731 95.1126 167.71 95.0442 167.707 94.9743C167.704 94.9044 167.719 94.8348 167.75 94.7708C167.782 94.7067 167.829 94.6499 167.888 94.6047C168.077 94.4615 168.359 94.4542 168.55 94.5936C176.003 100.036 184.514 102.777 190.342 104.117C190.39 104.128 190.436 104.146 190.479 104.169C193.937 106.04 199.068 106.169 203.572 104.503C204.041 104.141 204.609 103.392 205.209 102.601C206.12 101.398 207.152 100.035 208.398 99.2148C214.129 95.4393 219.382 90.7404 224.012 85.248C224.08 85.1674 224.176 85.1091 224.284 85.0821C224.393 85.0551 224.508 85.0609 224.612 85.0987C229.44 86.8396 236.114 90.4977 240.49 98.0382C240.528 98.1042 240.548 98.1774 240.548 98.2518C240.548 98.3261 240.528 98.3994 240.49 98.4653C235.593 106.858 229.611 114.203 223.62 119.183L223.768 119.894C226.44 132.716 229.203 145.975 214.132 171.36C214.097 171.42 214.047 171.472 213.987 171.512C213.927 171.553 213.858 171.581 213.785 171.595C211.563 172.012 209.278 172.221 206.939 172.221ZM150.329 114.275C154.806 116.668 164.93 121.64 172.877 124.949C172.986 124.994 173.074 125.073 173.125 125.171C173.176 125.268 173.188 125.379 173.157 125.484C171.099 132.536 167.685 138.087 164.026 140.333C163.999 140.349 163.764 140.516 163.713 141.336C163.518 144.471 166.426 153.159 174.03 159.039C183.143 166.085 198.876 173.347 213.339 170.736C228.113 145.761 225.392 132.697 222.759 120.063L222.558 119.1C222.526 118.944 222.586 118.783 222.716 118.676C228.641 113.807 234.579 106.56 239.455 98.2511C235.332 91.2885 229.179 87.8027 224.591 86.0863C219.959 91.5287 214.716 96.1947 209.004 99.9579C207.9 100.685 206.92 101.978 206.056 103.12C205.36 104.038 204.759 104.831 204.159 105.262C204.122 105.289 204.08 105.311 204.036 105.328C199.253 107.12 193.759 106.987 190.014 104.994C184.401 103.696 176.368 101.124 169.103 96.1573C168.974 96.9968 168.428 98.1046 167.462 99.4971C166.032 101.559 163.723 104.146 160.96 106.78C156.347 111.178 152.785 113.687 150.329 114.275ZM217.853 226.604C215.082 225.753 210.321 223.148 208.614 218.647C207 214.388 210.34 205.803 214.538 203.017C214.538 203.017 205.914 200.894 202.825 204.833C199.736 208.772 199.736 219.392 199.736 219.392C207.898 224.763 212.847 227.572 213.171 229.609C213.26 230.165 213.658 231.438 211.7 232.877C214.596 231.297 216.98 231.231 218.613 230.657C220.621 229.95 220.816 227.514 217.853 226.604Z" fill="#1A1A1A"/>
<path d="M211.7 233.338C211.595 233.338 211.491 233.309 211.405 233.254C211.318 233.199 211.253 233.122 211.217 233.032C211.181 232.943 211.178 232.845 211.206 232.754C211.234 232.662 211.293 232.581 211.375 232.52C212.967 231.35 212.792 230.386 212.687 229.811L212.664 229.674C212.428 228.193 208.867 225.888 203.476 222.398C202.124 221.525 200.777 220.647 199.433 219.764C199.368 219.721 199.315 219.665 199.278 219.601C199.242 219.536 199.223 219.465 199.223 219.392C199.223 218.953 199.259 208.579 202.405 204.568C205.664 200.412 214.307 202.481 214.674 202.572C214.766 202.595 214.85 202.64 214.915 202.704C214.981 202.768 215.024 202.847 215.042 202.932C215.06 203.017 215.05 203.104 215.015 203.185C214.98 203.265 214.92 203.335 214.843 203.387C210.732 206.116 207.565 214.448 209.1 218.499C210.769 222.903 215.492 225.392 218.019 226.168C219.617 226.658 220.588 227.641 220.616 228.797C220.64 229.791 219.928 230.689 218.8 231.086C218.239 231.284 217.597 231.424 216.918 231.572C215.554 231.87 213.856 232.24 211.966 233.271C211.886 233.315 211.794 233.338 211.7 233.338ZM200.251 219.16C201.62 220.06 202.898 220.886 204.076 221.649C210.076 225.535 213.382 227.675 213.679 229.544L213.7 229.662C213.768 230.039 213.892 230.723 213.515 231.541C214.694 231.109 215.757 230.877 216.675 230.676C217.348 230.529 217.929 230.403 218.426 230.228C219.159 229.97 219.605 229.429 219.59 228.817C219.571 228.065 218.86 227.4 217.687 227.04C214.982 226.209 209.926 223.538 208.129 218.796C206.555 214.644 209.368 206.685 213.415 203.263C211.128 202.863 205.497 202.226 203.244 205.098C200.53 208.558 200.275 217.594 200.251 219.16ZM198.335 184.385C196.589 175.194 170.313 172.221 167.324 181.084C165.969 185.102 165.028 189.702 164.184 194.463C168.981 195.582 173.304 199.056 175.077 204.871C177.076 211.429 174.494 214.417 177.15 216.571C178.866 217.962 182.592 215.465 183.261 218.232C183.848 220.658 181.795 223.121 179.133 224.574C182.235 225.544 185.35 226.024 188.215 225.777C192.372 220.348 195.438 215.05 196.521 210.498C199.976 195.985 199.314 189.534 198.335 184.385Z" fill="#1A1A1A"/>
<path d="M186.68 226.302C184.302 226.302 181.715 225.869 178.964 225.009C178.872 224.981 178.791 224.929 178.731 224.861C178.67 224.792 178.633 224.71 178.623 224.623C178.612 224.536 178.63 224.448 178.673 224.37C178.716 224.291 178.783 224.226 178.866 224.18C181.2 222.906 183.31 220.604 182.76 218.33C182.5 217.257 181.79 217.222 180.108 217.397C178.984 217.514 177.71 217.646 176.806 216.913C175.234 215.639 175.292 214.067 175.364 212.078C175.429 210.279 175.511 208.04 174.582 204.993C172.991 199.775 169.154 196.099 164.055 194.908C163.931 194.879 163.824 194.81 163.755 194.715C163.685 194.619 163.657 194.503 163.677 194.39C164.431 190.135 165.396 185.212 166.833 180.95C167.861 177.904 172.262 174.835 181.533 175.355C189.372 175.797 197.835 179.013 198.841 184.307C199.794 189.325 200.519 195.908 197.022 210.594C195.993 214.918 193.172 220.114 188.638 226.037C188.595 226.093 188.54 226.139 188.475 226.174C188.411 226.208 188.339 226.229 188.264 226.235C187.737 226.28 187.209 226.303 186.68 226.302ZM180.288 224.431C183.048 225.199 185.613 225.502 187.929 225.337C192.307 219.588 195.028 214.564 196.02 210.402C199.478 195.876 198.767 189.396 197.83 184.463C196.923 179.692 188.724 176.684 181.469 176.276C176.042 175.971 169.21 177.081 167.815 181.218C166.441 185.292 165.501 190 164.763 194.128C170.002 195.51 173.928 199.357 175.572 204.749C176.542 207.931 176.458 210.247 176.39 212.108C176.319 214.062 176.276 215.241 177.494 216.229C178.053 216.683 178.994 216.585 179.99 216.481C181.379 216.338 183.28 216.14 183.762 218.135C184.38 220.688 182.433 223 180.288 224.431Z" fill="#1A1A1A"/>
<path d="M239.193 221.131C236.743 216.226 228.186 203.401 219.683 193.368L218.03 198.12C221.269 201.147 235.008 218.643 237.247 226.486C238.654 231.416 238.975 235.255 237.823 240.215C241.805 234.466 242.364 227.475 239.193 221.131Z" fill="white"/>
<path d="M202.77 221.368C203.291 214.344 210.559 201.686 224.174 198.904C218.11 191.123 211.185 185.687 206.709 181.705C208.896 178.61 209.439 177.227 210.773 175.318C197.898 178.915 183.823 173.365 171.902 163.079C169.527 165.687 158.289 179.305 168.879 193.036C178.089 204.978 192.56 214.775 202.77 221.368Z" fill="#B6E0FF"/>
<path d="M206.709 181.705C208.896 178.61 209.439 177.227 210.773 175.318C198.375 176.971 185.294 173.766 173.69 164.553C171.899 169.845 170.427 181.024 173.716 188.807C177.603 198.003 187.062 205.43 189.783 201.651C192.504 197.872 196.305 188.691 200.321 191.484C204.338 194.278 200.019 199.561 205.85 201.185C210.908 202.594 214.471 199.926 216.962 201.535C219.125 200.362 221.528 199.445 224.174 198.904C216.982 190.919 210.905 185.429 206.709 181.705Z" fill="white"/>
<path d="M210.34 206.563C185.858 192.59 182.257 180.862 184.208 171.616C182.756 170.95 181.341 170.22 179.969 169.428C176.976 177.945 178.08 193.711 207.519 209.906C208.37 208.733 209.312 207.616 210.34 206.563Z" fill="white"/>
<path d="M207.519 210.367C207.425 210.367 207.332 210.343 207.252 210.299C194.109 203.069 185.316 195.223 181.116 186.979C177.275 179.44 178.107 173.198 179.48 169.289C179.504 169.221 179.545 169.159 179.6 169.108C179.654 169.057 179.721 169.018 179.795 168.994C179.869 168.97 179.949 168.962 180.027 168.97C180.106 168.977 180.181 169.002 180.247 169.04C181.605 169.824 183.005 170.547 184.442 171.206C184.541 171.251 184.621 171.324 184.669 171.413C184.718 171.503 184.733 171.604 184.713 171.702C183.59 177.023 184.602 182.056 187.807 187.088C191.837 193.415 199.511 199.837 210.615 206.174C210.678 206.21 210.731 206.257 210.771 206.313C210.811 206.369 210.837 206.432 210.848 206.498C210.858 206.563 210.853 206.631 210.832 206.694C210.811 206.758 210.774 206.817 210.726 206.867C209.714 207.903 208.787 209.003 207.949 210.157C207.903 210.222 207.839 210.275 207.764 210.311C207.689 210.348 207.604 210.367 207.519 210.367ZM180.266 170.142C179.071 173.92 178.527 179.684 182.048 186.596C186.117 194.582 194.633 202.213 207.365 209.28C208.045 208.373 208.779 207.501 209.564 206.665C198.587 200.339 190.969 193.908 186.916 187.546C183.652 182.422 182.577 177.29 183.635 171.87C182.488 171.333 181.364 170.757 180.266 170.142ZM206.709 182.166C206.59 182.166 206.475 182.129 206.383 182.061C204.807 180.898 203.206 180.443 203.19 180.438C203.063 180.4 202.958 180.319 202.897 180.212C202.835 180.105 202.823 179.98 202.863 179.865C202.902 179.75 202.99 179.654 203.108 179.596C203.226 179.539 203.364 179.525 203.493 179.558C203.566 179.578 205.294 180.065 207.034 181.35C207.116 181.41 207.175 181.492 207.203 181.583C207.231 181.675 207.227 181.772 207.191 181.861C207.156 181.95 207.09 182.028 207.004 182.082C206.917 182.137 206.814 182.166 206.709 182.166Z" fill="#1A1A1A"/>
<path d="M202.77 221.829C202.7 221.829 202.63 221.816 202.566 221.791C202.501 221.766 202.443 221.729 202.395 221.683C202.347 221.637 202.31 221.583 202.287 221.523C202.263 221.464 202.253 221.401 202.258 221.338C202.548 217.422 204.816 212.444 208.174 208.346C211.094 204.784 216.189 200.177 223.88 198.457C223.946 198.442 224.014 198.438 224.081 198.447C224.148 198.456 224.212 198.476 224.27 198.507C224.329 198.538 224.379 198.58 224.42 198.628C224.46 198.677 224.489 198.733 224.505 198.792C224.522 198.851 224.525 198.912 224.515 198.972C224.505 199.032 224.481 199.09 224.446 199.142C224.411 199.194 224.365 199.239 224.31 199.275C224.256 199.311 224.194 199.337 224.128 199.351C216.734 201.005 211.82 205.453 209.001 208.893C205.751 212.857 203.56 217.649 203.281 221.399C203.273 221.516 203.215 221.625 203.12 221.705C203.025 221.785 202.9 221.829 202.77 221.829Z" fill="#1A1A1A"/>
<path d="M179.784 273.852C178.964 273.852 178.369 273.527 177.954 273.146C175.976 271.33 176.434 266.495 177.805 264.927C177.963 264.747 178.32 264.305 178.814 263.694C181.304 260.614 187.921 252.432 195.452 245.033C199.87 240.693 205.007 237.053 208.757 234.396C211.292 232.6 214.166 230.564 214.165 229.989C213.867 229.058 209.851 226.481 205.2 223.498C195.241 217.109 178.574 206.415 168.458 193.299C157.661 179.3 169.102 165.427 171.505 162.787C171.553 162.735 171.613 162.693 171.681 162.664C171.749 162.634 171.823 162.619 171.898 162.618C172.044 162.612 172.195 162.677 172.294 162.781C180.679 171.664 196.116 176.52 210.709 174.861C210.806 174.85 210.903 174.864 210.991 174.901C211.079 174.938 211.154 174.997 211.206 175.07C211.258 175.144 211.286 175.229 211.286 175.317C211.287 175.404 211.26 175.489 211.208 175.563C210.739 176.236 210.25 177.046 209.684 177.982C209.01 179.098 208.253 180.351 207.366 181.633C224.838 196.707 235.682 212.218 239.668 220.956C243.374 229.077 241.787 237.614 235.424 243.795C231.809 247.306 219.194 253.632 206.994 259.749C197.051 264.735 187.66 269.444 182.836 272.701C181.579 273.549 180.576 273.852 179.784 273.852ZM171.918 163.8C168.989 167.176 159.409 179.949 169.3 192.774C179.315 205.759 195.891 216.394 205.796 222.748C211.846 226.629 214.772 228.549 215.154 229.752C215.475 230.76 213.728 232.047 209.392 235.12C205.669 237.757 200.57 241.37 196.208 245.655C188.716 253.016 182.125 261.167 179.644 264.236C179.124 264.878 178.781 265.303 178.611 265.497C177.499 266.768 177.139 271.08 178.688 272.502C179.457 273.208 180.645 273.027 182.219 271.964C187.099 268.67 196.52 263.945 206.494 258.944C218.623 252.862 231.167 246.572 234.671 243.168C240.756 237.258 242.269 229.085 238.719 221.305C237.838 219.373 229.443 201.864 206.355 182.038C206.269 181.964 206.214 181.866 206.2 181.761C206.186 181.655 206.213 181.548 206.276 181.458C207.241 180.092 208.06 178.737 208.782 177.542C209.135 176.958 209.476 176.395 209.803 175.882C195.421 177.217 180.399 172.435 171.918 163.8Z" fill="#1A1A1A"/>
<path d="M186.727 226.3C177.328 226.3 165.575 219.393 160.398 212.691C160.359 212.641 160.332 212.585 160.318 212.526C160.304 212.467 160.302 212.406 160.314 212.346C160.326 212.287 160.351 212.23 160.388 212.179C160.424 212.128 160.471 212.084 160.527 212.05C160.582 212.015 160.644 211.991 160.71 211.978C160.776 211.965 160.844 211.964 160.91 211.975C160.977 211.986 161.04 212.008 161.097 212.041C161.153 212.073 161.202 212.116 161.24 212.166C166.541 219.028 178.903 226.116 188.166 225.318C188.233 225.313 188.301 225.319 188.365 225.336C188.43 225.354 188.49 225.383 188.542 225.422C188.594 225.46 188.637 225.507 188.668 225.561C188.7 225.614 188.72 225.673 188.726 225.733C188.732 225.793 188.726 225.854 188.706 225.912C188.686 225.97 188.654 226.024 188.611 226.07C188.568 226.117 188.516 226.156 188.456 226.184C188.397 226.213 188.331 226.23 188.264 226.236C187.761 226.279 187.247 226.3 186.727 226.3ZM178.774 264.494L170.44 265.479C169.731 265.531 169.072 265.827 168.599 266.304C168.127 266.782 167.879 267.406 167.906 268.044C168.097 272.584 168.575 285.707 168.787 293.141C168.829 294.621 171.056 295.05 171.77 293.716C173.807 289.914 176.547 283.048 177.574 281.29C179.512 277.975 181.855 273.25 182.527 272.333C178.146 270.2 178.774 264.494 178.774 264.494Z" fill="#1A1A1A"/>
<path d="M170.375 294.978C170.225 294.978 170.072 294.964 169.919 294.935C168.96 294.75 168.299 294.033 168.274 293.153C168.058 285.583 167.573 272.35 167.393 268.062C167.36 267.304 167.654 266.564 168.214 265.997C168.774 265.43 169.557 265.08 170.398 265.02L178.707 264.037C178.784 264.028 178.861 264.035 178.935 264.056C179.008 264.078 179.075 264.115 179.131 264.163C179.186 264.211 179.229 264.27 179.255 264.335C179.282 264.4 179.292 264.47 179.284 264.539C179.278 264.593 178.746 269.968 182.771 271.928C182.834 271.958 182.888 272 182.932 272.051C182.976 272.101 183.007 272.159 183.024 272.221C183.042 272.283 183.044 272.347 183.032 272.41C183.021 272.473 182.994 272.533 182.955 272.587C182.632 273.027 181.848 274.499 180.939 276.204C180.023 277.922 178.984 279.869 178.028 281.505C177.572 282.286 176.752 284.139 175.803 286.284C174.652 288.886 173.347 291.835 172.232 293.916C171.875 294.583 171.162 294.978 170.375 294.978ZM178.231 265.023L170.507 265.936C169.279 266.026 168.373 266.944 168.418 268.027C168.599 272.317 169.084 285.556 169.3 293.129C169.315 293.68 169.741 293.957 170.134 294.033C170.527 294.108 171.042 294.013 171.308 293.516C172.407 291.464 173.705 288.531 174.85 285.943C175.809 283.773 176.638 281.9 177.12 281.076C178.067 279.455 179.102 277.516 180.014 275.805C180.779 274.369 181.417 273.172 181.828 272.495C180.148 271.514 179.004 269.869 178.505 267.707C178.305 266.824 178.213 265.924 178.231 265.023Z" fill="#1A1A1A"/>
<path d="M183.315 283.82C182.634 283.82 182.147 283.579 181.829 283.336C180.806 282.553 180.284 280.823 180.278 278.196C180.274 276.31 180.536 274.659 180.547 274.59C180.561 274.504 180.602 274.423 180.664 274.357C180.727 274.291 180.809 274.242 180.901 274.216C180.993 274.19 181.092 274.188 181.185 274.21C181.279 274.232 181.363 274.277 181.429 274.341C181.977 274.866 186.758 279.552 185.986 282.188C185.839 282.689 185.42 283.354 184.256 283.681C183.908 283.779 183.595 283.82 183.315 283.82ZM181.431 275.731C181.203 277.914 181.131 281.591 182.495 282.635C182.865 282.918 183.341 282.973 183.949 282.802C184.726 282.583 184.917 282.213 184.993 281.953C185.446 280.411 183.02 277.415 181.431 275.731Z" fill="#1A1A1A"/>
<path d="M187.007 278.989C184.582 278.989 181.171 275.329 180.779 274.9C180.717 274.831 180.678 274.747 180.667 274.659C180.656 274.571 180.673 274.481 180.717 274.402C180.762 274.322 180.831 274.256 180.916 274.211C181.001 274.166 181.099 274.144 181.198 274.148C181.847 274.172 187.577 274.445 188.781 276.31C189.007 276.66 189.186 277.231 188.762 277.968C188.326 278.725 187.683 278.936 187.219 278.979C187.149 278.986 187.078 278.989 187.007 278.989ZM182.386 275.15C183.854 276.569 185.934 278.17 187.112 278.063C187.312 278.044 187.606 277.97 187.851 277.545C188.08 277.148 187.985 276.914 187.894 276.773C187.314 275.874 184.577 275.35 182.386 275.15Z" fill="#1A1A1A"/>
<path d="M174.483 273.912C176.535 273.912 178.198 272.418 178.198 270.575C178.198 268.732 176.535 267.238 174.483 267.238C172.432 267.238 170.769 268.732 170.769 270.575C170.769 272.418 172.432 273.912 174.483 273.912Z" fill="white"/>
<path d="M174.478 274.375C173.812 274.375 173.15 274.232 172.541 273.949C172.047 273.721 171.608 273.407 171.25 273.025C170.892 272.644 170.622 272.203 170.455 271.727C169.748 269.731 170.98 267.591 173.202 266.956C175.423 266.321 177.805 267.429 178.511 269.424C178.681 269.899 178.745 270.4 178.698 270.897C178.651 271.394 178.494 271.878 178.238 272.321C177.984 272.764 177.635 273.159 177.21 273.48C176.786 273.802 176.294 274.045 175.764 274.195C175.349 274.314 174.915 274.375 174.478 274.375ZM174.481 267.699C174.16 267.699 173.835 267.742 173.513 267.834C171.831 268.315 170.897 269.936 171.433 271.447C171.692 272.179 172.253 272.777 173.012 273.13C173.772 273.483 174.639 273.549 175.454 273.316C175.855 273.203 176.227 273.019 176.549 272.775C176.87 272.531 177.135 272.233 177.327 271.897C177.521 271.561 177.64 271.195 177.675 270.818C177.711 270.442 177.663 270.063 177.534 269.703C177.101 268.481 175.838 267.699 174.481 267.699Z" fill="#1A1A1A"/>
<path d="M209.284 111.043C208.742 109.527 208.023 108.49 206.645 107.098C207.002 103.146 207.451 98.4324 207.906 96.0258C208.399 93.4229 196.042 86.8153 196.042 89.1961C196.042 90.5518 193.883 92.8911 195.837 95.8209C195.276 98.8932 194.297 103.35 193.887 105.236C193.887 105.236 192.307 105.223 190.214 104.564C191.45 107.696 194.582 110.879 198.916 113.418C204.468 116.67 210.968 115.758 209.284 111.043Z" fill="#B6E0FF"/>
<path d="M205.412 115.811C203.342 115.811 200.883 115.119 198.636 113.803C194.175 111.19 191.012 107.963 189.73 104.718C189.698 104.636 189.692 104.547 189.713 104.462C189.735 104.378 189.782 104.3 189.85 104.238C189.919 104.177 190.005 104.134 190.099 104.114C190.194 104.095 190.292 104.1 190.384 104.129C191.743 104.557 192.885 104.702 193.47 104.751L193.498 104.625C193.951 102.545 194.786 98.707 195.302 95.9093C193.922 93.7132 194.638 91.8439 195.164 90.471C195.36 89.9573 195.53 89.5137 195.53 89.1961C195.53 88.8213 195.732 88.515 196.082 88.3559C197.524 87.7028 201.871 89.8618 204.498 91.6039C206.43 92.8856 208.677 94.7064 208.413 96.1029C207.984 98.3685 207.564 102.635 207.175 106.94C208.55 108.352 209.238 109.407 209.773 110.902C210.391 112.633 210.027 114.07 208.746 114.948C207.897 115.529 206.734 115.811 205.412 115.811ZM191.098 105.292C192.5 108.027 195.394 110.804 199.196 113.031C202.471 114.95 206.309 115.458 208.123 114.215C209.289 113.416 209.132 112.126 208.795 111.184C208.291 109.773 207.628 108.784 206.262 107.404C206.216 107.357 206.181 107.303 206.159 107.244C206.137 107.185 206.129 107.122 206.134 107.06C206.531 102.669 206.959 98.2831 207.401 95.9484C207.54 95.2182 205.858 93.4244 202.376 91.4095C199.181 89.5604 196.952 88.9872 196.556 89.1725V89.1964C196.556 89.6683 196.36 90.1795 196.134 90.7711C195.636 92.0721 195.015 93.6917 196.278 95.5843C196.34 95.6777 196.364 95.7883 196.344 95.8958C195.829 98.7196 194.967 102.677 194.505 104.802L194.391 105.324C194.368 105.429 194.306 105.524 194.214 105.592C194.122 105.66 194.007 105.697 193.888 105.697H193.883C193.826 105.696 192.703 105.682 191.098 105.292Z" fill="#1A1A1A"/>
<path d="M202.837 69.9543C194.016 75.11 191.627 87.4291 192.152 94.5527C193.713 94.8182 194.712 95.2532 195.838 95.8209C196.001 92.2411 195.951 88.7722 197.346 84.4382C198.807 79.8959 201.444 75.1159 205.868 71.2141C204.906 71.0998 203.844 70.6799 202.837 69.9543Z" fill="white"/>
<path d="M195.838 96.2817C195.751 96.2817 195.665 96.262 195.587 96.2227C194.391 95.6193 193.474 95.2467 192.057 95.0056C191.945 94.9866 191.844 94.9348 191.768 94.8583C191.693 94.7819 191.648 94.6851 191.64 94.5832C191.111 87.402 193.581 74.8139 202.557 69.5678C202.648 69.5149 202.755 69.4889 202.863 69.4937C202.97 69.4985 203.074 69.5338 203.158 69.5946C204.05 70.2375 205.037 70.6504 205.935 70.7567C206.03 70.768 206.12 70.8032 206.194 70.8581C206.269 70.9131 206.324 70.9857 206.354 71.0676C206.385 71.1496 206.389 71.2375 206.367 71.3215C206.344 71.4055 206.296 71.482 206.227 71.5425C202.338 74.973 199.515 79.3546 197.838 84.566C196.641 88.2843 196.522 91.4187 196.407 94.4501C196.389 94.9128 196.371 95.3754 196.35 95.8396C196.345 95.9585 196.289 96.071 196.193 96.1535C196.097 96.2359 195.97 96.2818 195.838 96.2817ZM192.641 94.173C193.758 94.3964 194.598 94.7125 195.356 95.063L195.381 94.4188C195.499 91.3311 195.621 88.1384 196.853 84.3104C198.485 79.24 201.176 74.9273 204.857 71.4783C204.168 71.2802 203.479 70.957 202.817 70.5211C194.595 75.5699 192.235 87.2405 192.641 94.173Z" fill="#1A1A1A"/>
<path d="M217.963 87.6235C218.926 94.5377 216.901 100.689 211.206 101.291C205.511 101.892 198.244 96.7207 197.339 89.8C196.434 82.8794 200.948 76.7852 206.643 76.1843C212.338 75.5834 216.726 78.7442 217.963 87.6235Z" fill="#B6E0FF"/>
<path d="M206.643 76.1843C212.338 75.5831 216.726 78.7439 217.963 87.6235C218.926 94.5377 216.901 100.689 211.206 101.291C208.279 101.599 204.937 100.384 202.257 98.19" fill="#B6E0FF"/>
<path d="M210.295 101.798C207.524 101.798 204.459 100.616 201.912 98.5307C201.817 98.4471 201.762 98.3338 201.758 98.2144C201.754 98.0951 201.802 97.9791 201.891 97.8909C201.981 97.8026 202.105 97.749 202.237 97.7412C202.37 97.7335 202.501 97.7722 202.602 97.8493C205.235 100.004 208.429 101.119 211.146 100.833C212.842 100.654 214.248 99.937 215.325 98.7024C217.333 96.4005 218.109 92.3833 217.454 87.6807C216.36 79.8323 212.642 76.0138 206.702 76.642C206.635 76.6491 206.568 76.6443 206.503 76.6278C206.438 76.6113 206.377 76.5835 206.325 76.546C206.218 76.4702 206.149 76.3595 206.133 76.2381C206.117 76.1167 206.156 75.9946 206.24 75.8987C206.324 75.8027 206.448 75.7408 206.583 75.7266C211.186 75.24 216.986 76.9004 218.471 87.5661C219.16 92.5108 218.308 96.7769 216.132 99.271C214.881 100.706 213.243 101.539 211.265 101.748C210.947 101.782 210.623 101.798 210.295 101.798Z" fill="#1A1A1A"/>
<path d="M205.295 83.5863C205.195 83.5863 205.097 83.5599 205.013 83.5103C204.929 83.4608 204.864 83.3902 204.824 83.3074C204.785 83.2245 204.773 83.1331 204.79 83.0444C204.808 82.9557 204.854 82.8735 204.923 82.8082C206.213 81.5867 207.738 81.4933 207.803 81.4897C208.085 81.4789 208.328 81.6688 208.344 81.9228C208.361 82.1769 208.145 82.395 207.862 82.4097C207.853 82.4103 206.667 82.4954 205.668 83.4422C205.62 83.4878 205.562 83.524 205.498 83.5488C205.434 83.5736 205.365 83.5864 205.295 83.5863ZM205.868 87.4331C205.765 87.4331 205.665 87.4053 205.58 87.3534C205.495 87.3015 205.429 87.2278 205.391 87.1419C205.354 87.0561 205.345 86.962 205.368 86.8719C205.39 86.7817 205.442 86.6997 205.517 86.6365C206.818 85.5379 209.045 84.617 210.374 85.0467C210.439 85.0664 210.498 85.0975 210.549 85.138C210.6 85.1786 210.642 85.2279 210.671 85.283C210.701 85.3381 210.718 85.3979 210.721 85.459C210.725 85.52 210.715 85.5811 210.692 85.6387C210.669 85.6963 210.633 85.7491 210.587 85.7942C210.541 85.8393 210.486 85.8757 210.424 85.9013C210.362 85.927 210.295 85.9413 210.227 85.9434C210.159 85.9456 210.091 85.9356 210.028 85.914C209.225 85.655 207.374 86.3324 206.219 87.308C206.12 87.3916 205.994 87.4331 205.868 87.4331ZM213.953 85.0556C213.854 85.0557 213.756 85.0296 213.673 84.9805C213.589 84.9315 213.523 84.8617 213.483 84.7796C213.443 84.6975 213.431 84.6067 213.448 84.5184C213.464 84.43 213.509 84.3479 213.577 84.2821C214.314 83.5651 216.161 83.4398 217.047 83.7052C217.11 83.7243 217.169 83.7546 217.22 83.7942C217.271 83.8339 217.313 83.8821 217.343 83.9363C217.373 83.9904 217.391 84.0493 217.396 84.1096C217.401 84.17 217.392 84.2306 217.371 84.288C217.349 84.3453 217.316 84.3984 217.272 84.4441C217.227 84.4898 217.174 84.5272 217.113 84.5543C217.053 84.5813 216.988 84.5974 216.921 84.6017C216.853 84.606 216.786 84.5983 216.722 84.5792C216.046 84.377 214.683 84.5638 214.33 84.9073C214.282 84.9542 214.224 84.9916 214.159 85.0171C214.094 85.0427 214.024 85.0558 213.953 85.0556ZM213.97 91.8469C213.843 91.8472 213.721 91.8053 213.626 91.7292C213.532 91.6532 213.472 91.5484 213.459 91.4351C213.445 91.3218 213.479 91.208 213.553 91.1157C213.628 91.0234 213.738 90.9592 213.862 90.9355C214.093 90.8891 214.81 90.6725 215.037 90.3035C215.093 90.2123 215.156 90.0609 215.052 89.7994C214.995 89.6547 214.853 89.5534 214.562 89.3558C214.061 89.0154 213.304 88.5006 212.564 87.179C212.506 87.0703 212.499 86.9459 212.543 86.8323C212.586 86.7187 212.677 86.6248 212.797 86.5708C212.916 86.5168 213.055 86.5069 213.182 86.5431C213.31 86.5794 213.416 86.659 213.48 86.7649C214.113 87.8951 214.705 88.2975 215.181 88.621C215.528 88.8572 215.857 89.0803 216.019 89.4916C216.196 89.9398 216.165 90.376 215.932 90.7533C215.438 91.5502 214.217 91.8091 214.08 91.8359C214.044 91.8433 214.007 91.847 213.97 91.8469Z" fill="#1A1A1A"/>
<path d="M213.389 96.9977C213.898 96.9977 214.312 96.2615 214.312 95.3533C214.312 94.4451 213.898 93.7089 213.389 93.7089C212.879 93.7089 212.465 94.4451 212.465 95.3533C212.465 96.2615 212.879 96.9977 213.389 96.9977Z" fill="#1A1A1A"/>
<path d="M213.388 97.4582C212.57 97.4582 211.952 96.5532 211.952 95.353C211.952 94.1528 212.57 93.2478 213.388 93.2478C214.207 93.2478 214.825 94.1528 214.825 95.353C214.825 96.5532 214.207 97.4582 213.388 97.4582ZM213.38 94.1687C213.281 94.2004 212.978 94.6123 212.978 95.353C212.978 96.0937 213.281 96.5056 213.397 96.5373C213.496 96.5056 213.799 96.0937 213.799 95.353C213.799 94.6126 213.496 94.2004 213.38 94.1687ZM215.62 81.5419C215.541 81.5419 215.46 81.5253 215.385 81.4906C214.508 81.0845 213.71 81.2937 213.702 81.2958C213.573 81.33 213.434 81.3175 213.316 81.261C213.197 81.2044 213.108 81.1083 213.067 80.9933C213.027 80.8783 213.038 80.7536 213.099 80.6459C213.159 80.5383 213.264 80.4563 213.392 80.4175C213.44 80.4037 214.591 80.0867 215.855 80.6713C215.957 80.7188 216.038 80.7956 216.086 80.8896C216.134 80.9836 216.145 81.0892 216.118 81.1896C216.09 81.2899 216.027 81.3792 215.936 81.4431C215.846 81.507 215.735 81.5418 215.62 81.5419ZM181.685 128.966C181.651 128.966 181.616 128.963 181.581 128.956C177.543 128.21 168.125 123.981 162.87 121.527C155.658 118.158 148.836 114.66 147.554 113.783C147.447 113.709 147.377 113.6 147.36 113.479C147.342 113.359 147.378 113.237 147.46 113.14C147.542 113.044 147.663 112.98 147.797 112.963C147.931 112.946 148.067 112.977 148.175 113.05C150.825 114.863 175.082 126.814 181.787 128.053C181.912 128.075 182.024 128.139 182.1 128.231C182.175 128.323 182.21 128.437 182.197 128.551C182.185 128.665 182.125 128.77 182.03 128.847C181.936 128.924 181.813 128.966 181.685 128.966ZM216.579 73.1738C216.061 69.1381 207.855 70.4381 205.868 71.2141C201.267 75.2719 198.774 80.3515 197.514 85.1214C201.731 84.5715 204.227 82.168 204.399 78.0632C208.546 78.9169 217.02 76.6086 216.579 73.1738Z" fill="#1A1A1A"/>
<path d="M197.515 85.5822C197.437 85.5822 197.361 85.5665 197.291 85.5362C197.222 85.5059 197.16 85.4618 197.112 85.4072C197.064 85.3527 197.031 85.2891 197.014 85.2212C196.997 85.1532 196.998 85.0828 197.016 85.0151C198.533 79.2717 201.39 74.5178 205.508 70.8854C205.553 70.8461 205.606 70.8142 205.663 70.7917C207.257 70.1693 212.459 69.225 215.286 70.6894C216.346 71.2378 216.952 72.0562 217.089 73.1212C217.217 74.1212 216.717 75.1067 215.643 75.9708C213.301 77.8546 208.257 79.0613 204.876 78.6118C204.51 82.5446 201.94 85.0102 197.588 85.5776C197.564 85.5807 197.539 85.5822 197.515 85.5822ZM206.158 71.6043C202.381 74.9595 199.707 79.3092 198.203 84.5408C201.777 83.8345 203.737 81.6018 203.887 78.0453C203.89 77.9776 203.909 77.9113 203.944 77.8511C203.979 77.7909 204.028 77.7383 204.088 77.6971C204.147 77.6559 204.217 77.627 204.29 77.6126C204.364 77.5982 204.44 77.5986 204.514 77.6137C207.547 78.2373 212.72 77.0838 214.959 75.2836C215.786 74.6182 216.16 73.9261 216.07 73.2263C215.971 72.4565 215.547 71.8875 214.774 71.4872C212.456 70.287 207.776 71.0111 206.158 71.6043Z" fill="#1A1A1A"/>
<path d="M199.951 88.4356C200.617 87.4191 199.837 85.8973 198.209 85.0365C196.582 84.1757 194.722 84.302 194.056 85.3185C193.39 86.3349 194.17 87.8568 195.798 88.7175C197.425 89.5783 199.285 89.4521 199.951 88.4356Z" fill="#B6E0FF"/>
<path d="M198.002 86.7621C197.859 86.7621 197.716 86.7081 197.614 86.6024C197.466 86.4485 196.803 86.0977 196.189 86.121C195.89 86.1318 195.666 86.2322 195.506 86.4285C195.466 86.4777 195.416 86.5194 195.358 86.5511C195.3 86.5828 195.236 86.6039 195.17 86.6133C195.103 86.6227 195.034 86.62 194.969 86.6056C194.903 86.5912 194.841 86.5652 194.787 86.5293C194.732 86.4933 194.686 86.4479 194.651 86.3959C194.616 86.3439 194.593 86.2861 194.583 86.226C194.573 86.1659 194.577 86.1046 194.593 86.0457C194.61 85.9868 194.639 85.9313 194.679 85.8826C195.027 85.4578 195.535 85.2218 196.149 85.2C197.078 85.169 198.048 85.6433 198.39 86C198.454 86.0668 198.496 86.1487 198.51 86.2361C198.524 86.3235 198.51 86.4126 198.469 86.4929C198.428 86.5732 198.362 86.6412 198.28 86.689C198.197 86.7367 198.101 86.7621 198.002 86.7621Z" fill="#1A1A1A"/>
<path d="M197.219 88.2438C197.11 88.2437 197.003 88.2123 196.915 88.1541C196.827 88.0959 196.762 88.014 196.73 87.9203L196.017 85.8725C195.996 85.8144 195.988 85.7532 195.993 85.6922C195.998 85.6313 196.017 85.5719 196.048 85.5176C196.079 85.4632 196.122 85.4149 196.174 85.3756C196.226 85.3362 196.286 85.3066 196.351 85.2883C196.416 85.2701 196.485 85.2636 196.552 85.2694C196.62 85.2751 196.686 85.2928 196.746 85.3216C196.806 85.3504 196.859 85.3896 196.902 85.437C196.945 85.4844 196.977 85.5389 196.996 85.5976L197.709 87.6453C197.733 87.7144 197.738 87.7875 197.725 87.8588C197.712 87.9301 197.68 87.9976 197.633 88.0559C197.585 88.1142 197.523 88.1615 197.451 88.1942C197.379 88.2268 197.3 88.2438 197.219 88.2438Z" fill="#1A1A1A"/>
<path d="M197.375 89.9653C197.352 89.9653 197.33 89.9641 197.307 89.9613C196.541 89.8707 195.901 89.5985 195.5 89.3859C194.532 88.8741 193.773 88.1513 193.363 87.3504C192.924 86.493 192.928 85.6452 193.375 84.9626C194.26 83.6115 196.654 83.3968 198.711 84.4849C198.77 84.5152 198.821 84.5557 198.863 84.604C198.904 84.6524 198.934 84.7076 198.952 84.7666C198.969 84.8255 198.973 84.887 198.964 84.9474C198.955 85.0078 198.932 85.066 198.898 85.1185C198.864 85.1711 198.818 85.2169 198.764 85.2535C198.709 85.2901 198.647 85.3166 198.582 85.3315C198.516 85.3464 198.447 85.3495 198.38 85.3404C198.313 85.3314 198.249 85.3105 198.191 85.279C196.648 84.4634 194.847 84.5322 194.259 85.4301C193.987 85.8448 194 86.3901 194.295 86.9652C194.618 87.5968 195.231 88.1746 196.02 88.5918C196.34 88.7608 196.846 88.9774 197.441 89.0474C197.57 89.0622 197.688 89.1208 197.772 89.2112C197.855 89.3017 197.896 89.4172 197.888 89.5342C197.879 89.6512 197.822 89.761 197.726 89.8411C197.631 89.9212 197.505 89.9656 197.375 89.9653Z" fill="#1A1A1A"/>
<path d="M172.979 153.766C171.078 150.351 174.707 144.298 169.823 142.901C164.939 141.504 168.66 138.865 173.325 135.295C177.307 132.248 174.489 131.237 170.652 130.849C168.726 135.12 166.275 138.394 163.736 139.952C161.866 141.1 164.711 152.442 173.695 159.388C176.355 161.445 179.973 163.754 184.203 165.801C182.893 161.534 174.71 156.878 172.979 153.766Z" fill="#B6E0FF"/>
<path d="M206.94 171.971C201.745 171.971 196.275 170.971 190.599 168.977C184.443 166.816 178.16 163.448 173.36 159.737C165.489 153.651 162.484 144.572 162.688 141.284C162.741 140.424 162.997 139.847 163.447 139.571C166.857 137.479 170.197 131.991 172.165 125.25C172.181 125.19 172.21 125.134 172.25 125.084C172.29 125.034 172.341 124.993 172.4 124.961C172.459 124.929 172.524 124.909 172.591 124.9C172.659 124.891 172.728 124.895 172.794 124.91C172.86 124.926 172.922 124.953 172.977 124.991C173.031 125.028 173.076 125.075 173.11 125.128C173.144 125.182 173.165 125.241 173.173 125.302C173.181 125.363 173.176 125.424 173.157 125.483C171.099 132.536 167.685 138.087 164.025 140.332C163.998 140.349 163.763 140.516 163.712 141.335C163.518 144.47 166.425 153.159 174.03 159.038C188.511 170.235 204.48 172.171 213.755 170.426C213.889 170.401 214.027 170.424 214.141 170.491C214.255 170.558 214.335 170.663 214.363 170.783C214.391 170.902 214.364 171.027 214.29 171.129C214.215 171.232 214.099 171.303 213.966 171.328C211.687 171.757 209.343 171.971 206.94 171.971ZM193.282 105.684C193.247 105.684 193.212 105.681 193.177 105.674C190.07 105.095 179.206 102.741 169.893 96.7775C164.568 93.3682 160.616 89.3346 158.147 84.7896C155.131 79.2385 154.314 72.8859 155.719 65.9091C160.335 42.9892 167.872 34.4631 170.71 31.2532C170.923 31.0124 171.107 30.8044 171.258 30.625C171.298 30.5749 171.348 30.5324 171.407 30.5002C171.465 30.4679 171.53 30.4465 171.598 30.4372C171.666 30.4279 171.735 30.4309 171.801 30.4461C171.868 30.4612 171.93 30.4882 171.985 30.5253C172.039 30.5625 172.085 30.6092 172.12 30.6625C172.154 30.7159 172.176 30.7749 172.184 30.836C172.193 30.8971 172.187 30.9592 172.169 31.0184C172.15 31.0777 172.118 31.133 172.075 31.181C171.92 31.3653 171.731 31.5788 171.513 31.8261C168.719 34.9863 161.299 43.3809 156.728 66.0728C154.225 78.5 158.855 88.578 170.488 96.0267C179.639 101.886 190.328 104.201 193.386 104.771C193.519 104.796 193.636 104.867 193.71 104.969C193.785 105.072 193.811 105.196 193.784 105.316C193.76 105.42 193.697 105.513 193.606 105.58C193.514 105.647 193.4 105.684 193.282 105.684ZM206.794 105.466C206.937 103.94 205.62 101.448 203.741 100.303C202.559 99.5828 201.938 98.9835 202.257 98.1903C203.329 99.1303 206.309 100.748 207.2 100.919C207.055 102.749 206.794 105.466 206.794 105.466Z" fill="#1A1A1A"/>
<path d="M206.795 105.927C206.724 105.927 206.654 105.913 206.589 105.888C206.524 105.862 206.465 105.825 206.417 105.778C206.369 105.731 206.332 105.676 206.309 105.615C206.286 105.555 206.278 105.491 206.284 105.427C206.407 104.107 205.198 101.747 203.454 100.684C202.683 100.215 201.249 99.3414 201.775 98.0343C201.804 97.9617 201.853 97.897 201.917 97.8458C201.981 97.7947 202.058 97.7588 202.142 97.7416C202.226 97.7243 202.313 97.7262 202.395 97.747C202.478 97.7678 202.554 97.8069 202.615 97.8607C203.642 98.7614 206.53 100.319 207.307 100.468C207.428 100.491 207.535 100.553 207.61 100.642C207.684 100.731 207.72 100.841 207.711 100.951C207.568 102.765 207.308 105.479 207.306 105.506C207.294 105.62 207.236 105.727 207.141 105.805C207.047 105.883 206.923 105.926 206.795 105.927ZM204.389 100.159C205.296 100.807 206.033 101.707 206.54 102.636C206.582 102.166 206.623 101.687 206.659 101.244C206.073 101.036 205.227 100.626 204.389 100.159Z" fill="#1A1A1A"/>
</g>
<g clip-path="url(#clip4_233_971)">
<path d="M41.5806 116.716C50.8037 113.112 59.5984 111.221 72.2957 113.706C81.2311 115.455 91.6289 119.444 107.447 128.147C126.958 138.883 156.057 147.666 180.161 148.542C199.342 149.239 218.284 148.688 225.353 143.663C225.215 145.276 224.777 147.366 223.808 149.329C217.961 153.09 201.665 153.947 182.433 153.372C166.048 152.882 146.662 148.949 135.832 145.663C109.61 137.707 96.5499 127.128 76.3864 120.233C67.9141 117.335 56.8617 115.917 44.2634 121.588C43.4372 120.155 42.3965 118.152 41.5806 116.716Z" fill="#1A1A1A"/>
<path d="M192.671 154C189.474 154 186.056 153.946 182.416 153.837C166.209 153.352 146.823 149.489 135.668 146.105C120.944 141.637 110.48 136.406 100.362 131.348C92.4851 127.411 85.0453 123.691 76.2051 120.668C65.214 116.91 54.8406 117.347 44.4921 122.005C44.3717 122.059 44.2325 122.069 44.1046 122.031C43.9766 121.993 43.87 121.912 43.8077 121.804C43.3662 121.037 42.8599 120.103 42.37 119.198C41.9443 118.412 41.5041 117.599 41.1235 116.93C41.0911 116.873 41.072 116.811 41.0673 116.748C41.0626 116.684 41.0725 116.62 41.0963 116.56C41.12 116.5 41.1573 116.445 41.2056 116.399C41.2539 116.352 41.3122 116.315 41.377 116.29C50.6998 112.646 59.5441 110.735 72.4042 113.252C82.0206 115.133 92.9106 119.605 107.714 127.75C128.309 139.082 157.432 147.251 180.182 148.077C204.591 148.963 219.263 147.4 225.036 143.297C225.114 143.241 225.209 143.207 225.309 143.199C225.408 143.191 225.508 143.21 225.596 143.252C225.684 143.295 225.756 143.36 225.804 143.439C225.852 143.518 225.873 143.608 225.866 143.699C225.765 144.875 225.424 147.196 224.278 149.518C224.24 149.594 224.181 149.66 224.106 149.708C219.67 152.562 209.114 154 192.671 154ZM61.8197 117.254C66.6839 117.254 71.6088 118.102 76.5679 119.798C85.4769 122.845 92.9483 126.579 100.858 130.533C110.937 135.572 121.358 140.781 135.994 145.222C147.08 148.586 166.346 152.425 182.449 152.907C204.421 153.563 218.195 152.256 223.396 149.022C224.172 147.41 224.542 145.804 224.719 144.639C218.202 148.429 203.586 149.858 180.14 149.007C157.232 148.175 127.911 139.952 107.18 128.545C92.479 120.456 81.6869 116.02 72.187 114.161C59.8257 111.742 51.2455 113.503 42.2875 116.948C42.6081 117.523 42.9548 118.164 43.2929 118.788C43.6964 119.533 44.1109 120.299 44.4891 120.97C50.1449 118.494 55.9381 117.254 61.8197 117.254Z" fill="#1A1A1A"/>
</g>
<g clip-path="url(#clip5_233_971)">
<path d="M110.739 213.817H16.9438C16.8067 213.817 16.6752 213.767 16.5782 213.678C16.4812 213.589 16.4268 213.469 16.4268 213.343C16.4268 213.217 16.4812 213.097 16.5782 213.008C16.6752 212.919 16.8067 212.869 16.9438 212.869H110.739C110.876 212.869 111.007 212.919 111.104 213.008C111.201 213.097 111.256 213.217 111.256 213.343C111.256 213.469 111.201 213.589 111.104 213.678C111.007 213.767 110.876 213.817 110.739 213.817ZM138.083 219.912H93.7563C93.6191 219.912 93.4876 219.862 93.3906 219.773C93.2937 219.684 93.2392 219.564 93.2392 219.438C93.2392 219.313 93.2937 219.192 93.3906 219.103C93.4876 219.014 93.6191 218.965 93.7563 218.965H138.083C138.151 218.965 138.218 218.977 138.281 219.001C138.343 219.024 138.4 219.059 138.448 219.103C138.496 219.147 138.534 219.199 138.56 219.257C138.587 219.314 138.6 219.376 138.6 219.438C138.6 219.5 138.587 219.562 138.561 219.619C138.535 219.677 138.497 219.729 138.449 219.773C138.401 219.817 138.344 219.852 138.281 219.876C138.218 219.9 138.151 219.912 138.083 219.912ZM114.306 206.075H83.9371C83.7999 206.075 83.6684 206.025 83.5714 205.937C83.4745 205.848 83.42 205.727 83.42 205.602C83.42 205.476 83.4745 205.356 83.5714 205.267C83.6684 205.178 83.7999 205.128 83.9371 205.128H114.306C114.444 205.128 114.575 205.178 114.672 205.267C114.769 205.356 114.824 205.476 114.824 205.602C114.824 205.727 114.769 205.848 114.672 205.937C114.575 206.025 114.444 206.075 114.306 206.075Z" fill="#1A1A1A"/>
</g>
<g clip-path="url(#clip6_233_971)">
<path d="M76.046 77.308H40.2176C40.0797 77.308 39.9475 77.2578 39.85 77.1684C39.7525 77.079 39.6978 76.9577 39.6978 76.8313C39.6978 76.7048 39.7525 76.5836 39.85 76.4942C39.9475 76.4048 40.0797 76.3546 40.2176 76.3546H76.046C76.1838 76.3546 76.316 76.4048 76.4135 76.4942C76.511 76.5836 76.5658 76.7048 76.5658 76.8313C76.5658 76.9577 76.511 77.079 76.4135 77.1684C76.316 77.2578 76.1838 77.308 76.046 77.308ZM93.2491 77.308H84.582C84.4441 77.308 84.3119 77.2578 84.2144 77.1684C84.117 77.079 84.0622 76.9577 84.0622 76.8313C84.0622 76.7048 84.117 76.5836 84.2144 76.4942C84.3119 76.4048 84.4441 76.3546 84.582 76.3546H93.2491C93.3869 76.3546 93.5191 76.4048 93.6166 76.4942C93.7141 76.5836 93.7689 76.7048 93.7689 76.8313C93.7689 76.9577 93.7141 77.079 93.6166 77.1684C93.5191 77.2578 93.3869 77.308 93.2491 77.308ZM79.7228 58.5494H60.4186C60.2807 58.5494 60.1485 58.4992 60.051 58.4098C59.9536 58.3204 59.8988 58.1991 59.8988 58.0727C59.8988 57.9463 59.9536 57.825 60.051 57.7356C60.1485 57.6462 60.2807 57.596 60.4186 57.596H79.7228C79.8606 57.596 79.9929 57.6462 80.0903 57.7356C80.1878 57.825 80.2426 57.9463 80.2426 58.0727C80.2426 58.1991 80.1878 58.3204 80.0903 58.4098C79.9929 58.4992 79.8606 58.5494 79.7228 58.5494Z" fill="#1A1A1A"/>
</g>
<g clip-path="url(#clip7_233_971)">
<mask id="mask0_233_971" style="mask-type:luminance" maskUnits="userSpaceOnUse" x="36" y="300" width="151" height="2">
<path d="M36.6177 300.608H186.754V301.532H36.6177V300.608Z" fill="white"/>
</mask>
<g mask="url(#mask0_233_971)">
<path d="M62.1032 301.532H37.1135C36.816 301.532 36.6177 301.347 36.6177 301.07C36.6177 300.793 36.816 300.608 37.1135 300.608H62.1032C62.4007 300.608 62.599 300.793 62.599 301.07C62.599 301.347 62.3511 301.532 62.1032 301.532ZM130.676 301.532H90.2166C89.9191 301.532 89.7207 301.347 89.7207 301.07C89.7207 300.793 89.9191 300.608 90.2166 300.608H130.676C130.974 300.608 131.172 300.793 131.172 301.07C131.172 301.347 130.924 301.532 130.676 301.532ZM176.044 301.532H160.178C159.88 301.532 159.682 301.347 159.682 301.07C159.682 300.793 159.88 300.608 160.178 300.608H176.044C176.342 300.608 176.54 300.793 176.54 301.07C176.54 301.347 176.292 301.532 176.044 301.532ZM186.258 301.532H181.3C181.002 301.532 180.804 301.347 180.804 301.07C180.804 300.793 181.002 300.608 181.3 300.608H186.258C186.556 300.608 186.754 300.793 186.754 301.07C186.754 301.347 186.506 301.532 186.258 301.532Z" fill="#1A1A1A"/>
</g>
</g>
<defs>
<clipPath id="clip0_233_971">
<rect width="247.632" height="278.227" fill="white" transform="matrix(0 -1 -1 0 293.113 253.33)"/>
</clipPath>
<clipPath id="clip1_233_971">
<rect width="148.867" height="59.136" fill="white" transform="translate(77 89.628)"/>
</clipPath>
<clipPath id="clip2_233_971">
<rect width="222.444" height="183.568" fill="white" transform="translate(50.6489 13.244)"/>
</clipPath>
<clipPath id="clip3_233_971">
<rect width="167.004" height="294.448" fill="white" transform="translate(85.2134 6.468)"/>
</clipPath>
<clipPath id="clip4_233_971">
<rect width="184.8" height="41.888" fill="white" transform="translate(41.0667 112.112)"/>
</clipPath>
<clipPath id="clip5_233_971">
<rect width="122.173" height="14.784" fill="white" transform="translate(16.4268 205.128)"/>
</clipPath>
<clipPath id="clip6_233_971">
<rect width="54.0711" height="19.712" fill="white" transform="translate(39.6978 57.596)"/>
</clipPath>
<clipPath id="clip7_233_971">
<rect width="150.236" height="0.924" fill="white" transform="translate(36.6177 300.608)"/>
</clipPath>
</defs>
</svg>
