<svg width="18" height="18" viewBox="0 0 18 18" fill="none" xmlns="http://www.w3.org/2000/svg">
<path d="M8.37817 1.50146C7.70359 1.5147 7.11587 2.08186 7.12573 2.78759L7.17041 6.09082L5.15918 5.42211L4.66113 3.85254C4.5311 3.44358 4.20012 3.12621 3.78516 3.01464H3.78442C3.07533 2.82463 2.33754 3.29696 2.21265 4.02026L1.91235 5.76489C1.69899 7.00477 2.42924 8.22377 3.62329 8.61987L13.8149 12.0015C14.7294 12.305 15.7326 11.8021 16.0356 10.8874H16.0349C16.3384 9.97329 15.8363 8.97103 14.9224 8.66748L11.4749 7.52197L9.58813 2.33569C9.44027 1.92907 9.093 1.6248 8.67114 1.53076C8.57272 1.50882 8.47454 1.49957 8.37817 1.50146ZM8.35474 2.62719C8.37629 2.62319 8.40042 2.62358 8.42651 2.62939C8.47566 2.64035 8.51338 2.67308 8.53052 2.72021V2.72094L10.511 8.1621C10.5401 8.24183 10.5868 8.31394 10.6477 8.37305C10.7085 8.43215 10.782 8.47672 10.8625 8.50341L14.5679 9.73535C14.9049 9.84729 15.0798 10.1954 14.9678 10.533V10.5337C14.8561 10.8708 14.5068 11.0456 14.1694 10.9336L3.97778 7.552C3.30434 7.3286 2.90085 6.65494 3.02124 5.95532L3.32153 4.21142C3.33685 4.12272 3.4065 4.07835 3.49292 4.10156C3.53891 4.1139 3.57421 4.14702 3.58887 4.19311L4.17334 6.03515C4.20016 6.11986 4.24667 6.19701 4.30905 6.26028C4.37143 6.32355 4.44791 6.37114 4.53223 6.39917L7.56665 7.40771C7.65178 7.43597 7.74244 7.44347 7.83106 7.42957C7.91968 7.41567 8.00368 7.38078 8.07608 7.32781C8.14847 7.27484 8.20714 7.20533 8.24721 7.12507C8.28728 7.04482 8.30757 6.95614 8.3064 6.86645L8.25 2.77221C8.24888 2.69256 8.29006 2.6392 8.35474 2.62719ZM2.8125 14.25C2.73796 14.2489 2.66396 14.2627 2.59479 14.2905C2.52562 14.3183 2.46266 14.3596 2.40958 14.4119C2.3565 14.4642 2.31435 14.5266 2.28558 14.5954C2.2568 14.6641 2.24199 14.738 2.24199 14.8125C2.24199 14.887 2.2568 14.9608 2.28558 15.0296C2.31435 15.0984 2.3565 15.1607 2.40958 15.2131C2.46266 15.2654 2.52562 15.3067 2.59479 15.3345C2.66396 15.3623 2.73796 15.376 2.8125 15.375H15.1875C15.262 15.376 15.336 15.3623 15.4052 15.3345C15.4744 15.3067 15.5373 15.2654 15.5904 15.2131C15.6435 15.1607 15.6857 15.0984 15.7144 15.0296C15.7432 14.9608 15.758 14.887 15.758 14.8125C15.758 14.738 15.7432 14.6641 15.7144 14.5954C15.6857 14.5266 15.6435 14.4642 15.5904 14.4119C15.5373 14.3596 15.4744 14.3183 15.4052 14.2905C15.336 14.2627 15.262 14.2489 15.1875 14.25H2.8125Z" fill="white"/>
</svg>
