<svg width="18" height="18" viewBox="0 0 18 18" fill="none" xmlns="http://www.w3.org/2000/svg">
<path d="M4.99365 2.25083C4.78531 2.25345 4.5774 2.30761 4.39087 2.4127C3.69403 2.80546 3.54224 3.7774 4.08545 4.3646L6.46289 6.93394L4.78198 7.66856L3.38672 6.84971C3.01886 6.63348 2.56426 6.61999 2.18408 6.81382C1.53537 7.14428 1.30546 7.98146 1.69336 8.59727L2.6228 10.0731C3.28575 11.1253 4.62874 11.5368 5.76782 11.0384L15.4578 6.79771H15.4585C16.3318 6.41524 16.7361 5.3811 16.3535 4.50742C15.9714 3.6343 14.9383 3.22965 14.0647 3.61167L10.6707 5.09483L5.60083 2.39805H5.6001C5.41084 2.29747 5.20176 2.24822 4.99365 2.25083ZM5.00757 3.3751C5.02954 3.37488 5.05147 3.38027 5.07202 3.39121L10.3828 6.21543C10.4577 6.25527 10.5405 6.27767 10.6253 6.28097C10.71 6.28427 10.7944 6.26837 10.8721 6.23447L14.5151 4.64219C14.8318 4.50371 15.1846 4.64222 15.323 4.9586C15.4616 5.27517 15.3235 5.62841 15.0066 5.76719L5.31665 10.0079C4.67974 10.2866 3.94477 10.0613 3.57422 9.47324L2.64478 7.99815C2.60004 7.92712 2.61995 7.85448 2.69458 7.8165L2.69531 7.81577C2.73438 7.79585 2.779 7.79715 2.8169 7.81943V7.82017L4.45972 8.78403C4.53629 8.8289 4.6224 8.855 4.711 8.86022C4.79959 8.86544 4.88817 8.84962 4.96948 8.81406L7.63843 7.64805C7.7206 7.61208 7.79298 7.55698 7.84952 7.48735C7.90607 7.41772 7.94515 7.33558 7.9635 7.24778C7.98185 7.15998 7.97894 7.06906 7.955 6.98262C7.93107 6.89617 7.88682 6.8167 7.82593 6.75083L4.91089 3.60068C4.84285 3.52714 4.8562 3.44166 4.94312 3.39268C4.96359 3.38114 4.9856 3.37532 5.00757 3.3751ZM2.8125 14.2501C2.73796 14.249 2.66396 14.2628 2.59479 14.2906C2.52562 14.3184 2.46266 14.3597 2.40958 14.412C2.3565 14.4643 2.31435 14.5267 2.28558 14.5955C2.2568 14.6643 2.24199 14.7381 2.24199 14.8126C2.24199 14.8871 2.2568 14.9609 2.28558 15.0297C2.31435 15.0985 2.3565 15.1609 2.40958 15.2132C2.46266 15.2655 2.52562 15.3068 2.59479 15.3346C2.66396 15.3624 2.73796 15.3762 2.8125 15.3751H15.1875C15.262 15.3762 15.336 15.3624 15.4052 15.3346C15.4744 15.3068 15.5373 15.2655 15.5904 15.2132C15.6435 15.1609 15.6857 15.0985 15.7144 15.0297C15.7432 14.9609 15.758 14.8871 15.758 14.8126C15.758 14.7381 15.7432 14.6643 15.7144 14.5955C15.6857 14.5267 15.6435 14.4643 15.5904 14.412C15.5373 14.3597 15.4744 14.3184 15.4052 14.2906C15.336 14.2628 15.262 14.249 15.1875 14.2501H2.8125Z" fill="white"/>
</svg>
