<svg width="32" height="32" viewBox="0 0 32 32" fill="none" xmlns="http://www.w3.org/2000/svg">
<path d="M5.00001 6.66663C2.98683 6.66663 1.33334 8.32011 1.33334 10.3333V21.6666C1.33334 23.6798 2.98683 25.3333 5.00001 25.3333H15.6667C16.7232 25.3333 17.662 24.8631 18.3333 24.1393C19.0047 24.8631 19.9435 25.3333 21 25.3333H27C29.0132 25.3333 30.6667 23.6798 30.6667 21.6666V10.3333C30.6667 8.32011 29.0132 6.66663 27 6.66663H21C19.9435 6.66663 19.0047 7.1368 18.3333 7.86064C17.662 7.1368 16.7232 6.66663 15.6667 6.66663H5.00001ZM5.00001 8.66663H15.6667C16.5988 8.66663 17.3333 9.40114 17.3333 10.3333C17.333 10.3668 17.3343 10.4002 17.3372 10.4336C17.3399 10.4667 17.3443 10.4998 17.3503 10.5325C17.3565 10.565 17.3643 10.5972 17.3737 10.6289C17.383 10.6611 17.3938 10.6928 17.4063 10.7239C17.419 10.755 17.4334 10.7854 17.4492 10.8151C17.4805 10.8737 17.5176 10.9291 17.5599 10.9804C17.6446 11.084 17.7492 11.1695 17.8675 11.2319C17.9858 11.2943 18.1154 11.3323 18.2487 11.3437C18.315 11.3495 18.3818 11.3486 18.4479 11.3411C18.5808 11.3255 18.7092 11.2835 18.8255 11.2174C18.8546 11.201 18.8829 11.1832 18.9102 11.164C18.9376 11.145 18.9642 11.1245 18.9896 11.1028C19.0146 11.081 19.0385 11.058 19.0612 11.0338C19.0842 11.0093 19.1059 10.9837 19.1263 10.957C19.1463 10.9306 19.165 10.9032 19.1823 10.875C19.2354 10.7898 19.2753 10.6972 19.3008 10.6002C19.3094 10.568 19.3163 10.5354 19.3216 10.5026C19.3267 10.4698 19.3302 10.4367 19.332 10.4036C19.3333 10.3802 19.3337 10.3567 19.3333 10.3333C19.3333 9.40114 20.0679 8.66663 21 8.66663H27C27.9322 8.66663 28.6667 9.40114 28.6667 10.3333V21.6666C28.6667 22.5988 27.9322 23.3333 27 23.3333H21C20.0679 23.3333 19.3333 22.5988 19.3333 21.6666C19.3337 21.6332 19.3324 21.5997 19.3294 21.5664C19.3267 21.5332 19.3224 21.5002 19.3164 21.4674C19.3042 21.4019 19.2854 21.3378 19.2604 21.276C19.2352 21.214 19.2038 21.1547 19.1667 21.0989C19.1113 21.0155 19.0437 20.9409 18.9662 20.8776C18.9402 20.8567 18.9133 20.8371 18.8854 20.819C18.8576 20.8006 18.829 20.7837 18.7995 20.7682C18.7698 20.7523 18.7394 20.738 18.7083 20.7252C18.6156 20.6878 18.5177 20.6646 18.418 20.6562C18.2847 20.6449 18.1506 20.6604 18.0234 20.7018C17.9916 20.7119 17.9603 20.7237 17.9297 20.7369C17.8688 20.7641 17.8108 20.7972 17.7565 20.8359C17.5918 20.9522 17.4661 21.1156 17.3958 21.3046C17.3843 21.3358 17.3743 21.3675 17.3659 21.3997C17.349 21.464 17.3385 21.5299 17.3346 21.5963C17.3334 21.6197 17.333 21.6432 17.3333 21.6666C17.3333 22.5988 16.5988 23.3333 15.6667 23.3333H5.00001C4.06786 23.3333 3.33334 22.5988 3.33334 21.6666V10.3333C3.33334 9.40114 4.06786 8.66663 5.00001 8.66663ZM22.6667 10.6666C21.93 10.6666 21.3333 11.2633 21.3333 12V13.3333C21.3333 14.07 21.93 14.6666 22.6667 14.6666H25.3333C26.07 14.6666 26.6667 14.07 26.6667 13.3333V12C26.6667 11.2633 26.07 10.6666 25.3333 10.6666H22.6667ZM6.33334 11.3333C6.20083 11.3314 6.06927 11.3559 5.9463 11.4053C5.82333 11.4547 5.71141 11.5281 5.61704 11.6211C5.52267 11.7142 5.44774 11.825 5.39659 11.9473C5.34544 12.0696 5.3191 12.2008 5.3191 12.3333C5.3191 12.4658 5.34544 12.597 5.39659 12.7193C5.44774 12.8415 5.52267 12.9524 5.61704 13.0455C5.71141 13.1385 5.82333 13.2119 5.9463 13.2613C6.06927 13.3107 6.20083 13.3352 6.33334 13.3333H14.3333C14.4659 13.3352 14.5974 13.3107 14.7204 13.2613C14.8434 13.2119 14.9553 13.1385 15.0496 13.0455C15.144 12.9524 15.219 12.8415 15.2701 12.7193C15.3212 12.597 15.3476 12.4658 15.3476 12.3333C15.3476 12.2008 15.3212 12.0696 15.2701 11.9473C15.219 11.825 15.144 11.7142 15.0496 11.6211C14.9553 11.5281 14.8434 11.4547 14.7204 11.4053C14.5974 11.3559 14.4659 11.3314 14.3333 11.3333H6.33334ZM18.3177 12.6523C18.0527 12.6564 17.8002 12.7656 17.6156 12.9558C17.4311 13.146 17.3295 13.4016 17.3333 13.6666V14.3333C17.3315 14.4658 17.356 14.5974 17.4054 14.7203C17.4548 14.8433 17.5281 14.9552 17.6212 15.0496C17.7142 15.144 17.8251 15.2189 17.9474 15.27C18.0696 15.3212 18.2008 15.3475 18.3333 15.3475C18.4659 15.3475 18.5971 15.3212 18.7193 15.27C18.8416 15.2189 18.9525 15.144 19.0455 15.0496C19.1385 14.9552 19.2119 14.8433 19.2613 14.7203C19.3107 14.5974 19.3352 14.4658 19.3333 14.3333V13.6666C19.3353 13.5328 19.3103 13.3999 19.2599 13.2759C19.2095 13.1519 19.1348 13.0392 19.0401 12.9446C18.9454 12.8501 18.8326 12.7754 18.7085 12.7252C18.5845 12.675 18.4516 12.6502 18.3177 12.6523ZM6.33334 15.3333C6.20083 15.3314 6.06927 15.3559 5.9463 15.4053C5.82333 15.4547 5.71141 15.5281 5.61704 15.6211C5.52267 15.7142 5.44774 15.825 5.39659 15.9473C5.34544 16.0696 5.3191 16.2008 5.3191 16.3333C5.3191 16.4658 5.34544 16.597 5.39659 16.7193C5.44774 16.8415 5.52267 16.9524 5.61704 17.0455C5.71141 17.1385 5.82333 17.2119 5.9463 17.2613C6.06927 17.3107 6.20083 17.3352 6.33334 17.3333H12.3333C12.4659 17.3352 12.5974 17.3107 12.7204 17.2613C12.8434 17.2119 12.9553 17.1385 13.0496 17.0455C13.144 16.9524 13.219 16.8415 13.2701 16.7193C13.3212 16.597 13.3476 16.4658 13.3476 16.3333C13.3476 16.2008 13.3212 16.0696 13.2701 15.9473C13.219 15.825 13.144 15.7142 13.0496 15.6211C12.9553 15.5281 12.8434 15.4547 12.7204 15.4053C12.5974 15.3559 12.4659 15.3314 12.3333 15.3333H6.33334ZM22.3333 16C22.2008 15.9981 22.0693 16.0226 21.9463 16.072C21.8233 16.1214 21.7114 16.1948 21.617 16.2878C21.5227 16.3808 21.4477 16.4917 21.3966 16.614C21.3454 16.7362 21.3191 16.8674 21.3191 17C21.3191 17.1325 21.3454 17.2637 21.3966 17.3859C21.4477 17.5082 21.5227 17.6191 21.617 17.7121C21.7114 17.8052 21.8233 17.8785 21.9463 17.9279C22.0693 17.9774 22.2008 18.0018 22.3333 18H25.6667C25.7992 18.0018 25.9308 17.9774 26.0537 17.9279C26.1767 17.8785 26.2886 17.8052 26.383 17.7121C26.4773 17.6191 26.5523 17.5082 26.6034 17.3859C26.6546 17.2637 26.6809 17.1325 26.6809 17C26.6809 16.8674 26.6546 16.7362 26.6034 16.614C26.5523 16.4917 26.4773 16.3808 26.383 16.2878C26.2886 16.1948 26.1767 16.1214 26.0537 16.072C25.9308 16.0226 25.7992 15.9981 25.6667 16H22.3333ZM18.3177 16.6523C18.0527 16.6564 17.8002 16.7656 17.6156 16.9558C17.4311 17.146 17.3295 17.4016 17.3333 17.6666V18.3333C17.3315 18.4658 17.356 18.5974 17.4054 18.7203C17.4548 18.8433 17.5281 18.9552 17.6212 19.0496C17.7142 19.144 17.8251 19.2189 17.9474 19.27C18.0696 19.3212 18.2008 19.3475 18.3333 19.3475C18.4659 19.3475 18.5971 19.3212 18.7193 19.27C18.8416 19.2189 18.9525 19.144 19.0455 19.0496C19.1385 18.9552 19.2119 18.8433 19.2613 18.7203C19.3107 18.5974 19.3352 18.4658 19.3333 18.3333V17.6666C19.3353 17.5328 19.3103 17.3999 19.2599 17.2759C19.2095 17.1519 19.1348 17.0392 19.0401 16.9446C18.9454 16.8501 18.8326 16.7754 18.7085 16.7252C18.5845 16.675 18.4516 16.6502 18.3177 16.6523ZM22.3333 19.3333C22.2008 19.3314 22.0693 19.3559 21.9463 19.4053C21.8233 19.4547 21.7114 19.5281 21.617 19.6211C21.5227 19.7142 21.4477 19.825 21.3966 19.9473C21.3454 20.0696 21.3191 20.2008 21.3191 20.3333C21.3191 20.4658 21.3454 20.597 21.3966 20.7193C21.4477 20.8415 21.5227 20.9524 21.617 21.0455C21.7114 21.1385 21.8233 21.2119 21.9463 21.2613C22.0693 21.3107 22.2008 21.3352 22.3333 21.3333H25.6667C25.7992 21.3352 25.9308 21.3107 26.0537 21.2613C26.1767 21.2119 26.2886 21.1385 26.383 21.0455C26.4773 20.9524 26.5523 20.8415 26.6034 20.7193C26.6546 20.597 26.6809 20.4658 26.6809 20.3333C26.6809 20.2008 26.6546 20.0696 26.6034 19.9473C26.5523 19.825 26.4773 19.7142 26.383 19.6211C26.2886 19.5281 26.1767 19.4547 26.0537 19.4053C25.9308 19.3559 25.7992 19.3314 25.6667 19.3333H22.3333Z" fill="#9CA3AF"/>
</svg>
