<svg width="32" height="32" viewBox="0 0 32 32" fill="none" xmlns="http://www.w3.org/2000/svg">
<path d="M30.6667 10.3333V21.6666C30.6667 23.688 29.022 25.3333 27 25.3333H21C19.9487 25.3333 19.0013 24.886 18.332 24.174C17.664 24.886 16.718 25.3333 15.6667 25.3333H5.00001C2.97801 25.3333 1.33334 23.688 1.33334 21.6666V10.3333C1.33334 8.31196 2.97801 6.66663 5.00001 6.66663H15.6667C16.718 6.66663 17.664 7.11396 18.332 7.82596C19.0013 7.11396 19.9487 6.66663 21 6.66663H27C29.022 6.66663 30.6667 8.31196 30.6667 10.3333ZM27.3333 17.6666C27.3333 17.1146 26.886 16.6666 26.3333 16.6666H23C22.4473 16.6666 22 17.1146 22 17.6666C22 18.2186 22.4473 18.6666 23 18.6666H26.3333C26.886 18.6666 27.3333 18.2186 27.3333 17.6666ZM14 11C14 10.448 13.5527 9.99996 13 9.99996H5.66668C5.11401 9.99996 4.66668 10.448 4.66668 11C4.66668 11.552 5.11401 12 5.66668 12H13C13.5527 12 14 11.552 14 11ZM12 15C12 14.448 11.5527 14 11 14H5.66668C5.11401 14 4.66668 14.448 4.66668 15C4.66668 15.552 5.11401 16 5.66668 16H11C11.5527 16 12 15.552 12 15ZM27.3333 21C27.3333 20.448 26.886 20 26.3333 20H23C22.4473 20 22 20.448 22 21C22 21.552 22.4473 22 23 22H26.3333C26.886 22 27.3333 21.552 27.3333 21ZM19.3333 11.6666V11C19.3333 10.448 18.886 9.99996 18.3333 9.99996C17.7807 9.99996 17.3333 10.448 17.3333 11V11.6666C17.3333 12.2186 17.7807 12.6666 18.3333 12.6666C18.886 12.6666 19.3333 12.2186 19.3333 11.6666ZM19.3333 16.3333V15.6666C19.3333 15.1146 18.886 14.6666 18.3333 14.6666C17.7807 14.6666 17.3333 15.1146 17.3333 15.6666V16.3333C17.3333 16.8853 17.7807 17.3333 18.3333 17.3333C18.886 17.3333 19.3333 16.8853 19.3333 16.3333ZM19.3333 21V20.3333C19.3333 19.7813 18.886 19.3333 18.3333 19.3333C17.7807 19.3333 17.3333 19.7813 17.3333 20.3333V21C17.3333 21.552 17.7807 22 18.3333 22C18.886 22 19.3333 21.552 19.3333 21ZM27.3333 13.3333V11.3333C27.3333 10.5966 26.7367 9.99996 26 9.99996H23.3333C22.5967 9.99996 22 10.5966 22 11.3333V13.3333C22 14.07 22.5967 14.6666 23.3333 14.6666H26C26.7367 14.6666 27.3333 14.07 27.3333 13.3333Z" fill="#004B87"/>
</svg>
