<svg width="24" height="25" viewBox="0 0 24 25" fill="none" xmlns="http://www.w3.org/2000/svg">
<path d="M6.25 3.25488C4.46403 3.25488 3 4.71891 3 6.50488V18.0049C3 19.7909 4.46403 21.2549 6.25 21.2549H17.75C19.536 21.2549 21 19.7909 21 18.0049V6.50488C21 4.71891 19.536 3.25488 17.75 3.25488H6.25ZM6.25 4.75488H17.75C18.725 4.75488 19.5 5.52985 19.5 6.50488V7.25488H4.5V6.50488C4.5 5.52985 5.27497 4.75488 6.25 4.75488ZM4.5 8.75488H19.5V18.0049C19.5 18.9799 18.725 19.7549 17.75 19.7549H6.25C5.27497 19.7549 4.5 18.9799 4.5 18.0049V8.75488ZM7.75 10.7549C7.41848 10.7549 7.10054 10.8866 6.86612 11.121C6.6317 11.3554 6.5 11.6734 6.5 12.0049C6.5 12.3364 6.6317 12.6543 6.86612 12.8888C7.10054 13.1232 7.41848 13.2549 7.75 13.2549C8.08152 13.2549 8.39946 13.1232 8.63388 12.8888C8.8683 12.6543 9 12.3364 9 12.0049C9 11.6734 8.8683 11.3554 8.63388 11.121C8.39946 10.8866 8.08152 10.7549 7.75 10.7549ZM12 10.7549C11.6685 10.7549 11.3505 10.8866 11.1161 11.121C10.8817 11.3554 10.75 11.6734 10.75 12.0049C10.75 12.3364 10.8817 12.6543 11.1161 12.8888C11.3505 13.1232 11.6685 13.2549 12 13.2549C12.3315 13.2549 12.6495 13.1232 12.8839 12.8888C13.1183 12.6543 13.25 12.3364 13.25 12.0049C13.25 11.6734 13.1183 11.3554 12.8839 11.121C12.6495 10.8866 12.3315 10.7549 12 10.7549ZM16.25 10.7549C15.9185 10.7549 15.6005 10.8866 15.3661 11.121C15.1317 11.3554 15 11.6734 15 12.0049C15 12.3364 15.1317 12.6543 15.3661 12.8888C15.6005 13.1232 15.9185 13.2549 16.25 13.2549C16.5815 13.2549 16.8995 13.1232 17.1339 12.8888C17.3683 12.6543 17.5 12.3364 17.5 12.0049C17.5 11.6734 17.3683 11.3554 17.1339 11.121C16.8995 10.8866 16.5815 10.7549 16.25 10.7549ZM7.75 15.2549C7.41848 15.2549 7.10054 15.3866 6.86612 15.621C6.6317 15.8554 6.5 16.1734 6.5 16.5049C6.5 16.8364 6.6317 17.1543 6.86612 17.3888C7.10054 17.6232 7.41848 17.7549 7.75 17.7549C8.08152 17.7549 8.39946 17.6232 8.63388 17.3888C8.8683 17.1543 9 16.8364 9 16.5049C9 16.1734 8.8683 15.8554 8.63388 15.621C8.39946 15.3866 8.08152 15.2549 7.75 15.2549ZM12 15.2549C11.6685 15.2549 11.3505 15.3866 11.1161 15.621C10.8817 15.8554 10.75 16.1734 10.75 16.5049C10.75 16.8364 10.8817 17.1543 11.1161 17.3888C11.3505 17.6232 11.6685 17.7549 12 17.7549C12.3315 17.7549 12.6495 17.6232 12.8839 17.3888C13.1183 17.1543 13.25 16.8364 13.25 16.5049C13.25 16.1734 13.1183 15.8554 12.8839 15.621C12.6495 15.3866 12.3315 15.2549 12 15.2549Z" fill="#004B87"/>
</svg>
