<svg width="24" height="24" viewBox="0 0 24 24" fill="none" xmlns="http://www.w3.org/2000/svg">
<path d="M2.49219 7.25787C2.49222 7.40713 2.53679 7.55299 2.62019 7.67678C2.70358 7.80057 2.82202 7.89666 2.96033 7.95276C3.09865 8.00887 3.25056 8.02243 3.39662 7.99171C3.54269 7.96099 3.67627 7.88739 3.78027 7.78033L6.5 5.06061L6.5 20.7501C6.49859 20.8494 6.51696 20.9481 6.55402 21.0403C6.59108 21.1326 6.6461 21.2165 6.71588 21.2873C6.78566 21.3581 6.86882 21.4143 6.96051 21.4526C7.0522 21.491 7.15061 21.5107 7.25 21.5107C7.34939 21.5107 7.4478 21.491 7.53949 21.4526C7.63118 21.4143 7.71434 21.3581 7.78412 21.2873C7.8539 21.2165 7.90892 21.1326 7.94598 21.0403C7.98304 20.9481 8.00141 20.8494 8 20.7501L8 5.06061L10.7197 7.78033C10.7888 7.85231 10.8716 7.90978 10.9632 7.94936C11.0548 7.98895 11.1534 8.00986 11.2532 8.01088C11.3529 8.01189 11.4519 7.99299 11.5443 7.95527C11.6367 7.91755 11.7206 7.86178 11.7912 7.79123C11.8617 7.72067 11.9175 7.63674 11.9552 7.54436C11.9929 7.45198 12.0118 7.353 12.0108 7.25322C12.0098 7.15344 11.9889 7.05486 11.9493 6.96327C11.9097 6.87167 11.8523 6.7889 11.7803 6.71979L7.78027 2.71979C7.63962 2.57919 7.44888 2.50021 7.25 2.50021C7.05112 2.50021 6.86038 2.57919 6.71973 2.71979L2.71973 6.71979C2.64773 6.7897 2.5905 6.87334 2.55142 6.96577C2.51233 7.05819 2.49219 7.15752 2.49219 7.25787ZM11.9932 16.7647C11.9988 16.9595 12.0801 17.1444 12.2197 17.2803L16.2197 21.2803C16.3604 21.4209 16.5511 21.4999 16.75 21.4999C16.9489 21.4999 17.1396 21.4209 17.2803 21.2803L21.2803 17.2803C21.3523 17.2112 21.4097 17.1284 21.4493 17.0369C21.4889 16.9453 21.5098 16.8467 21.5108 16.7469C21.5118 16.6471 21.4929 16.5481 21.4552 16.4558C21.4175 16.3634 21.3617 16.2795 21.2912 16.2089C21.2206 16.1383 21.1367 16.0826 21.0443 16.0448C20.9519 16.0071 20.8529 15.9882 20.7532 15.9892C20.6534 15.9903 20.5548 16.0112 20.4632 16.0508C20.3716 16.0903 20.2888 16.1478 20.2197 16.2198L17.5 18.9395L17.5 3.25006C17.5014 3.15068 17.483 3.052 17.446 2.95978C17.4089 2.86755 17.3539 2.78361 17.2841 2.71284C17.2143 2.64206 17.1312 2.58586 17.0395 2.54749C16.9478 2.50913 16.8494 2.48938 16.75 2.48938C16.6506 2.48938 16.5522 2.50913 16.4605 2.54749C16.3688 2.58586 16.2857 2.64206 16.2159 2.71284C16.1461 2.78361 16.0911 2.86755 16.054 2.95978C16.017 3.052 15.9986 3.15068 16 3.25006L16 18.9395L13.2803 16.2198C13.1749 16.1116 13.0393 16.0377 12.8913 16.0079C12.7432 15.978 12.5896 15.9935 12.4505 16.0524C12.3114 16.1113 12.1933 16.2108 12.1117 16.3379C12.0301 16.465 11.9888 16.6137 11.9932 16.7647Z" fill="#004B87"/>
</svg>
