<svg width="24" height="25" viewBox="0 0 24 25" fill="none" xmlns="http://www.w3.org/2000/svg">
<path d="M18.75 2.25488C17.2401 2.25488 16 3.495 16 5.00488V7.00488C16 8.51477 17.2401 9.75488 18.75 9.75488C20.2599 9.75488 21.5 8.51477 21.5 7.00488V5.00488C21.5 3.495 20.2599 2.25488 18.75 2.25488ZM3.76758 2.26562C2.18007 2.2553 1.06387 3.92335 1.67871 5.38672L6.40918 16.6494L6.39648 16.6162C6.77534 17.6574 7.65647 18.4093 8.7041 18.6582L8.05469 20.3906C7.63425 21.5121 8.49571 22.7549 9.69336 22.7549H16.8066C18.0041 22.7549 18.8663 21.5118 18.4463 20.3906H18.4453L17.8301 18.751C19.0661 18.7062 20.0623 17.6412 19.9971 16.3857C19.9329 15.1468 18.852 14.2539 17.665 14.2539H10.502C10.3942 14.2539 10.303 14.1901 10.2666 14.0898C10.262 14.0773 10.2572 14.065 10.252 14.0527L9.4873 12.2549H14C14.0994 12.2563 14.1981 12.2379 14.2903 12.2009C14.3825 12.1638 14.4664 12.1088 14.5372 12.039C14.608 11.9692 14.6642 11.8861 14.7026 11.7944C14.7409 11.7027 14.7607 11.6043 14.7607 11.5049C14.7607 11.4055 14.7409 11.3071 14.7026 11.2154C14.6642 11.1237 14.608 11.0405 14.5372 10.9708C14.4664 10.901 14.3825 10.846 14.2903 10.8089C14.1981 10.7718 14.0994 10.7535 14 10.7549H8.84961L7.60547 7.82715L7.76855 7.61914C8.27248 6.9752 8.38597 6.10467 8.0664 5.35254L7.34375 3.65234C6.9974 2.83622 6.1982 2.29792 5.3125 2.28223C4.84191 2.27416 4.29687 2.26914 3.76758 2.26562ZM18.75 3.75488C19.4491 3.75488 20 4.30577 20 5.00488V7.00488C20 7.704 19.4491 8.25488 18.75 8.25488C18.0509 8.25488 17.5 7.704 17.5 7.00488V5.00488C17.5 4.30577 18.0509 3.75488 18.75 3.75488ZM3.75781 3.76562C4.28318 3.76911 4.82391 3.7743 5.28613 3.78223C5.58543 3.78753 5.84623 3.9634 5.96289 4.23828V4.23926L6.68652 5.93945C6.79396 6.19232 6.75599 6.47828 6.58691 6.69434V6.69531L6.15136 7.25195C6.0689 7.35744 6.01617 7.48307 5.99865 7.61582C5.98113 7.74856 5.99947 7.88357 6.05176 8.00684L8.87109 14.6396L8.85644 14.6025C9.10703 15.2923 9.76873 15.7539 10.502 15.7539H17.665C18.1031 15.7539 18.4791 16.0788 18.499 16.4629C18.5223 16.9111 18.1869 17.2549 17.75 17.2549H16.8545C16.7832 17.2446 16.7109 17.2446 16.6396 17.2549H9.87695C9.8469 17.2498 9.81657 17.2465 9.78613 17.2451C9.7345 17.243 9.68279 17.2463 9.63183 17.2549H9.45019C8.71134 17.2549 8.05831 16.7969 7.80566 16.1025C7.80169 16.0914 7.79746 16.0803 7.79297 16.0693L3.06152 4.80566C2.84235 4.28403 3.19231 3.76195 3.75781 3.76562ZM10.2695 18.7549H16.2305L17.041 20.917C17.111 21.1038 17.0062 21.2549 16.8066 21.2549H9.69336C9.495 21.2549 9.38942 21.1025 9.45898 20.917L10.2695 18.7549Z" fill="#004B87"/>
</svg>
