<svg width="24" height="25" viewBox="0 0 24 25" fill="none" xmlns="http://www.w3.org/2000/svg">
<path d="M3.26956 2.11499C3.26956 2.11499 3.31134 2.14148 3.31448 2.14331C2.98303 2.13495 2.65152 2.21102 2.35647 2.38843C1.64697 2.81543 1.34794 3.71813 1.64944 4.54663L6.56644 16.2878C6.92756 17.2813 7.83337 17.9684 8.87015 18.0759L8.05472 20.2507C7.63428 21.3722 8.49575 22.615 9.69339 22.615H16.8067C18.0041 22.615 18.8663 21.3719 18.4463 20.2507H18.4453L17.6309 18.0789C18.0454 18.0363 18.4282 17.8583 18.7198 17.5515C19.0533 17.2 19.2223 16.7392 19.1973 16.2537C19.1493 15.3402 18.3278 14.5974 17.3653 14.5974H10.2012C9.8872 14.5974 9.60374 14.3991 9.49124 14.0916L8.86624 12.615H14C14.0994 12.6164 14.1981 12.598 14.2903 12.561C14.3825 12.5239 14.4665 12.4689 14.5373 12.3991C14.608 12.3293 14.6642 12.2462 14.7026 12.1545C14.741 12.0628 14.7607 11.9644 14.7607 11.865C14.7607 11.7656 14.741 11.6672 14.7026 11.5755C14.6642 11.4838 14.608 11.4007 14.5373 11.3309C14.4665 11.2611 14.3825 11.2061 14.2903 11.169C14.1981 11.1319 14.0994 11.1136 14 11.115H8.25003C8.24352 11.1152 8.237 11.1156 8.2305 11.116L6.61136 7.29175C7.24009 6.94426 7.5053 6.17757 7.22171 5.51636L6.1553 3.02612C5.9188 2.47462 5.37494 2.11647 4.77444 2.11597C3.95444 2.11547 3.26956 2.11499 3.26956 2.11499ZM18.75 2.11499C17.2401 2.11499 16 3.3551 16 4.86499V6.86499C16 8.37488 17.2401 9.61499 18.75 9.61499C20.2599 9.61499 21.5 8.37488 21.5 6.86499V4.86499C21.5 3.3551 20.2599 2.11499 18.75 2.11499ZM18.75 3.61499C19.4491 3.61499 20 4.16588 20 4.86499V6.86499C20 7.5641 19.4491 8.11499 18.75 8.11499C18.0509 8.11499 17.5 7.5641 17.5 6.86499V4.86499C17.5 4.16588 18.0509 3.61499 18.75 3.61499ZM10.4639 18.0974H16.0362L17.041 20.7771C17.1111 20.9639 17.0062 21.115 16.8067 21.115H9.69339C9.49503 21.115 9.38945 20.9626 9.45901 20.7771L10.4639 18.0974Z" fill="#004B87"/>
</svg>
