<svg width="32" height="32" viewBox="0 0 32 32" fill="none" xmlns="http://www.w3.org/2000/svg">
<path d="M26.3333 28.6666H20.3333C19.4127 28.6666 18.6667 27.9206 18.6667 27V21C18.6667 20.2633 18.07 19.6666 17.3333 19.6666H14.6667C13.93 19.6666 13.3333 20.2633 13.3333 21V27C13.3333 27.9206 12.5873 28.6666 11.6667 28.6666H5.66667C4.746 28.6666 4 27.9206 4 27V14.2753C4 12.7426 4.70267 11.2946 5.906 10.3466L15.3807 2.88063C15.744 2.59529 16.256 2.59529 16.6187 2.88063L26.0947 10.3466C27.298 11.2946 28 12.742 28 14.274V27C28 27.9206 27.254 28.6666 26.3333 28.6666Z" fill="#004B87"/>
</svg>
