<svg width="32" height="32" viewBox="0 0 32 32" fill="none" xmlns="http://www.w3.org/2000/svg">
<path d="M15.9674 2.66662C15.7542 2.6739 15.5489 2.74918 15.3815 2.88147L5.90625 10.3463C4.70365 11.2941 4 12.7423 4 14.2734V27C4 27.909 4.7576 28.6666 5.66667 28.6666H12.3333C13.2424 28.6666 14 27.909 14 27V20.3333C14 20.1366 14.1366 20 14.3333 20H17.6667C17.8634 20 18 20.1366 18 20.3333V27C18 27.909 18.7576 28.6666 19.6667 28.6666H26.3333C27.2424 28.6666 28 27.909 28 27V14.2734C28 12.7423 27.2963 11.2941 26.0938 10.3463L16.6185 2.88147C16.4336 2.73538 16.203 2.65929 15.9674 2.66662ZM16 4.94006L24.8568 11.9179C25.5795 12.4875 26 13.3538 26 14.2734V26.6666H20V20.3333C20 19.0567 18.9433 18 17.6667 18H14.3333C13.0567 18 12 19.0567 12 20.3333V26.6666H6V14.2734C6 13.3538 6.42049 12.4875 7.14323 11.9179L16 4.94006Z" fill="#9CA3AF"/>
</svg>
