<svg width="24" height="24" viewBox="0 0 24 24" fill="none" xmlns="http://www.w3.org/2000/svg">
<path d="M10.7353 4.49317C10.5406 4.49885 10.3556 4.5801 10.2197 4.71973L3.2197 11.7197C3.07911 11.8604 3.00012 12.0511 3.00012 12.25C3.00012 12.4489 3.07911 12.6396 3.2197 12.7803L10.2197 19.7803C10.2888 19.8523 10.3716 19.9097 10.4632 19.9493C10.5548 19.9889 10.6534 20.0098 10.7531 20.0108C10.8529 20.0118 10.9519 19.9929 11.0443 19.9552C11.1367 19.9175 11.2206 19.8617 11.2911 19.7912C11.3617 19.7206 11.4175 19.6367 11.4552 19.5443C11.4929 19.4519 11.5118 19.3529 11.5108 19.2532C11.5098 19.1534 11.4889 19.0548 11.4493 18.9632C11.4097 18.8716 11.3522 18.7888 11.2803 18.7197L5.56052 13H20.25C20.3494 13.0014 20.448 12.983 20.5403 12.946C20.6325 12.9089 20.7164 12.8539 20.7872 12.7841C20.858 12.7143 20.9142 12.6312 20.9525 12.5395C20.9909 12.4478 21.0107 12.3494 21.0107 12.25C21.0107 12.1506 20.9909 12.0522 20.9525 11.9605C20.9142 11.8688 20.858 11.7857 20.7872 11.7159C20.7164 11.6461 20.6325 11.5911 20.5403 11.554C20.448 11.517 20.3494 11.4986 20.25 11.5H5.56052L11.2803 5.78028C11.3885 5.6749 11.4623 5.53931 11.4922 5.39126C11.5221 5.24321 11.5065 5.08959 11.4476 4.9505C11.3888 4.81142 11.2893 4.69335 11.1622 4.61175C11.0351 4.53015 10.8863 4.48882 10.7353 4.49317Z" fill="#6B7280"/>
</svg>
