<svg width="14" height="14" viewBox="0 0 14 14" fill="none" xmlns="http://www.w3.org/2000/svg">
<path d="M8.73007 1.30732C8.57879 1.31391 8.43599 1.37908 8.33188 1.48904L3.37354 6.5932C3.26763 6.70211 3.20837 6.84803 3.20837 6.99994C3.20837 7.15186 3.26763 7.29778 3.37354 7.40668L8.33188 12.5108C8.38497 12.5671 8.44872 12.6122 8.51942 12.6436C8.59011 12.675 8.66634 12.692 8.74367 12.6936C8.821 12.6953 8.89788 12.6815 8.96985 12.6532C9.04181 12.6248 9.10742 12.5825 9.16286 12.5285C9.21831 12.4746 9.26247 12.4102 9.29279 12.339C9.3231 12.2679 9.33897 12.1914 9.33946 12.1141C9.33995 12.0367 9.32506 11.96 9.29565 11.8885C9.26624 11.817 9.22289 11.752 9.16814 11.6974L4.60515 6.99994L9.16814 2.30251C9.25121 2.21938 9.30724 2.11309 9.32888 1.99757C9.35052 1.88205 9.33676 1.76269 9.28941 1.65512C9.24206 1.54755 9.16333 1.45679 9.06352 1.39473C8.96371 1.33267 8.84749 1.3022 8.73007 1.30732Z" fill="white"/>
</svg>
