<svg width="18" height="18" viewBox="0 0 18 18" fill="none" xmlns="http://www.w3.org/2000/svg">
<path d="M5.99195 2.24268C5.84281 2.24286 5.69711 2.2875 5.57347 2.37089C5.44983 2.45428 5.35385 2.57264 5.2978 2.71084C5.24174 2.84905 5.22816 3.00082 5.25879 3.14678C5.28941 3.29274 5.36286 3.42626 5.46973 3.53027L10.9395 9L5.46973 14.4697C5.39775 14.5388 5.34028 14.6216 5.30069 14.7132C5.26111 14.8048 5.24019 14.9034 5.23917 15.0032C5.23816 15.1029 5.25706 15.2019 5.29478 15.2943C5.3325 15.3867 5.38827 15.4706 5.45883 15.5412C5.52939 15.6117 5.61332 15.6675 5.7057 15.7052C5.79808 15.7429 5.89706 15.7618 5.99684 15.7608C6.09663 15.7598 6.1952 15.7389 6.2868 15.6993C6.37839 15.6597 6.46117 15.6023 6.53028 15.5303L12.5303 9.53027C12.6709 9.38962 12.7499 9.19888 12.7499 9C12.7499 8.80112 12.6709 8.61038 12.5303 8.46973L6.53028 2.46973C6.4603 2.39779 6.3766 2.34063 6.28413 2.30163C6.19166 2.26263 6.09231 2.24258 5.99195 2.24268Z" fill="#004B87"/>
</svg>
