<svg width="24" height="24" viewBox="0 0 24 24" fill="none" xmlns="http://www.w3.org/2000/svg">
<path d="M11.6387 2.00884C7.59694 2.19921 4.50001 5.67175 4.50001 9.69048V13.3243L3.17481 15.9903C3.17248 15.9951 3.1702 16 3.16797 16.0049C2.63485 17.1387 3.49786 18.5 4.75098 18.5H9.00001C9.00001 20.148 10.3521 21.5 12 21.5C13.6479 21.5 15 20.148 15 18.5H19.2481C20.5012 18.5 21.3653 17.139 20.832 16.0049C20.8298 16 20.8275 15.9951 20.8252 15.9903L19.5 13.3243V9.50005C19.5 5.24695 15.9317 1.80673 11.6387 2.00884ZM11.709 3.50689C15.169 3.34399 18 6.08115 18 9.50005V13.5C17.9999 13.6159 18.0266 13.7302 18.0781 13.834L19.4746 16.6446C19.5644 16.8371 19.4605 17 19.2481 17H4.75098C4.53852 17 4.43546 16.8373 4.5254 16.6446V16.6436L5.92188 13.834C5.97337 13.7302 6.00011 13.6159 6.00001 13.5V9.69048C6.00001 6.44021 8.48973 3.65852 11.709 3.50689ZM10.5 18.5H13.5C13.5 19.3371 12.8371 20 12 20C11.1629 20 10.5 19.3371 10.5 18.5Z" fill="#004B87"/>
</svg>
