<svg width="24" height="24" viewBox="0 0 24 24" fill="none" xmlns="http://www.w3.org/2000/svg">
<path d="M6.25 2.5C5.0095 2.5 4 3.5095 4 4.75V16.5H3.25C2.836 16.5 2.5 16.8355 2.5 17.25V18.25C2.5 20.042 3.958 21.5 5.75 21.5H12.7373C12.4928 21.031 12.3057 20.5275 12.1807 20H5.75C4.785 20 4 19.215 4 18.25V18H12.0254C12.0649 17.4805 12.1629 16.978 12.3174 16.5H5.5V4.75C5.5 4.3365 5.8365 4 6.25 4H17.75C18.1635 4 18.5 4.3365 18.5 4.75V12C19.017 12 19.5175 12.0667 20 12.1807V4.75C20 3.5095 18.9905 2.5 17.75 2.5H6.25ZM8.25 6.5C8.05109 6.5 7.86032 6.57902 7.71967 6.71967C7.57902 6.86032 7.5 7.05109 7.5 7.25C7.5 7.44891 7.57902 7.63968 7.71967 7.78033C7.86032 7.92098 8.05109 8 8.25 8C8.44891 8 8.63968 7.92098 8.78033 7.78033C8.92098 7.63968 9 7.44891 9 7.25C9 7.05109 8.92098 6.86032 8.78033 6.71967C8.63968 6.57902 8.44891 6.5 8.25 6.5ZM10.75 6.5C10.6506 6.49859 10.5519 6.51696 10.4597 6.55402C10.3675 6.59108 10.2836 6.6461 10.2128 6.71588C10.142 6.78566 10.0858 6.86882 10.0474 6.96051C10.0091 7.0522 9.98932 7.15061 9.98932 7.25C9.98932 7.34939 10.0091 7.4478 10.0474 7.53949C10.0858 7.63118 10.142 7.71434 10.2128 7.78412C10.2836 7.8539 10.3675 7.90892 10.4597 7.94598C10.5519 7.98304 10.6506 8.00141 10.75 8H15.75C15.8494 8.00141 15.9481 7.98304 16.0403 7.94598C16.1325 7.90892 16.2164 7.8539 16.2872 7.78412C16.358 7.71434 16.4142 7.63118 16.4526 7.53949C16.4909 7.4478 16.5107 7.34939 16.5107 7.25C16.5107 7.15061 16.4909 7.0522 16.4526 6.96051C16.4142 6.86882 16.358 6.78566 16.2872 6.71588C16.2164 6.6461 16.1325 6.59108 16.0403 6.55402C15.9481 6.51696 15.8494 6.49859 15.75 6.5H10.75ZM8.25 9.5C8.05109 9.5 7.86032 9.57902 7.71967 9.71967C7.57902 9.86032 7.5 10.0511 7.5 10.25C7.5 10.4489 7.57902 10.6397 7.71967 10.7803C7.86032 10.921 8.05109 11 8.25 11C8.44891 11 8.63968 10.921 8.78033 10.7803C8.92098 10.6397 9 10.4489 9 10.25C9 10.0511 8.92098 9.86032 8.78033 9.71967C8.63968 9.57902 8.44891 9.5 8.25 9.5ZM10.75 9.5C10.6506 9.49859 10.5519 9.51696 10.4597 9.55402C10.3675 9.59108 10.2836 9.6461 10.2128 9.71588C10.142 9.78566 10.0858 9.86882 10.0474 9.96051C10.0091 10.0522 9.98932 10.1506 9.98932 10.25C9.98932 10.3494 10.0091 10.4478 10.0474 10.5395C10.0858 10.6312 10.142 10.7143 10.2128 10.7841C10.2836 10.8539 10.3675 10.9089 10.4597 10.946C10.5519 10.983 10.6506 11.0014 10.75 11H15.75C15.8494 11.0014 15.9481 10.983 16.0403 10.946C16.1325 10.9089 16.2164 10.8539 16.2872 10.7841C16.358 10.7143 16.4142 10.6312 16.4526 10.5395C16.4909 10.4478 16.5107 10.3494 16.5107 10.25C16.5107 10.1506 16.4909 10.0522 16.4526 9.96051C16.4142 9.86882 16.358 9.78566 16.2872 9.71588C16.2164 9.6461 16.1325 9.59108 16.0403 9.55402C15.9481 9.51696 15.8494 9.49859 15.75 9.5H10.75ZM8.25 12.5C8.05109 12.5 7.86032 12.579 7.71967 12.7197C7.57902 12.8603 7.5 13.0511 7.5 13.25C7.5 13.4489 7.57902 13.6397 7.71967 13.7803C7.86032 13.921 8.05109 14 8.25 14C8.44891 14 8.63968 13.921 8.78033 13.7803C8.92098 13.6397 9 13.4489 9 13.25C9 13.0511 8.92098 12.8603 8.78033 12.7197C8.63968 12.579 8.44891 12.5 8.25 12.5ZM10.75 12.5C10.336 12.5 10 12.8355 10 13.25C10 13.6645 10.336 14 10.75 14H13.8164C14.4144 13.3775 15.133 12.8719 15.9375 12.5264C15.877 12.5109 15.815 12.5 15.75 12.5H10.75ZM18.5 13C15.4625 13 13 15.4625 13 18.5C13 21.5375 15.4625 24 18.5 24C21.5375 24 24 21.5375 24 18.5C24 15.4625 21.5375 13 18.5 13ZM16.5 15H20.5C20.7765 15 21 15.224 21 15.5C21 15.776 20.7765 16 20.5 16V17C20.5 17.6 20.2286 18.133 19.8086 18.5C20.2286 18.867 20.5 19.4 20.5 20V21C20.7765 21 21 21.224 21 21.5C21 21.776 20.7765 22 20.5 22H20H17H16.5C16.2235 22 16 21.776 16 21.5C16 21.224 16.2235 21 16.5 21V20C16.5 19.4 16.7714 18.867 17.1914 18.5C16.7714 18.133 16.5 17.6 16.5 17V16C16.2235 16 16 15.776 16 15.5C16 15.224 16.2235 15 16.5 15ZM17.5 16V17H19.5V16H17.5ZM18.5 19C17.9485 19 17.5 19.4485 17.5 20V20.8057L18.3418 20.5254C18.4443 20.4914 18.5557 20.4914 18.6582 20.5254L19.5 20.8057V20C19.5 19.4485 19.0515 19 18.5 19Z" fill="#004B87"/>
</svg>
