<svg width="24" height="25" viewBox="0 0 24 25" fill="none" xmlns="http://www.w3.org/2000/svg">
<path d="M12 2.25488C9.24742 2.25488 6.99996 4.50234 6.99996 7.25488C6.99996 10.0074 9.24742 12.2549 12 12.2549C14.7525 12.2549 17 10.0074 17 7.25488C17 4.50234 14.7525 2.25488 12 2.25488ZM12 3.75488C13.9418 3.75488 15.5 5.313 15.5 7.25488C15.5 9.19676 13.9418 10.7549 12 10.7549C10.0581 10.7549 8.49996 9.19676 8.49996 7.25488C8.49996 5.313 10.0581 3.75488 12 3.75488ZM3.70895 9.24805C3.55971 9.25458 3.41582 9.30554 3.29572 9.39437C3.17562 9.4832 3.08479 9.60587 3.03485 9.74666C2.98491 9.88745 2.97815 10.0399 3.01543 10.1846C3.05271 10.3293 3.13234 10.4595 3.2441 10.5586L7.28414 14.2549H6.24996C5.01621 14.2549 3.99996 15.2711 3.99996 16.5049V17.1045C3.99996 18.5749 4.93232 19.8939 6.35445 20.8008C7.77659 21.7077 9.72238 22.2549 12 22.2549C14.2775 22.2549 16.2233 21.7077 17.6455 20.8008C19.0676 19.8939 20 18.5749 20 17.1045V16.5049C20 15.2711 18.9837 14.2549 17.75 14.2549H9.5068L4.25582 9.45117C4.18285 9.3825 4.09687 9.32915 4.00294 9.29426C3.90901 9.25938 3.80905 9.24366 3.70895 9.24805ZM6.24996 15.7549H8.92379L14.165 20.5498C13.5023 20.6803 12.7775 20.7549 12 20.7549C9.96554 20.7549 8.28596 20.2535 7.16109 19.5361C6.03623 18.8188 5.49996 17.9371 5.49996 17.1045V16.5049C5.49996 16.0816 5.82671 15.7549 6.24996 15.7549ZM11.1455 15.7549H17.75C18.1732 15.7549 18.5 16.0816 18.5 16.5049V17.1045C18.5 17.9371 17.9637 18.8188 16.8388 19.5361C16.5438 19.7243 16.2086 19.8965 15.8408 20.0498L11.1455 15.7549Z" fill="#004B87"/>
</svg>
