<svg width="20" height="20" viewBox="0 0 20 20" fill="none" xmlns="http://www.w3.org/2000/svg">
<path d="M9.99996 1.66675C5.40499 1.66675 1.66663 5.40511 1.66663 10.0001C1.66663 14.5951 5.40499 18.3334 9.99996 18.3334C14.5949 18.3334 18.3333 14.5951 18.3333 10.0001C18.3333 5.40511 14.5949 1.66675 9.99996 1.66675ZM9.99996 2.91675C13.9194 2.91675 17.0833 6.08066 17.0833 10.0001C17.0833 13.9195 13.9194 17.0834 9.99996 17.0834C6.08054 17.0834 2.91663 13.9195 2.91663 10.0001C2.91663 6.08066 6.08054 2.91675 9.99996 2.91675ZM9.99019 5.82446C9.82458 5.82705 9.66676 5.89527 9.5514 6.01413C9.43604 6.133 9.37258 6.29279 9.37496 6.45841V9.37508H6.45829C6.37547 9.37391 6.29325 9.38921 6.21639 9.42009C6.13954 9.45098 6.06958 9.49683 6.0106 9.55498C5.95162 9.61313 5.90479 9.68243 5.87282 9.75884C5.84085 9.83525 5.82439 9.91725 5.82439 10.0001C5.82439 10.0829 5.84085 10.1649 5.87282 10.2413C5.90479 10.3177 5.95162 10.387 6.0106 10.4452C6.06958 10.5033 6.13954 10.5492 6.21639 10.5801C6.29325 10.611 6.37547 10.6263 6.45829 10.6251H9.37496V13.5417C9.37379 13.6246 9.38909 13.7068 9.41997 13.7837C9.45086 13.8605 9.49671 13.9305 9.55486 13.9894C9.61301 14.0484 9.68231 14.0953 9.75872 14.1272C9.83513 14.1592 9.91713 14.1756 9.99996 14.1756C10.0828 14.1756 10.1648 14.1592 10.2412 14.1272C10.3176 14.0953 10.3869 14.0484 10.4451 13.9894C10.5032 13.9305 10.5491 13.8605 10.5799 13.7837C10.6108 13.7068 10.6261 13.6246 10.625 13.5417V10.6251H13.5416C13.6244 10.6263 13.7067 10.611 13.7835 10.5801C13.8604 10.5492 13.9303 10.5033 13.9893 10.4452C14.0483 10.387 14.0951 10.3177 14.1271 10.2413C14.1591 10.1649 14.1755 10.0829 14.1755 10.0001C14.1755 9.91725 14.1591 9.83525 14.1271 9.75884C14.0951 9.68243 14.0483 9.61313 13.9893 9.55498C13.9303 9.49683 13.8604 9.45098 13.7835 9.42009C13.7067 9.38921 13.6244 9.37391 13.5416 9.37508H10.625V6.45841C10.6262 6.37476 10.6106 6.29172 10.5791 6.21421C10.5476 6.1367 10.5009 6.0663 10.4417 6.00718C10.3825 5.94806 10.312 5.90143 10.2345 5.87004C10.1569 5.83865 10.0738 5.82316 9.99019 5.82446Z" fill="#004B87"/>
</svg>
