<svg width="24" height="25" viewBox="0 0 24 25" fill="none" xmlns="http://www.w3.org/2000/svg">
<path d="M13.8223 22.2549C14.5669 22.2549 15.1629 21.5708 15.0605 20.833L14.1729 14.4424L16.123 14.3799L16.5498 15.5752V15.5762C16.8015 16.2805 17.4751 16.7549 18.2236 16.7549H18.75C19.4318 16.7549 20 16.1867 20 15.5049V14.2549C21.0956 14.2549 22 13.3505 22 12.2549C22 11.1592 21.0956 10.2549 20 10.2549V9.00488C20 8.32309 19.4318 7.75488 18.75 7.75488H18.2236C17.4757 7.75488 16.8014 8.2297 16.5498 8.93457L16.123 10.1299L14.1729 10.0674L15.0605 3.67676C15.1625 2.93862 14.5683 2.25488 13.8223 2.25488H13.2588C12.6014 2.25488 11.9964 2.62802 11.7021 3.2168V3.21777L8.37109 9.87891L4.52441 9.75488C4.51628 9.75475 4.50814 9.75475 4.5 9.75488C3.12817 9.75488 2 10.8831 2 12.2549C2 13.6267 3.12817 14.7549 4.5 14.7549C4.50814 14.755 4.51628 14.755 4.52441 14.7549L8.37109 14.6309L11.7021 21.293C11.9965 21.8808 12.6011 22.2549 13.2588 22.2549H13.8223ZM13.5352 20.7549H13.2588C13.1665 20.7549 13.0856 20.7043 13.0439 20.6211L9.49805 13.5303C9.43387 13.402 9.33426 13.2948 9.21102 13.2214C9.08779 13.148 8.94609 13.1115 8.80273 13.1162L4.49805 13.2539C3.93802 13.2527 3.5 12.8153 3.5 12.2549C3.5 11.6945 3.93802 11.2571 4.49805 11.2559L8.80273 11.3936C8.94609 11.3982 9.08779 11.3617 9.21102 11.2883C9.33426 11.215 9.43387 11.1078 9.49805 10.9795L13.0439 3.8877C13.0848 3.80586 13.1665 3.75488 13.2588 3.75488H13.5352L12.5723 10.6865C12.5578 10.7907 12.5655 10.8967 12.5947 10.9977C12.6239 11.0987 12.674 11.1925 12.7418 11.2729C12.8096 11.3532 12.8935 11.4185 12.9881 11.4643C13.0827 11.5102 13.1859 11.5357 13.291 11.5391L16.6211 11.6465C16.7798 11.6516 16.936 11.6062 17.0673 11.5169C17.1986 11.4276 17.2981 11.2989 17.3516 11.1494L17.9629 9.43848C18.0033 9.32535 18.1036 9.25488 18.2236 9.25488H18.5V10.9805C18.4999 11.1752 18.5756 11.3624 18.711 11.5023C18.8464 11.6423 19.0309 11.7241 19.2256 11.7305L19.9756 11.7549C19.9837 11.755 19.9919 11.755 20 11.7549C20.2854 11.7549 20.5 11.9695 20.5 12.2549C20.5 12.5402 20.2854 12.7549 20 12.7549C19.9919 12.7548 19.9837 12.7548 19.9756 12.7549L19.2256 12.7793C19.0309 12.7857 18.8464 12.8675 18.711 13.0074C18.5756 13.1474 18.4999 13.3345 18.5 13.5293V15.2549H18.2236C18.1041 15.2549 18.0032 15.184 17.9629 15.0713L17.3516 13.3604C17.2981 13.2108 17.1986 13.0822 17.0673 12.9928C16.936 12.9035 16.7798 12.8582 16.6211 12.8633L13.291 12.9707C13.1859 12.9741 13.0827 12.9996 12.9881 13.0454C12.8935 13.0913 12.8096 13.1565 12.7418 13.2369C12.674 13.3173 12.6239 13.411 12.5947 13.5121C12.5655 13.6131 12.5578 13.7191 12.5723 13.8232L13.5352 20.7549Z" fill="#004B87"/>
</svg>
