<svg width="24" height="25" viewBox="0 0 24 25" fill="none" xmlns="http://www.w3.org/2000/svg">
<path d="M10 2.61499C9.6965 2.61499 9.46288 2.88333 9.50488 3.18433L10.5078 10.405L7.10742 10.5144L6.49316 8.79663C6.34716 8.38763 5.96037 8.11499 5.52637 8.11499H5C4.724 8.11499 4.5 8.33899 4.5 8.61499V10.5984L4 10.615C3.60218 10.615 3.22064 10.773 2.93934 11.0543C2.65804 11.3356 2.5 11.7172 2.5 12.115C2.5 12.5128 2.65804 12.8943 2.93934 13.1757C3.22064 13.457 3.60218 13.615 4 13.615L4.5 13.6316V15.615C4.5 15.891 4.724 16.115 5 16.115H5.52637C5.96037 16.115 6.34716 15.8424 6.49316 15.4333L7.10742 13.7156L10.5078 13.825L9.50488 21.0457C9.46288 21.3467 9.6965 21.615 10 21.615H10.5635C10.9385 21.615 11.2817 21.4026 11.4492 21.0671L14.998 13.9695L19.4043 14.1121C19.4362 14.1138 19.4681 14.1148 19.5 14.115C20.0304 14.115 20.5391 13.9043 20.9142 13.5292C21.2893 13.1541 21.5 12.6454 21.5 12.115C21.5 11.5846 21.2893 11.0758 20.9142 10.7008C20.5391 10.3257 20.0304 10.115 19.5 10.115L14.998 10.2605L11.4492 3.16284C11.2817 2.82734 10.9385 2.61499 10.5635 2.61499H10Z" fill="#004B87"/>
</svg>
