<svg width="24" height="24" viewBox="0 0 24 24" fill="none" xmlns="http://www.w3.org/2000/svg">
<path d="M10.1777 2C9.43306 2 8.83713 2.68409 8.93945 3.42188L9.82715 9.8125L7.87695 9.875L7.4502 8.67969V8.67871C7.19847 7.97443 6.52488 7.5 5.77637 7.5H5.25C4.5682 7.5 4 8.0682 4 8.75V10C2.90436 10 2 10.9044 2 12C2 13.0956 2.90436 14 4 14V15.25C4 15.9318 4.5682 16.5 5.25 16.5H5.77637C6.52431 16.5 7.19858 16.0252 7.4502 15.3203L7.87695 14.125L9.82715 14.1875L8.93945 20.5781C8.83751 21.3163 9.43166 22 10.1777 22H10.7412C11.3986 22 12.0036 21.6269 12.2979 21.0381V21.0371L15.6289 14.376L19.4756 14.5C19.4837 14.5001 19.4919 14.5001 19.5 14.5C20.8718 14.5 22 13.3718 22 12C22 10.6282 20.8718 9.5 19.5 9.5C19.4919 9.49987 19.4837 9.49987 19.4756 9.5L15.6289 9.62402L12.2979 2.96191C12.0035 2.37408 11.3989 2 10.7412 2H10.1777ZM10.4648 3.5H10.7412C10.8335 3.5 10.9144 3.55063 10.9561 3.63379L14.502 10.7246C14.5661 10.8529 14.6657 10.9601 14.789 11.0335C14.9122 11.1068 15.0539 11.1434 15.1973 11.1387L19.502 11.001C20.062 11.0022 20.5 11.4396 20.5 12C20.5 12.5604 20.062 12.9978 19.502 12.999L15.1973 12.8613C15.0539 12.8566 14.9122 12.8932 14.789 12.9665C14.6657 13.0399 14.5661 13.1471 14.502 13.2754L10.9561 20.3672C10.9152 20.449 10.8335 20.5 10.7412 20.5H10.4648L11.4277 13.5684C11.4422 13.4642 11.4345 13.3582 11.4053 13.2572C11.3761 13.1562 11.326 13.0624 11.2582 12.982C11.1904 12.9016 11.1065 12.8364 11.0119 12.7905C10.9173 12.7447 10.8141 12.7192 10.709 12.7158L7.37891 12.6084C7.22021 12.6033 7.06398 12.6486 6.93272 12.738C6.80145 12.8273 6.70191 12.956 6.64844 13.1055L6.03711 14.8164C5.99673 14.9295 5.89643 15 5.77637 15H5.5V13.2744C5.50008 13.0797 5.42442 12.8925 5.28901 12.7526C5.1536 12.6126 4.96906 12.5308 4.77441 12.5244L4.02441 12.5C4.01628 12.4999 4.00814 12.4999 4 12.5C3.71464 12.5 3.5 12.2854 3.5 12C3.5 11.7146 3.71464 11.5 4 11.5C4.00814 11.5001 4.01628 11.5001 4.02441 11.5L4.77441 11.4756C4.96906 11.4692 5.1536 11.3874 5.28901 11.2474C5.42442 11.1075 5.50008 10.9203 5.5 10.7256V9H5.77637C5.89585 9 5.99683 9.0709 6.03711 9.18359L6.64844 10.8945C6.70191 11.044 6.80145 11.1727 6.93272 11.262C7.06398 11.3514 7.22021 11.3967 7.37891 11.3916L10.709 11.2842C10.8141 11.2808 10.9173 11.2553 11.0119 11.2095C11.1065 11.1636 11.1904 11.0984 11.2582 11.018C11.326 10.9376 11.3761 10.8438 11.4053 10.7428C11.4345 10.6418 11.4422 10.5358 11.4277 10.4316L10.4648 3.5Z" fill="#004B87"/>
</svg>
