<svg width="32" height="32" viewBox="0 0 32 32" fill="none" xmlns="http://www.w3.org/2000/svg">
<path d="M16 2.66663C12.3299 2.66663 9.33333 5.66324 9.33333 9.33329C9.33333 13.0033 12.3299 16 16 16C19.67 16 22.6667 13.0033 22.6667 9.33329C22.6667 5.66324 19.67 2.66663 16 2.66663ZM16 4.66663C18.5892 4.66663 20.6667 6.74412 20.6667 9.33329C20.6667 11.9225 18.5892 14 16 14C13.4108 14 11.3333 11.9225 11.3333 9.33329C11.3333 6.74412 13.4108 4.66663 16 4.66663ZM7.98567 18.6666C6.53246 18.6666 5.33333 19.8658 5.33333 21.319V22.3333C5.33333 24.7361 6.85284 26.5948 8.87109 27.7083C10.8893 28.8218 13.4454 29.3333 16 29.3333C18.5546 29.3333 21.1107 28.8218 23.1289 27.7083C24.8498 26.7589 26.1449 25.2417 26.5078 23.3333H26.668V21.319C26.668 19.8658 25.4675 18.6666 24.0143 18.6666H7.98567ZM7.98567 20.6666H24.0143C24.3864 20.6666 24.668 20.9468 24.668 21.319V21.3333H24.6667V22.3333C24.6667 23.9305 23.7695 25.0718 22.1628 25.9583C20.556 26.8448 18.2787 27.3333 16 27.3333C13.7213 27.3333 11.444 26.8448 9.83723 25.9583C8.23048 25.0718 7.33333 23.9305 7.33333 22.3333V21.319C7.33333 20.9468 7.61355 20.6666 7.98567 20.6666Z" fill="#9CA3AF"/>
</svg>
