<svg width="32" height="32" viewBox="0 0 32 32" fill="none" xmlns="http://www.w3.org/2000/svg">
<path d="M16 2.66663C14.2319 2.66663 12.5362 3.369 11.2859 4.61925C10.0357 5.86949 9.33333 7.56518 9.33333 9.33329C9.33333 11.1014 10.0357 12.7971 11.2859 14.0473C12.5362 15.2976 14.2319 16 16 16C17.7681 16 19.4638 15.2976 20.714 14.0473C21.9643 12.7971 22.6667 11.1014 22.6667 9.33329C22.6667 7.56518 21.9643 5.86949 20.714 4.61925C19.4638 3.369 17.7681 2.66663 16 2.66663ZM24.014 18.6666H7.986C6.52333 18.6666 5.33333 19.8566 5.33333 21.3193V22.3333C5.33333 24.5413 6.59 26.4506 8.87133 27.7086C10.7693 28.7566 13.3013 29.3333 16 29.3333C21.1373 29.3333 26.6667 27.1426 26.6667 22.3333V21.3193C26.6667 19.8566 25.4767 18.6666 24.014 18.6666Z" fill="#004B87"/>
</svg>
