<svg width="32" height="32" viewBox="0 0 32 32" fill="none" xmlns="http://www.w3.org/2000/svg">
<path d="M16.0327 1.33325C15.7749 1.3252 15.5239 1.41711 15.3322 1.58976C15.3322 1.58976 10.3269 5.99992 4.3335 5.99992C4.06829 5.99994 3.81395 6.10531 3.62642 6.29284C3.43889 6.48037 3.33352 6.73471 3.3335 6.99992V15.1731C3.3335 19.6251 5.39311 26.9509 15.6121 31.2551C15.735 31.3068 15.8669 31.3335 16.0002 31.3335C16.1334 31.3335 16.2654 31.3068 16.3882 31.2551C26.6072 26.9509 28.6668 19.6251 28.6668 15.1731V6.99992C28.6668 6.73471 28.5614 6.48037 28.3739 6.29284C28.1864 6.10531 27.932 5.99994 27.6668 5.99992C21.6734 5.99992 16.6681 1.58976 16.6681 1.58976C16.4931 1.4321 16.2681 1.34126 16.0327 1.33325ZM16.0002 3.61841C17.3755 4.72416 21.4077 7.55804 26.6668 7.91658V15.1731C26.6668 19.0013 25.1958 25.177 16.0002 29.2174C6.80453 25.177 5.3335 19.0013 5.3335 15.1731V7.91658C10.5927 7.55804 14.6249 4.72416 16.0002 3.61841ZM20.9806 11.9908C20.7209 11.9984 20.4744 12.1067 20.2931 12.2929L14.3335 18.2525L11.7072 15.6262C11.615 15.5302 11.5047 15.4536 11.3826 15.4008C11.2604 15.3481 11.129 15.3202 10.996 15.3188C10.8629 15.3175 10.7309 15.3427 10.6078 15.393C10.4846 15.4433 10.3727 15.5176 10.2786 15.6117C10.1845 15.7058 10.1102 15.8177 10.0599 15.9409C10.0096 16.064 9.98439 16.196 9.98574 16.329C9.98709 16.4621 10.015 16.5935 10.0678 16.7156C10.1205 16.8378 10.1972 16.9481 10.2931 17.0403L13.6265 20.3736C13.814 20.5611 14.0683 20.6664 14.3335 20.6664C14.5987 20.6664 14.853 20.5611 15.0405 20.3736L21.7072 13.7069C21.8515 13.5664 21.95 13.3857 21.9898 13.1883C22.0296 12.9909 22.0089 12.786 21.9304 12.6006C21.8519 12.4151 21.7192 12.2577 21.5497 12.1489C21.3803 12.0401 21.1819 11.985 20.9806 11.9908Z" fill="white"/>
</svg>
