<svg width="32" height="32" viewBox="0 0 32 32" fill="none" xmlns="http://www.w3.org/2000/svg">
<path d="M13.6667 4C8.33976 4 4 8.33976 4 13.6667C4 18.9936 8.33976 23.3333 13.6667 23.3333C15.9709 23.3333 18.0891 22.5194 19.7526 21.1667L26.293 27.707C26.3851 27.803 26.4955 27.8796 26.6176 27.9324C26.7397 27.9852 26.8712 28.0131 27.0042 28.0144C27.1372 28.0158 27.2692 27.9906 27.3924 27.9403C27.5156 27.89 27.6275 27.8156 27.7216 27.7216C27.8156 27.6275 27.89 27.5156 27.9403 27.3924C27.9906 27.2692 28.0158 27.1372 28.0144 27.0042C28.0131 26.8712 27.9852 26.7397 27.9324 26.6176C27.8796 26.4955 27.803 26.3851 27.707 26.293L21.1667 19.7526C22.5194 18.0891 23.3333 15.9709 23.3333 13.6667C23.3333 8.33976 18.9936 4 13.6667 4ZM13.6667 6C17.9127 6 21.3333 9.42064 21.3333 13.6667C21.3333 15.7351 20.5175 17.6038 19.194 18.9805C19.1124 19.0404 19.0404 19.1124 18.9805 19.194C17.6038 20.5175 15.7351 21.3333 13.6667 21.3333C9.42063 21.3333 6 17.9127 6 13.6667C6 9.42064 9.42063 6 13.6667 6Z" fill="#4B5563"/>
</svg>
