<svg width="24" height="24" viewBox="0 0 24 24" fill="none" xmlns="http://www.w3.org/2000/svg">
<path d="M2.72266 2.00101C2.60218 2.00538 2.48453 2.03873 2.37968 2.09823C2.27482 2.15773 2.18586 2.24163 2.12032 2.34281C2.05478 2.444 2.01459 2.55949 2.00317 2.67951C1.99174 2.79952 2.00942 2.92052 2.05469 3.03226L5.69043 12L2.05469 20.9678C1.99735 21.109 1.9844 21.2644 2.01756 21.4131C2.05072 21.5619 2.12841 21.6971 2.2403 21.8006C2.35219 21.9041 2.49295 21.971 2.64385 21.9925C2.79475 22.014 2.94862 21.9891 3.08496 21.9209L21.585 12.6709C21.7096 12.6086 21.8143 12.5129 21.8876 12.3944C21.9608 12.2759 21.9996 12.1393 21.9996 12C21.9996 11.8607 21.9608 11.7242 21.8876 11.6057C21.8143 11.4872 21.7096 11.3914 21.585 11.3291L3.08496 2.07913C2.97263 2.0232 2.84806 1.99633 2.72266 2.00101ZM4.19141 4.3096L19.5732 12L4.19141 19.6905L7.00586 12.75H13.75C13.8494 12.7514 13.9481 12.7331 14.0403 12.696C14.1325 12.659 14.2164 12.6039 14.2872 12.5342C14.358 12.4644 14.4142 12.3812 14.4526 12.2895C14.4909 12.1978 14.5107 12.0994 14.5107 12C14.5107 11.9006 14.4909 11.8022 14.4526 11.7105C14.4142 11.6188 14.358 11.5357 14.2872 11.4659C14.2164 11.3961 14.1325 11.3411 14.0403 11.304C13.9481 11.267 13.8494 11.2486 13.75 11.25H7.00586L4.19141 4.3096Z" fill="white"/>
</svg>
