<svg width="18" height="18" viewBox="0 0 18 18" fill="none" xmlns="http://www.w3.org/2000/svg">
<path d="M12.5566 1.86914C12.4447 1.86917 12.3353 1.90259 12.2425 1.96514C12.1496 2.02769 12.0775 2.11651 12.0355 2.22025C11.9934 2.32399 11.9832 2.43792 12.0063 2.54747C12.0293 2.65702 12.0845 2.7572 12.1648 2.83521L14.2046 4.875H2.4375C2.36296 4.87395 2.28896 4.88772 2.21979 4.91551C2.15062 4.94331 2.08766 4.98457 2.03458 5.03691C1.9815 5.08925 1.93935 5.15161 1.91058 5.22038C1.8818 5.28915 1.86699 5.36295 1.86699 5.4375C1.86699 5.51205 1.8818 5.58585 1.91058 5.65462C1.93935 5.72339 1.9815 5.78575 2.03458 5.83809C2.08766 5.89043 2.15062 5.93169 2.21979 5.95949C2.28896 5.98728 2.36296 6.00105 2.4375 6H14.2046L12.1648 8.03979C12.1108 8.09163 12.0677 8.15371 12.038 8.22241C12.0083 8.2911 11.9926 8.36503 11.9919 8.43987C11.9911 8.5147 12.0053 8.58894 12.0336 8.65822C12.0619 8.72751 12.1037 8.79046 12.1566 8.84337C12.2095 8.89629 12.2725 8.93812 12.3418 8.96641C12.4111 8.9947 12.4853 9.00888 12.5601 9.00811C12.635 9.00735 12.7089 8.99167 12.7776 8.96198C12.8463 8.93229 12.9084 8.88919 12.9602 8.83521L15.9602 5.83521C16.0657 5.72971 16.1249 5.58666 16.1249 5.4375C16.1249 5.28834 16.0657 5.14529 15.9602 5.03979L12.9602 2.03979C12.9078 1.9858 12.845 1.94288 12.7757 1.91356C12.7064 1.88425 12.6319 1.86914 12.5566 1.86914ZM5.42651 8.99487C5.28043 8.99913 5.14174 9.06007 5.0398 9.16479L2.0398 12.1648C1.93435 12.2703 1.87511 12.4133 1.87511 12.5625C1.87511 12.7117 1.93435 12.8547 2.0398 12.9602L5.0398 15.9602C5.09163 16.0142 5.15371 16.0573 5.22241 16.087C5.2911 16.1167 5.36503 16.1324 5.43987 16.1331C5.5147 16.1339 5.58894 16.1197 5.65822 16.0914C5.72751 16.0631 5.79046 16.0213 5.84337 15.9684C5.89629 15.9155 5.93812 15.8525 5.96641 15.7832C5.9947 15.7139 6.00888 15.6397 6.00812 15.5649C6.00735 15.49 5.99167 15.4161 5.96198 15.3474C5.93229 15.2787 5.88919 15.2166 5.83521 15.1648L3.79541 13.125H15.5625C15.637 13.1261 15.711 13.1123 15.7802 13.0845C15.8494 13.0567 15.9123 13.0154 15.9654 12.9631C16.0185 12.9108 16.0607 12.8484 16.0894 12.7796C16.1182 12.7108 16.133 12.637 16.133 12.5625C16.133 12.488 16.1182 12.4142 16.0894 12.3454C16.0607 12.2766 16.0185 12.2142 15.9654 12.1619C15.9123 12.1096 15.8494 12.0683 15.7802 12.0405C15.711 12.0127 15.637 11.9989 15.5625 12H3.79541L5.83521 9.96021C5.91636 9.88117 5.97176 9.77948 5.99416 9.66844C6.01656 9.5574 6.00491 9.44219 5.96075 9.33787C5.91659 9.23356 5.84196 9.14501 5.74664 9.08381C5.65132 9.02261 5.53974 8.99161 5.42651 8.99487Z" fill="white"/>
</svg>
